%TF.GenerationSoftware,KiCad,Pcbnew,8.0.3*%
%TF.CreationDate,2025-01-13T10:43:54-08:00*%
%TF.ProjectId,Stereo_VGA,53746572-656f-45f5-9647-412e6b696361,rev?*%
%TF.SameCoordinates,Original*%
%TF.FileFunction,Legend,Top*%
%TF.FilePolarity,Positive*%
%FSLAX46Y46*%
G04 Gerber Fmt 4.6, Leading zero omitted, Abs format (unit mm)*
G04 Created by KiCad (PCBNEW 8.0.3) date 2025-01-13 10:43:54*
%MOMM*%
%LPD*%
G01*
G04 APERTURE LIST*
%ADD10C,0.100000*%
%ADD11C,0.152400*%
%ADD12C,0.150000*%
%ADD13C,0.120000*%
%ADD14C,0.127000*%
%ADD15C,0.200000*%
%ADD16C,0.250000*%
G04 APERTURE END LIST*
D10*
X92775000Y-107775000D02*
X100225000Y-107775000D01*
X100225000Y-116225000D01*
X92775000Y-116225000D01*
X92775000Y-107775000D01*
X100625000Y-109775000D02*
X100225000Y-112000000D01*
X113850000Y-84462500D02*
X111700000Y-83125000D01*
X105930000Y-90950000D02*
X106925000Y-93525000D01*
X105930000Y-89050000D02*
X106925000Y-90112500D01*
X102275000Y-88100000D02*
X106025000Y-88100000D01*
X106025000Y-95700000D01*
X102275000Y-95700000D01*
X102275000Y-88100000D01*
X102275000Y-95700000D02*
X106025000Y-95700000D01*
X106025000Y-103275000D01*
X102275000Y-103275000D01*
X102275000Y-95700000D01*
X108225000Y-99150000D02*
X112000000Y-99150000D01*
X112000000Y-106725000D01*
X108225000Y-106725000D01*
X108225000Y-99150000D01*
X105930000Y-92850000D02*
X106925000Y-93525000D01*
X105930000Y-94750000D02*
X106925000Y-93525000D01*
X100625000Y-103675000D02*
X105450000Y-103675000D01*
X105450000Y-109775000D01*
X100625000Y-109775000D01*
X100625000Y-103675000D01*
X113850000Y-82400000D02*
X116175000Y-82400000D01*
X116175000Y-86525000D01*
X113850000Y-86525000D01*
X113850000Y-82400000D01*
X106925000Y-88475000D02*
X112675000Y-88475000D01*
X112675000Y-91750000D01*
X106925000Y-91750000D01*
X106925000Y-88475000D01*
X106925000Y-91850000D02*
X112675000Y-91850000D01*
X112675000Y-95200000D01*
X106925000Y-95200000D01*
X106925000Y-91850000D01*
X108300000Y-79275000D02*
X111700000Y-79275000D01*
X111700000Y-86975000D01*
X108300000Y-86975000D01*
X108300000Y-79275000D01*
X110407895Y-94859524D02*
X110407895Y-94783334D01*
X110407895Y-94783334D02*
X110445990Y-94707143D01*
X110445990Y-94707143D02*
X110484085Y-94669048D01*
X110484085Y-94669048D02*
X110560276Y-94630953D01*
X110560276Y-94630953D02*
X110712657Y-94592858D01*
X110712657Y-94592858D02*
X110903133Y-94592858D01*
X110903133Y-94592858D02*
X111055514Y-94630953D01*
X111055514Y-94630953D02*
X111131704Y-94669048D01*
X111131704Y-94669048D02*
X111169800Y-94707143D01*
X111169800Y-94707143D02*
X111207895Y-94783334D01*
X111207895Y-94783334D02*
X111207895Y-94859524D01*
X111207895Y-94859524D02*
X111169800Y-94935715D01*
X111169800Y-94935715D02*
X111131704Y-94973810D01*
X111131704Y-94973810D02*
X111055514Y-95011905D01*
X111055514Y-95011905D02*
X110903133Y-95050001D01*
X110903133Y-95050001D02*
X110712657Y-95050001D01*
X110712657Y-95050001D02*
X110560276Y-95011905D01*
X110560276Y-95011905D02*
X110484085Y-94973810D01*
X110484085Y-94973810D02*
X110445990Y-94935715D01*
X110445990Y-94935715D02*
X110407895Y-94859524D01*
X110484085Y-94288096D02*
X110445990Y-94250000D01*
X110445990Y-94250000D02*
X110407895Y-94173810D01*
X110407895Y-94173810D02*
X110407895Y-93983334D01*
X110407895Y-93983334D02*
X110445990Y-93907143D01*
X110445990Y-93907143D02*
X110484085Y-93869048D01*
X110484085Y-93869048D02*
X110560276Y-93830953D01*
X110560276Y-93830953D02*
X110636466Y-93830953D01*
X110636466Y-93830953D02*
X110750752Y-93869048D01*
X110750752Y-93869048D02*
X111207895Y-94326191D01*
X111207895Y-94326191D02*
X111207895Y-93830953D01*
X110484085Y-93526191D02*
X110445990Y-93488095D01*
X110445990Y-93488095D02*
X110407895Y-93411905D01*
X110407895Y-93411905D02*
X110407895Y-93221429D01*
X110407895Y-93221429D02*
X110445990Y-93145238D01*
X110445990Y-93145238D02*
X110484085Y-93107143D01*
X110484085Y-93107143D02*
X110560276Y-93069048D01*
X110560276Y-93069048D02*
X110636466Y-93069048D01*
X110636466Y-93069048D02*
X110750752Y-93107143D01*
X110750752Y-93107143D02*
X111207895Y-93564286D01*
X111207895Y-93564286D02*
X111207895Y-93069048D01*
X110407895Y-92573809D02*
X110407895Y-92497619D01*
X110407895Y-92497619D02*
X110445990Y-92421428D01*
X110445990Y-92421428D02*
X110484085Y-92383333D01*
X110484085Y-92383333D02*
X110560276Y-92345238D01*
X110560276Y-92345238D02*
X110712657Y-92307143D01*
X110712657Y-92307143D02*
X110903133Y-92307143D01*
X110903133Y-92307143D02*
X111055514Y-92345238D01*
X111055514Y-92345238D02*
X111131704Y-92383333D01*
X111131704Y-92383333D02*
X111169800Y-92421428D01*
X111169800Y-92421428D02*
X111207895Y-92497619D01*
X111207895Y-92497619D02*
X111207895Y-92573809D01*
X111207895Y-92573809D02*
X111169800Y-92650000D01*
X111169800Y-92650000D02*
X111131704Y-92688095D01*
X111131704Y-92688095D02*
X111055514Y-92726190D01*
X111055514Y-92726190D02*
X110903133Y-92764286D01*
X110903133Y-92764286D02*
X110712657Y-92764286D01*
X110712657Y-92764286D02*
X110560276Y-92726190D01*
X110560276Y-92726190D02*
X110484085Y-92688095D01*
X110484085Y-92688095D02*
X110445990Y-92650000D01*
X110445990Y-92650000D02*
X110407895Y-92573809D01*
X110407895Y-91202380D02*
X110407895Y-91126190D01*
X110407895Y-91126190D02*
X110445990Y-91049999D01*
X110445990Y-91049999D02*
X110484085Y-91011904D01*
X110484085Y-91011904D02*
X110560276Y-90973809D01*
X110560276Y-90973809D02*
X110712657Y-90935714D01*
X110712657Y-90935714D02*
X110903133Y-90935714D01*
X110903133Y-90935714D02*
X111055514Y-90973809D01*
X111055514Y-90973809D02*
X111131704Y-91011904D01*
X111131704Y-91011904D02*
X111169800Y-91049999D01*
X111169800Y-91049999D02*
X111207895Y-91126190D01*
X111207895Y-91126190D02*
X111207895Y-91202380D01*
X111207895Y-91202380D02*
X111169800Y-91278571D01*
X111169800Y-91278571D02*
X111131704Y-91316666D01*
X111131704Y-91316666D02*
X111055514Y-91354761D01*
X111055514Y-91354761D02*
X110903133Y-91392857D01*
X110903133Y-91392857D02*
X110712657Y-91392857D01*
X110712657Y-91392857D02*
X110560276Y-91354761D01*
X110560276Y-91354761D02*
X110484085Y-91316666D01*
X110484085Y-91316666D02*
X110445990Y-91278571D01*
X110445990Y-91278571D02*
X110407895Y-91202380D01*
X110674561Y-90249999D02*
X111207895Y-90249999D01*
X110369800Y-90440475D02*
X110941228Y-90630952D01*
X110941228Y-90630952D02*
X110941228Y-90135713D01*
X110407895Y-89907142D02*
X110407895Y-89373808D01*
X110407895Y-89373808D02*
X111207895Y-89716666D01*
X110407895Y-88916665D02*
X110407895Y-88840475D01*
X110407895Y-88840475D02*
X110445990Y-88764284D01*
X110445990Y-88764284D02*
X110484085Y-88726189D01*
X110484085Y-88726189D02*
X110560276Y-88688094D01*
X110560276Y-88688094D02*
X110712657Y-88649999D01*
X110712657Y-88649999D02*
X110903133Y-88649999D01*
X110903133Y-88649999D02*
X111055514Y-88688094D01*
X111055514Y-88688094D02*
X111131704Y-88726189D01*
X111131704Y-88726189D02*
X111169800Y-88764284D01*
X111169800Y-88764284D02*
X111207895Y-88840475D01*
X111207895Y-88840475D02*
X111207895Y-88916665D01*
X111207895Y-88916665D02*
X111169800Y-88992856D01*
X111169800Y-88992856D02*
X111131704Y-89030951D01*
X111131704Y-89030951D02*
X111055514Y-89069046D01*
X111055514Y-89069046D02*
X110903133Y-89107142D01*
X110903133Y-89107142D02*
X110712657Y-89107142D01*
X110712657Y-89107142D02*
X110560276Y-89069046D01*
X110560276Y-89069046D02*
X110484085Y-89030951D01*
X110484085Y-89030951D02*
X110445990Y-88992856D01*
X110445990Y-88992856D02*
X110407895Y-88916665D01*
X112495850Y-94592858D02*
X112495850Y-95050001D01*
X112495850Y-94821429D02*
X111695850Y-94821429D01*
X111695850Y-94821429D02*
X111810135Y-94897620D01*
X111810135Y-94897620D02*
X111886326Y-94973810D01*
X111886326Y-94973810D02*
X111924421Y-95050001D01*
X111695850Y-94097619D02*
X111695850Y-94021429D01*
X111695850Y-94021429D02*
X111733945Y-93945238D01*
X111733945Y-93945238D02*
X111772040Y-93907143D01*
X111772040Y-93907143D02*
X111848231Y-93869048D01*
X111848231Y-93869048D02*
X112000612Y-93830953D01*
X112000612Y-93830953D02*
X112191088Y-93830953D01*
X112191088Y-93830953D02*
X112343469Y-93869048D01*
X112343469Y-93869048D02*
X112419659Y-93907143D01*
X112419659Y-93907143D02*
X112457755Y-93945238D01*
X112457755Y-93945238D02*
X112495850Y-94021429D01*
X112495850Y-94021429D02*
X112495850Y-94097619D01*
X112495850Y-94097619D02*
X112457755Y-94173810D01*
X112457755Y-94173810D02*
X112419659Y-94211905D01*
X112419659Y-94211905D02*
X112343469Y-94250000D01*
X112343469Y-94250000D02*
X112191088Y-94288096D01*
X112191088Y-94288096D02*
X112000612Y-94288096D01*
X112000612Y-94288096D02*
X111848231Y-94250000D01*
X111848231Y-94250000D02*
X111772040Y-94211905D01*
X111772040Y-94211905D02*
X111733945Y-94173810D01*
X111733945Y-94173810D02*
X111695850Y-94097619D01*
X111695850Y-93335714D02*
X111695850Y-93259524D01*
X111695850Y-93259524D02*
X111733945Y-93183333D01*
X111733945Y-93183333D02*
X111772040Y-93145238D01*
X111772040Y-93145238D02*
X111848231Y-93107143D01*
X111848231Y-93107143D02*
X112000612Y-93069048D01*
X112000612Y-93069048D02*
X112191088Y-93069048D01*
X112191088Y-93069048D02*
X112343469Y-93107143D01*
X112343469Y-93107143D02*
X112419659Y-93145238D01*
X112419659Y-93145238D02*
X112457755Y-93183333D01*
X112457755Y-93183333D02*
X112495850Y-93259524D01*
X112495850Y-93259524D02*
X112495850Y-93335714D01*
X112495850Y-93335714D02*
X112457755Y-93411905D01*
X112457755Y-93411905D02*
X112419659Y-93450000D01*
X112419659Y-93450000D02*
X112343469Y-93488095D01*
X112343469Y-93488095D02*
X112191088Y-93526191D01*
X112191088Y-93526191D02*
X112000612Y-93526191D01*
X112000612Y-93526191D02*
X111848231Y-93488095D01*
X111848231Y-93488095D02*
X111772040Y-93450000D01*
X111772040Y-93450000D02*
X111733945Y-93411905D01*
X111733945Y-93411905D02*
X111695850Y-93335714D01*
X111695850Y-92573809D02*
X111695850Y-92497619D01*
X111695850Y-92497619D02*
X111733945Y-92421428D01*
X111733945Y-92421428D02*
X111772040Y-92383333D01*
X111772040Y-92383333D02*
X111848231Y-92345238D01*
X111848231Y-92345238D02*
X112000612Y-92307143D01*
X112000612Y-92307143D02*
X112191088Y-92307143D01*
X112191088Y-92307143D02*
X112343469Y-92345238D01*
X112343469Y-92345238D02*
X112419659Y-92383333D01*
X112419659Y-92383333D02*
X112457755Y-92421428D01*
X112457755Y-92421428D02*
X112495850Y-92497619D01*
X112495850Y-92497619D02*
X112495850Y-92573809D01*
X112495850Y-92573809D02*
X112457755Y-92650000D01*
X112457755Y-92650000D02*
X112419659Y-92688095D01*
X112419659Y-92688095D02*
X112343469Y-92726190D01*
X112343469Y-92726190D02*
X112191088Y-92764286D01*
X112191088Y-92764286D02*
X112000612Y-92764286D01*
X112000612Y-92764286D02*
X111848231Y-92726190D01*
X111848231Y-92726190D02*
X111772040Y-92688095D01*
X111772040Y-92688095D02*
X111733945Y-92650000D01*
X111733945Y-92650000D02*
X111695850Y-92573809D01*
X112495850Y-90935714D02*
X112495850Y-91392857D01*
X112495850Y-91164285D02*
X111695850Y-91164285D01*
X111695850Y-91164285D02*
X111810135Y-91240476D01*
X111810135Y-91240476D02*
X111886326Y-91316666D01*
X111886326Y-91316666D02*
X111924421Y-91392857D01*
X111695850Y-90211904D02*
X111695850Y-90592856D01*
X111695850Y-90592856D02*
X112076802Y-90630952D01*
X112076802Y-90630952D02*
X112038707Y-90592856D01*
X112038707Y-90592856D02*
X112000612Y-90516666D01*
X112000612Y-90516666D02*
X112000612Y-90326190D01*
X112000612Y-90326190D02*
X112038707Y-90249999D01*
X112038707Y-90249999D02*
X112076802Y-90211904D01*
X112076802Y-90211904D02*
X112152993Y-90173809D01*
X112152993Y-90173809D02*
X112343469Y-90173809D01*
X112343469Y-90173809D02*
X112419659Y-90211904D01*
X112419659Y-90211904D02*
X112457755Y-90249999D01*
X112457755Y-90249999D02*
X112495850Y-90326190D01*
X112495850Y-90326190D02*
X112495850Y-90516666D01*
X112495850Y-90516666D02*
X112457755Y-90592856D01*
X112457755Y-90592856D02*
X112419659Y-90630952D01*
X111695850Y-89678570D02*
X111695850Y-89602380D01*
X111695850Y-89602380D02*
X111733945Y-89526189D01*
X111733945Y-89526189D02*
X111772040Y-89488094D01*
X111772040Y-89488094D02*
X111848231Y-89449999D01*
X111848231Y-89449999D02*
X112000612Y-89411904D01*
X112000612Y-89411904D02*
X112191088Y-89411904D01*
X112191088Y-89411904D02*
X112343469Y-89449999D01*
X112343469Y-89449999D02*
X112419659Y-89488094D01*
X112419659Y-89488094D02*
X112457755Y-89526189D01*
X112457755Y-89526189D02*
X112495850Y-89602380D01*
X112495850Y-89602380D02*
X112495850Y-89678570D01*
X112495850Y-89678570D02*
X112457755Y-89754761D01*
X112457755Y-89754761D02*
X112419659Y-89792856D01*
X112419659Y-89792856D02*
X112343469Y-89830951D01*
X112343469Y-89830951D02*
X112191088Y-89869047D01*
X112191088Y-89869047D02*
X112000612Y-89869047D01*
X112000612Y-89869047D02*
X111848231Y-89830951D01*
X111848231Y-89830951D02*
X111772040Y-89792856D01*
X111772040Y-89792856D02*
X111733945Y-89754761D01*
X111733945Y-89754761D02*
X111695850Y-89678570D01*
X111695850Y-88916665D02*
X111695850Y-88840475D01*
X111695850Y-88840475D02*
X111733945Y-88764284D01*
X111733945Y-88764284D02*
X111772040Y-88726189D01*
X111772040Y-88726189D02*
X111848231Y-88688094D01*
X111848231Y-88688094D02*
X112000612Y-88649999D01*
X112000612Y-88649999D02*
X112191088Y-88649999D01*
X112191088Y-88649999D02*
X112343469Y-88688094D01*
X112343469Y-88688094D02*
X112419659Y-88726189D01*
X112419659Y-88726189D02*
X112457755Y-88764284D01*
X112457755Y-88764284D02*
X112495850Y-88840475D01*
X112495850Y-88840475D02*
X112495850Y-88916665D01*
X112495850Y-88916665D02*
X112457755Y-88992856D01*
X112457755Y-88992856D02*
X112419659Y-89030951D01*
X112419659Y-89030951D02*
X112343469Y-89069046D01*
X112343469Y-89069046D02*
X112191088Y-89107142D01*
X112191088Y-89107142D02*
X112000612Y-89107142D01*
X112000612Y-89107142D02*
X111848231Y-89069046D01*
X111848231Y-89069046D02*
X111772040Y-89030951D01*
X111772040Y-89030951D02*
X111733945Y-88992856D01*
X111733945Y-88992856D02*
X111695850Y-88916665D01*
X102121428Y-118564895D02*
X102121428Y-119136323D01*
X102121428Y-119136323D02*
X102083333Y-119250609D01*
X102083333Y-119250609D02*
X102007142Y-119326800D01*
X102007142Y-119326800D02*
X101892857Y-119364895D01*
X101892857Y-119364895D02*
X101816666Y-119364895D01*
X102845238Y-119364895D02*
X102845238Y-118945847D01*
X102845238Y-118945847D02*
X102807143Y-118869657D01*
X102807143Y-118869657D02*
X102730952Y-118831561D01*
X102730952Y-118831561D02*
X102578571Y-118831561D01*
X102578571Y-118831561D02*
X102502381Y-118869657D01*
X102845238Y-119326800D02*
X102769047Y-119364895D01*
X102769047Y-119364895D02*
X102578571Y-119364895D01*
X102578571Y-119364895D02*
X102502381Y-119326800D01*
X102502381Y-119326800D02*
X102464285Y-119250609D01*
X102464285Y-119250609D02*
X102464285Y-119174419D01*
X102464285Y-119174419D02*
X102502381Y-119098228D01*
X102502381Y-119098228D02*
X102578571Y-119060133D01*
X102578571Y-119060133D02*
X102769047Y-119060133D01*
X102769047Y-119060133D02*
X102845238Y-119022038D01*
X103569048Y-119326800D02*
X103492857Y-119364895D01*
X103492857Y-119364895D02*
X103340476Y-119364895D01*
X103340476Y-119364895D02*
X103264286Y-119326800D01*
X103264286Y-119326800D02*
X103226191Y-119288704D01*
X103226191Y-119288704D02*
X103188095Y-119212514D01*
X103188095Y-119212514D02*
X103188095Y-118983942D01*
X103188095Y-118983942D02*
X103226191Y-118907752D01*
X103226191Y-118907752D02*
X103264286Y-118869657D01*
X103264286Y-118869657D02*
X103340476Y-118831561D01*
X103340476Y-118831561D02*
X103492857Y-118831561D01*
X103492857Y-118831561D02*
X103569048Y-118869657D01*
X103911905Y-119364895D02*
X103911905Y-118564895D01*
X103988095Y-119060133D02*
X104216667Y-119364895D01*
X104216667Y-118831561D02*
X103911905Y-119136323D01*
X105169048Y-118831561D02*
X104559524Y-119060133D01*
X104559524Y-119060133D02*
X105169048Y-119288704D01*
X105550000Y-119060133D02*
X106159524Y-119060133D01*
X106921428Y-119364895D02*
X106540476Y-119364895D01*
X106540476Y-119364895D02*
X106540476Y-118564895D01*
X107188095Y-119060133D02*
X107797619Y-119060133D01*
X108178571Y-118831561D02*
X108788095Y-119060133D01*
X108788095Y-119060133D02*
X108178571Y-119288704D01*
X109435713Y-118945847D02*
X109549999Y-118983942D01*
X109549999Y-118983942D02*
X109588094Y-119022038D01*
X109588094Y-119022038D02*
X109626190Y-119098228D01*
X109626190Y-119098228D02*
X109626190Y-119212514D01*
X109626190Y-119212514D02*
X109588094Y-119288704D01*
X109588094Y-119288704D02*
X109549999Y-119326800D01*
X109549999Y-119326800D02*
X109473809Y-119364895D01*
X109473809Y-119364895D02*
X109169047Y-119364895D01*
X109169047Y-119364895D02*
X109169047Y-118564895D01*
X109169047Y-118564895D02*
X109435713Y-118564895D01*
X109435713Y-118564895D02*
X109511904Y-118602990D01*
X109511904Y-118602990D02*
X109549999Y-118641085D01*
X109549999Y-118641085D02*
X109588094Y-118717276D01*
X109588094Y-118717276D02*
X109588094Y-118793466D01*
X109588094Y-118793466D02*
X109549999Y-118869657D01*
X109549999Y-118869657D02*
X109511904Y-118907752D01*
X109511904Y-118907752D02*
X109435713Y-118945847D01*
X109435713Y-118945847D02*
X109169047Y-118945847D01*
X110311904Y-118831561D02*
X110311904Y-119364895D01*
X109969047Y-118831561D02*
X109969047Y-119250609D01*
X109969047Y-119250609D02*
X110007142Y-119326800D01*
X110007142Y-119326800D02*
X110083332Y-119364895D01*
X110083332Y-119364895D02*
X110197618Y-119364895D01*
X110197618Y-119364895D02*
X110273809Y-119326800D01*
X110273809Y-119326800D02*
X110311904Y-119288704D01*
X110616666Y-118831561D02*
X111035714Y-118831561D01*
X111035714Y-118831561D02*
X110616666Y-119364895D01*
X110616666Y-119364895D02*
X111035714Y-119364895D01*
X111264285Y-118831561D02*
X111683333Y-118831561D01*
X111683333Y-118831561D02*
X111264285Y-119364895D01*
X111264285Y-119364895D02*
X111683333Y-119364895D01*
X99047618Y-79122419D02*
X98571428Y-79122419D01*
X98571428Y-79122419D02*
X98571428Y-78122419D01*
X101476190Y-79122419D02*
X101142857Y-78646228D01*
X100904762Y-79122419D02*
X100904762Y-78122419D01*
X100904762Y-78122419D02*
X101285714Y-78122419D01*
X101285714Y-78122419D02*
X101380952Y-78170038D01*
X101380952Y-78170038D02*
X101428571Y-78217657D01*
X101428571Y-78217657D02*
X101476190Y-78312895D01*
X101476190Y-78312895D02*
X101476190Y-78455752D01*
X101476190Y-78455752D02*
X101428571Y-78550990D01*
X101428571Y-78550990D02*
X101380952Y-78598609D01*
X101380952Y-78598609D02*
X101285714Y-78646228D01*
X101285714Y-78646228D02*
X100904762Y-78646228D01*
X125030074Y-104347475D02*
X124553884Y-104347475D01*
X124553884Y-104347475D02*
X124553884Y-103347475D01*
X125125312Y-107567363D02*
X124791979Y-107091172D01*
X124553884Y-107567363D02*
X124553884Y-106567363D01*
X124553884Y-106567363D02*
X124934836Y-106567363D01*
X124934836Y-106567363D02*
X125030074Y-106614982D01*
X125030074Y-106614982D02*
X125077693Y-106662601D01*
X125077693Y-106662601D02*
X125125312Y-106757839D01*
X125125312Y-106757839D02*
X125125312Y-106900696D01*
X125125312Y-106900696D02*
X125077693Y-106995934D01*
X125077693Y-106995934D02*
X125030074Y-107043553D01*
X125030074Y-107043553D02*
X124934836Y-107091172D01*
X124934836Y-107091172D02*
X124553884Y-107091172D01*
D11*
X86662381Y-81135470D02*
X86843809Y-81211065D01*
X86843809Y-81211065D02*
X86904286Y-81286661D01*
X86904286Y-81286661D02*
X86964762Y-81437851D01*
X86964762Y-81437851D02*
X86964762Y-81664637D01*
X86964762Y-81664637D02*
X86904286Y-81815827D01*
X86904286Y-81815827D02*
X86843809Y-81891423D01*
X86843809Y-81891423D02*
X86722857Y-81967018D01*
X86722857Y-81967018D02*
X86239047Y-81967018D01*
X86239047Y-81967018D02*
X86239047Y-80379518D01*
X86239047Y-80379518D02*
X86662381Y-80379518D01*
X86662381Y-80379518D02*
X86783333Y-80455113D01*
X86783333Y-80455113D02*
X86843809Y-80530708D01*
X86843809Y-80530708D02*
X86904286Y-80681899D01*
X86904286Y-80681899D02*
X86904286Y-80833089D01*
X86904286Y-80833089D02*
X86843809Y-80984280D01*
X86843809Y-80984280D02*
X86783333Y-81059875D01*
X86783333Y-81059875D02*
X86662381Y-81135470D01*
X86662381Y-81135470D02*
X86239047Y-81135470D01*
X87750952Y-80379518D02*
X87871905Y-80379518D01*
X87871905Y-80379518D02*
X87992857Y-80455113D01*
X87992857Y-80455113D02*
X88053333Y-80530708D01*
X88053333Y-80530708D02*
X88113809Y-80681899D01*
X88113809Y-80681899D02*
X88174286Y-80984280D01*
X88174286Y-80984280D02*
X88174286Y-81362256D01*
X88174286Y-81362256D02*
X88113809Y-81664637D01*
X88113809Y-81664637D02*
X88053333Y-81815827D01*
X88053333Y-81815827D02*
X87992857Y-81891423D01*
X87992857Y-81891423D02*
X87871905Y-81967018D01*
X87871905Y-81967018D02*
X87750952Y-81967018D01*
X87750952Y-81967018D02*
X87630000Y-81891423D01*
X87630000Y-81891423D02*
X87569524Y-81815827D01*
X87569524Y-81815827D02*
X87509047Y-81664637D01*
X87509047Y-81664637D02*
X87448571Y-81362256D01*
X87448571Y-81362256D02*
X87448571Y-80984280D01*
X87448571Y-80984280D02*
X87509047Y-80681899D01*
X87509047Y-80681899D02*
X87569524Y-80530708D01*
X87569524Y-80530708D02*
X87630000Y-80455113D01*
X87630000Y-80455113D02*
X87750952Y-80379518D01*
X90411905Y-81967018D02*
X89988571Y-81211065D01*
X89686190Y-81967018D02*
X89686190Y-80379518D01*
X89686190Y-80379518D02*
X90170000Y-80379518D01*
X90170000Y-80379518D02*
X90290952Y-80455113D01*
X90290952Y-80455113D02*
X90351429Y-80530708D01*
X90351429Y-80530708D02*
X90411905Y-80681899D01*
X90411905Y-80681899D02*
X90411905Y-80908684D01*
X90411905Y-80908684D02*
X90351429Y-81059875D01*
X90351429Y-81059875D02*
X90290952Y-81135470D01*
X90290952Y-81135470D02*
X90170000Y-81211065D01*
X90170000Y-81211065D02*
X89686190Y-81211065D01*
X91198095Y-80379518D02*
X91319048Y-80379518D01*
X91319048Y-80379518D02*
X91440000Y-80455113D01*
X91440000Y-80455113D02*
X91500476Y-80530708D01*
X91500476Y-80530708D02*
X91560952Y-80681899D01*
X91560952Y-80681899D02*
X91621429Y-80984280D01*
X91621429Y-80984280D02*
X91621429Y-81362256D01*
X91621429Y-81362256D02*
X91560952Y-81664637D01*
X91560952Y-81664637D02*
X91500476Y-81815827D01*
X91500476Y-81815827D02*
X91440000Y-81891423D01*
X91440000Y-81891423D02*
X91319048Y-81967018D01*
X91319048Y-81967018D02*
X91198095Y-81967018D01*
X91198095Y-81967018D02*
X91077143Y-81891423D01*
X91077143Y-81891423D02*
X91016667Y-81815827D01*
X91016667Y-81815827D02*
X90956190Y-81664637D01*
X90956190Y-81664637D02*
X90895714Y-81362256D01*
X90895714Y-81362256D02*
X90895714Y-80984280D01*
X90895714Y-80984280D02*
X90956190Y-80681899D01*
X90956190Y-80681899D02*
X91016667Y-80530708D01*
X91016667Y-80530708D02*
X91077143Y-80455113D01*
X91077143Y-80455113D02*
X91198095Y-80379518D01*
X86662381Y-83691256D02*
X86843809Y-83766851D01*
X86843809Y-83766851D02*
X86904286Y-83842447D01*
X86904286Y-83842447D02*
X86964762Y-83993637D01*
X86964762Y-83993637D02*
X86964762Y-84220423D01*
X86964762Y-84220423D02*
X86904286Y-84371613D01*
X86904286Y-84371613D02*
X86843809Y-84447209D01*
X86843809Y-84447209D02*
X86722857Y-84522804D01*
X86722857Y-84522804D02*
X86239047Y-84522804D01*
X86239047Y-84522804D02*
X86239047Y-82935304D01*
X86239047Y-82935304D02*
X86662381Y-82935304D01*
X86662381Y-82935304D02*
X86783333Y-83010899D01*
X86783333Y-83010899D02*
X86843809Y-83086494D01*
X86843809Y-83086494D02*
X86904286Y-83237685D01*
X86904286Y-83237685D02*
X86904286Y-83388875D01*
X86904286Y-83388875D02*
X86843809Y-83540066D01*
X86843809Y-83540066D02*
X86783333Y-83615661D01*
X86783333Y-83615661D02*
X86662381Y-83691256D01*
X86662381Y-83691256D02*
X86239047Y-83691256D01*
X88174286Y-84522804D02*
X87448571Y-84522804D01*
X87811428Y-84522804D02*
X87811428Y-82935304D01*
X87811428Y-82935304D02*
X87690476Y-83162089D01*
X87690476Y-83162089D02*
X87569524Y-83313280D01*
X87569524Y-83313280D02*
X87448571Y-83388875D01*
X90411905Y-84522804D02*
X89988571Y-83766851D01*
X89686190Y-84522804D02*
X89686190Y-82935304D01*
X89686190Y-82935304D02*
X90170000Y-82935304D01*
X90170000Y-82935304D02*
X90290952Y-83010899D01*
X90290952Y-83010899D02*
X90351429Y-83086494D01*
X90351429Y-83086494D02*
X90411905Y-83237685D01*
X90411905Y-83237685D02*
X90411905Y-83464470D01*
X90411905Y-83464470D02*
X90351429Y-83615661D01*
X90351429Y-83615661D02*
X90290952Y-83691256D01*
X90290952Y-83691256D02*
X90170000Y-83766851D01*
X90170000Y-83766851D02*
X89686190Y-83766851D01*
X91621429Y-84522804D02*
X90895714Y-84522804D01*
X91258571Y-84522804D02*
X91258571Y-82935304D01*
X91258571Y-82935304D02*
X91137619Y-83162089D01*
X91137619Y-83162089D02*
X91016667Y-83313280D01*
X91016667Y-83313280D02*
X90895714Y-83388875D01*
X86662381Y-86247042D02*
X86843809Y-86322637D01*
X86843809Y-86322637D02*
X86904286Y-86398233D01*
X86904286Y-86398233D02*
X86964762Y-86549423D01*
X86964762Y-86549423D02*
X86964762Y-86776209D01*
X86964762Y-86776209D02*
X86904286Y-86927399D01*
X86904286Y-86927399D02*
X86843809Y-87002995D01*
X86843809Y-87002995D02*
X86722857Y-87078590D01*
X86722857Y-87078590D02*
X86239047Y-87078590D01*
X86239047Y-87078590D02*
X86239047Y-85491090D01*
X86239047Y-85491090D02*
X86662381Y-85491090D01*
X86662381Y-85491090D02*
X86783333Y-85566685D01*
X86783333Y-85566685D02*
X86843809Y-85642280D01*
X86843809Y-85642280D02*
X86904286Y-85793471D01*
X86904286Y-85793471D02*
X86904286Y-85944661D01*
X86904286Y-85944661D02*
X86843809Y-86095852D01*
X86843809Y-86095852D02*
X86783333Y-86171447D01*
X86783333Y-86171447D02*
X86662381Y-86247042D01*
X86662381Y-86247042D02*
X86239047Y-86247042D01*
X87448571Y-85642280D02*
X87509047Y-85566685D01*
X87509047Y-85566685D02*
X87630000Y-85491090D01*
X87630000Y-85491090D02*
X87932381Y-85491090D01*
X87932381Y-85491090D02*
X88053333Y-85566685D01*
X88053333Y-85566685D02*
X88113809Y-85642280D01*
X88113809Y-85642280D02*
X88174286Y-85793471D01*
X88174286Y-85793471D02*
X88174286Y-85944661D01*
X88174286Y-85944661D02*
X88113809Y-86171447D01*
X88113809Y-86171447D02*
X87388095Y-87078590D01*
X87388095Y-87078590D02*
X88174286Y-87078590D01*
X90411905Y-87078590D02*
X89988571Y-86322637D01*
X89686190Y-87078590D02*
X89686190Y-85491090D01*
X89686190Y-85491090D02*
X90170000Y-85491090D01*
X90170000Y-85491090D02*
X90290952Y-85566685D01*
X90290952Y-85566685D02*
X90351429Y-85642280D01*
X90351429Y-85642280D02*
X90411905Y-85793471D01*
X90411905Y-85793471D02*
X90411905Y-86020256D01*
X90411905Y-86020256D02*
X90351429Y-86171447D01*
X90351429Y-86171447D02*
X90290952Y-86247042D01*
X90290952Y-86247042D02*
X90170000Y-86322637D01*
X90170000Y-86322637D02*
X89686190Y-86322637D01*
X90895714Y-85642280D02*
X90956190Y-85566685D01*
X90956190Y-85566685D02*
X91077143Y-85491090D01*
X91077143Y-85491090D02*
X91379524Y-85491090D01*
X91379524Y-85491090D02*
X91500476Y-85566685D01*
X91500476Y-85566685D02*
X91560952Y-85642280D01*
X91560952Y-85642280D02*
X91621429Y-85793471D01*
X91621429Y-85793471D02*
X91621429Y-85944661D01*
X91621429Y-85944661D02*
X91560952Y-86171447D01*
X91560952Y-86171447D02*
X90835238Y-87078590D01*
X90835238Y-87078590D02*
X91621429Y-87078590D01*
X86662381Y-88802828D02*
X86843809Y-88878423D01*
X86843809Y-88878423D02*
X86904286Y-88954019D01*
X86904286Y-88954019D02*
X86964762Y-89105209D01*
X86964762Y-89105209D02*
X86964762Y-89331995D01*
X86964762Y-89331995D02*
X86904286Y-89483185D01*
X86904286Y-89483185D02*
X86843809Y-89558781D01*
X86843809Y-89558781D02*
X86722857Y-89634376D01*
X86722857Y-89634376D02*
X86239047Y-89634376D01*
X86239047Y-89634376D02*
X86239047Y-88046876D01*
X86239047Y-88046876D02*
X86662381Y-88046876D01*
X86662381Y-88046876D02*
X86783333Y-88122471D01*
X86783333Y-88122471D02*
X86843809Y-88198066D01*
X86843809Y-88198066D02*
X86904286Y-88349257D01*
X86904286Y-88349257D02*
X86904286Y-88500447D01*
X86904286Y-88500447D02*
X86843809Y-88651638D01*
X86843809Y-88651638D02*
X86783333Y-88727233D01*
X86783333Y-88727233D02*
X86662381Y-88802828D01*
X86662381Y-88802828D02*
X86239047Y-88802828D01*
X87388095Y-88046876D02*
X88174286Y-88046876D01*
X88174286Y-88046876D02*
X87750952Y-88651638D01*
X87750952Y-88651638D02*
X87932381Y-88651638D01*
X87932381Y-88651638D02*
X88053333Y-88727233D01*
X88053333Y-88727233D02*
X88113809Y-88802828D01*
X88113809Y-88802828D02*
X88174286Y-88954019D01*
X88174286Y-88954019D02*
X88174286Y-89331995D01*
X88174286Y-89331995D02*
X88113809Y-89483185D01*
X88113809Y-89483185D02*
X88053333Y-89558781D01*
X88053333Y-89558781D02*
X87932381Y-89634376D01*
X87932381Y-89634376D02*
X87569524Y-89634376D01*
X87569524Y-89634376D02*
X87448571Y-89558781D01*
X87448571Y-89558781D02*
X87388095Y-89483185D01*
X90411905Y-89634376D02*
X89988571Y-88878423D01*
X89686190Y-89634376D02*
X89686190Y-88046876D01*
X89686190Y-88046876D02*
X90170000Y-88046876D01*
X90170000Y-88046876D02*
X90290952Y-88122471D01*
X90290952Y-88122471D02*
X90351429Y-88198066D01*
X90351429Y-88198066D02*
X90411905Y-88349257D01*
X90411905Y-88349257D02*
X90411905Y-88576042D01*
X90411905Y-88576042D02*
X90351429Y-88727233D01*
X90351429Y-88727233D02*
X90290952Y-88802828D01*
X90290952Y-88802828D02*
X90170000Y-88878423D01*
X90170000Y-88878423D02*
X89686190Y-88878423D01*
X90835238Y-88046876D02*
X91621429Y-88046876D01*
X91621429Y-88046876D02*
X91198095Y-88651638D01*
X91198095Y-88651638D02*
X91379524Y-88651638D01*
X91379524Y-88651638D02*
X91500476Y-88727233D01*
X91500476Y-88727233D02*
X91560952Y-88802828D01*
X91560952Y-88802828D02*
X91621429Y-88954019D01*
X91621429Y-88954019D02*
X91621429Y-89331995D01*
X91621429Y-89331995D02*
X91560952Y-89483185D01*
X91560952Y-89483185D02*
X91500476Y-89558781D01*
X91500476Y-89558781D02*
X91379524Y-89634376D01*
X91379524Y-89634376D02*
X91016667Y-89634376D01*
X91016667Y-89634376D02*
X90895714Y-89558781D01*
X90895714Y-89558781D02*
X90835238Y-89483185D01*
X87932381Y-90678257D02*
X87811428Y-90602662D01*
X87811428Y-90602662D02*
X87630000Y-90602662D01*
X87630000Y-90602662D02*
X87448571Y-90678257D01*
X87448571Y-90678257D02*
X87327619Y-90829447D01*
X87327619Y-90829447D02*
X87267142Y-90980638D01*
X87267142Y-90980638D02*
X87206666Y-91283019D01*
X87206666Y-91283019D02*
X87206666Y-91509805D01*
X87206666Y-91509805D02*
X87267142Y-91812186D01*
X87267142Y-91812186D02*
X87327619Y-91963376D01*
X87327619Y-91963376D02*
X87448571Y-92114567D01*
X87448571Y-92114567D02*
X87630000Y-92190162D01*
X87630000Y-92190162D02*
X87750952Y-92190162D01*
X87750952Y-92190162D02*
X87932381Y-92114567D01*
X87932381Y-92114567D02*
X87992857Y-92038971D01*
X87992857Y-92038971D02*
X87992857Y-91509805D01*
X87992857Y-91509805D02*
X87750952Y-91509805D01*
X88537142Y-92190162D02*
X88537142Y-90602662D01*
X88537142Y-90602662D02*
X89262857Y-92190162D01*
X89262857Y-92190162D02*
X89262857Y-90602662D01*
X89867618Y-92190162D02*
X89867618Y-90602662D01*
X89867618Y-90602662D02*
X90169999Y-90602662D01*
X90169999Y-90602662D02*
X90351428Y-90678257D01*
X90351428Y-90678257D02*
X90472380Y-90829447D01*
X90472380Y-90829447D02*
X90532857Y-90980638D01*
X90532857Y-90980638D02*
X90593333Y-91283019D01*
X90593333Y-91283019D02*
X90593333Y-91509805D01*
X90593333Y-91509805D02*
X90532857Y-91812186D01*
X90532857Y-91812186D02*
X90472380Y-91963376D01*
X90472380Y-91963376D02*
X90351428Y-92114567D01*
X90351428Y-92114567D02*
X90169999Y-92190162D01*
X90169999Y-92190162D02*
X89867618Y-92190162D01*
X87327619Y-93158448D02*
X88113810Y-93158448D01*
X88113810Y-93158448D02*
X87690476Y-93763210D01*
X87690476Y-93763210D02*
X87871905Y-93763210D01*
X87871905Y-93763210D02*
X87992857Y-93838805D01*
X87992857Y-93838805D02*
X88053333Y-93914400D01*
X88053333Y-93914400D02*
X88113810Y-94065591D01*
X88113810Y-94065591D02*
X88113810Y-94443567D01*
X88113810Y-94443567D02*
X88053333Y-94594757D01*
X88053333Y-94594757D02*
X87992857Y-94670353D01*
X87992857Y-94670353D02*
X87871905Y-94745948D01*
X87871905Y-94745948D02*
X87509048Y-94745948D01*
X87509048Y-94745948D02*
X87388095Y-94670353D01*
X87388095Y-94670353D02*
X87327619Y-94594757D01*
X88476667Y-93158448D02*
X88900000Y-94745948D01*
X88900000Y-94745948D02*
X89323334Y-93158448D01*
X89625714Y-93158448D02*
X90411905Y-93158448D01*
X90411905Y-93158448D02*
X89988571Y-93763210D01*
X89988571Y-93763210D02*
X90170000Y-93763210D01*
X90170000Y-93763210D02*
X90290952Y-93838805D01*
X90290952Y-93838805D02*
X90351428Y-93914400D01*
X90351428Y-93914400D02*
X90411905Y-94065591D01*
X90411905Y-94065591D02*
X90411905Y-94443567D01*
X90411905Y-94443567D02*
X90351428Y-94594757D01*
X90351428Y-94594757D02*
X90290952Y-94670353D01*
X90290952Y-94670353D02*
X90170000Y-94745948D01*
X90170000Y-94745948D02*
X89807143Y-94745948D01*
X89807143Y-94745948D02*
X89686190Y-94670353D01*
X89686190Y-94670353D02*
X89625714Y-94594757D01*
D10*
X107254448Y-89482963D02*
X107330638Y-89482963D01*
X107330638Y-89482963D02*
X107406829Y-89521058D01*
X107406829Y-89521058D02*
X107444924Y-89559153D01*
X107444924Y-89559153D02*
X107483019Y-89635344D01*
X107483019Y-89635344D02*
X107521114Y-89787725D01*
X107521114Y-89787725D02*
X107521114Y-89978201D01*
X107521114Y-89978201D02*
X107483019Y-90130582D01*
X107483019Y-90130582D02*
X107444924Y-90206772D01*
X107444924Y-90206772D02*
X107406829Y-90244868D01*
X107406829Y-90244868D02*
X107330638Y-90282963D01*
X107330638Y-90282963D02*
X107254448Y-90282963D01*
X107254448Y-90282963D02*
X107178257Y-90244868D01*
X107178257Y-90244868D02*
X107140162Y-90206772D01*
X107140162Y-90206772D02*
X107102067Y-90130582D01*
X107102067Y-90130582D02*
X107063971Y-89978201D01*
X107063971Y-89978201D02*
X107063971Y-89787725D01*
X107063971Y-89787725D02*
X107102067Y-89635344D01*
X107102067Y-89635344D02*
X107140162Y-89559153D01*
X107140162Y-89559153D02*
X107178257Y-89521058D01*
X107178257Y-89521058D02*
X107254448Y-89482963D01*
X108206829Y-89749629D02*
X108206829Y-90282963D01*
X108016353Y-89444868D02*
X107825876Y-90016296D01*
X107825876Y-90016296D02*
X108321115Y-90016296D01*
X108549686Y-89482963D02*
X109083020Y-89482963D01*
X109083020Y-89482963D02*
X108740162Y-90282963D01*
X109540163Y-89482963D02*
X109616353Y-89482963D01*
X109616353Y-89482963D02*
X109692544Y-89521058D01*
X109692544Y-89521058D02*
X109730639Y-89559153D01*
X109730639Y-89559153D02*
X109768734Y-89635344D01*
X109768734Y-89635344D02*
X109806829Y-89787725D01*
X109806829Y-89787725D02*
X109806829Y-89978201D01*
X109806829Y-89978201D02*
X109768734Y-90130582D01*
X109768734Y-90130582D02*
X109730639Y-90206772D01*
X109730639Y-90206772D02*
X109692544Y-90244868D01*
X109692544Y-90244868D02*
X109616353Y-90282963D01*
X109616353Y-90282963D02*
X109540163Y-90282963D01*
X109540163Y-90282963D02*
X109463972Y-90244868D01*
X109463972Y-90244868D02*
X109425877Y-90206772D01*
X109425877Y-90206772D02*
X109387782Y-90130582D01*
X109387782Y-90130582D02*
X109349686Y-89978201D01*
X109349686Y-89978201D02*
X109349686Y-89787725D01*
X109349686Y-89787725D02*
X109387782Y-89635344D01*
X109387782Y-89635344D02*
X109425877Y-89559153D01*
X109425877Y-89559153D02*
X109463972Y-89521058D01*
X109463972Y-89521058D02*
X109540163Y-89482963D01*
X107521114Y-91570918D02*
X107063971Y-91570918D01*
X107292543Y-91570918D02*
X107292543Y-90770918D01*
X107292543Y-90770918D02*
X107216352Y-90885203D01*
X107216352Y-90885203D02*
X107140162Y-90961394D01*
X107140162Y-90961394D02*
X107063971Y-90999489D01*
X108244924Y-90770918D02*
X107863972Y-90770918D01*
X107863972Y-90770918D02*
X107825876Y-91151870D01*
X107825876Y-91151870D02*
X107863972Y-91113775D01*
X107863972Y-91113775D02*
X107940162Y-91075680D01*
X107940162Y-91075680D02*
X108130638Y-91075680D01*
X108130638Y-91075680D02*
X108206829Y-91113775D01*
X108206829Y-91113775D02*
X108244924Y-91151870D01*
X108244924Y-91151870D02*
X108283019Y-91228061D01*
X108283019Y-91228061D02*
X108283019Y-91418537D01*
X108283019Y-91418537D02*
X108244924Y-91494727D01*
X108244924Y-91494727D02*
X108206829Y-91532823D01*
X108206829Y-91532823D02*
X108130638Y-91570918D01*
X108130638Y-91570918D02*
X107940162Y-91570918D01*
X107940162Y-91570918D02*
X107863972Y-91532823D01*
X107863972Y-91532823D02*
X107825876Y-91494727D01*
X108778258Y-90770918D02*
X108854448Y-90770918D01*
X108854448Y-90770918D02*
X108930639Y-90809013D01*
X108930639Y-90809013D02*
X108968734Y-90847108D01*
X108968734Y-90847108D02*
X109006829Y-90923299D01*
X109006829Y-90923299D02*
X109044924Y-91075680D01*
X109044924Y-91075680D02*
X109044924Y-91266156D01*
X109044924Y-91266156D02*
X109006829Y-91418537D01*
X109006829Y-91418537D02*
X108968734Y-91494727D01*
X108968734Y-91494727D02*
X108930639Y-91532823D01*
X108930639Y-91532823D02*
X108854448Y-91570918D01*
X108854448Y-91570918D02*
X108778258Y-91570918D01*
X108778258Y-91570918D02*
X108702067Y-91532823D01*
X108702067Y-91532823D02*
X108663972Y-91494727D01*
X108663972Y-91494727D02*
X108625877Y-91418537D01*
X108625877Y-91418537D02*
X108587781Y-91266156D01*
X108587781Y-91266156D02*
X108587781Y-91075680D01*
X108587781Y-91075680D02*
X108625877Y-90923299D01*
X108625877Y-90923299D02*
X108663972Y-90847108D01*
X108663972Y-90847108D02*
X108702067Y-90809013D01*
X108702067Y-90809013D02*
X108778258Y-90770918D01*
X109540163Y-90770918D02*
X109616353Y-90770918D01*
X109616353Y-90770918D02*
X109692544Y-90809013D01*
X109692544Y-90809013D02*
X109730639Y-90847108D01*
X109730639Y-90847108D02*
X109768734Y-90923299D01*
X109768734Y-90923299D02*
X109806829Y-91075680D01*
X109806829Y-91075680D02*
X109806829Y-91266156D01*
X109806829Y-91266156D02*
X109768734Y-91418537D01*
X109768734Y-91418537D02*
X109730639Y-91494727D01*
X109730639Y-91494727D02*
X109692544Y-91532823D01*
X109692544Y-91532823D02*
X109616353Y-91570918D01*
X109616353Y-91570918D02*
X109540163Y-91570918D01*
X109540163Y-91570918D02*
X109463972Y-91532823D01*
X109463972Y-91532823D02*
X109425877Y-91494727D01*
X109425877Y-91494727D02*
X109387782Y-91418537D01*
X109387782Y-91418537D02*
X109349686Y-91266156D01*
X109349686Y-91266156D02*
X109349686Y-91075680D01*
X109349686Y-91075680D02*
X109387782Y-90923299D01*
X109387782Y-90923299D02*
X109425877Y-90847108D01*
X109425877Y-90847108D02*
X109463972Y-90809013D01*
X109463972Y-90809013D02*
X109540163Y-90770918D01*
X107254448Y-92058873D02*
X107330638Y-92058873D01*
X107330638Y-92058873D02*
X107406829Y-92096968D01*
X107406829Y-92096968D02*
X107444924Y-92135063D01*
X107444924Y-92135063D02*
X107483019Y-92211254D01*
X107483019Y-92211254D02*
X107521114Y-92363635D01*
X107521114Y-92363635D02*
X107521114Y-92554111D01*
X107521114Y-92554111D02*
X107483019Y-92706492D01*
X107483019Y-92706492D02*
X107444924Y-92782682D01*
X107444924Y-92782682D02*
X107406829Y-92820778D01*
X107406829Y-92820778D02*
X107330638Y-92858873D01*
X107330638Y-92858873D02*
X107254448Y-92858873D01*
X107254448Y-92858873D02*
X107178257Y-92820778D01*
X107178257Y-92820778D02*
X107140162Y-92782682D01*
X107140162Y-92782682D02*
X107102067Y-92706492D01*
X107102067Y-92706492D02*
X107063971Y-92554111D01*
X107063971Y-92554111D02*
X107063971Y-92363635D01*
X107063971Y-92363635D02*
X107102067Y-92211254D01*
X107102067Y-92211254D02*
X107140162Y-92135063D01*
X107140162Y-92135063D02*
X107178257Y-92096968D01*
X107178257Y-92096968D02*
X107254448Y-92058873D01*
X108206829Y-92325539D02*
X108206829Y-92858873D01*
X108016353Y-92020778D02*
X107825876Y-92592206D01*
X107825876Y-92592206D02*
X108321115Y-92592206D01*
X108549686Y-92058873D02*
X109083020Y-92058873D01*
X109083020Y-92058873D02*
X108740162Y-92858873D01*
X109540163Y-92058873D02*
X109616353Y-92058873D01*
X109616353Y-92058873D02*
X109692544Y-92096968D01*
X109692544Y-92096968D02*
X109730639Y-92135063D01*
X109730639Y-92135063D02*
X109768734Y-92211254D01*
X109768734Y-92211254D02*
X109806829Y-92363635D01*
X109806829Y-92363635D02*
X109806829Y-92554111D01*
X109806829Y-92554111D02*
X109768734Y-92706492D01*
X109768734Y-92706492D02*
X109730639Y-92782682D01*
X109730639Y-92782682D02*
X109692544Y-92820778D01*
X109692544Y-92820778D02*
X109616353Y-92858873D01*
X109616353Y-92858873D02*
X109540163Y-92858873D01*
X109540163Y-92858873D02*
X109463972Y-92820778D01*
X109463972Y-92820778D02*
X109425877Y-92782682D01*
X109425877Y-92782682D02*
X109387782Y-92706492D01*
X109387782Y-92706492D02*
X109349686Y-92554111D01*
X109349686Y-92554111D02*
X109349686Y-92363635D01*
X109349686Y-92363635D02*
X109387782Y-92211254D01*
X109387782Y-92211254D02*
X109425877Y-92135063D01*
X109425877Y-92135063D02*
X109463972Y-92096968D01*
X109463972Y-92096968D02*
X109540163Y-92058873D01*
X107521114Y-94146828D02*
X107063971Y-94146828D01*
X107292543Y-94146828D02*
X107292543Y-93346828D01*
X107292543Y-93346828D02*
X107216352Y-93461113D01*
X107216352Y-93461113D02*
X107140162Y-93537304D01*
X107140162Y-93537304D02*
X107063971Y-93575399D01*
X108244924Y-93346828D02*
X107863972Y-93346828D01*
X107863972Y-93346828D02*
X107825876Y-93727780D01*
X107825876Y-93727780D02*
X107863972Y-93689685D01*
X107863972Y-93689685D02*
X107940162Y-93651590D01*
X107940162Y-93651590D02*
X108130638Y-93651590D01*
X108130638Y-93651590D02*
X108206829Y-93689685D01*
X108206829Y-93689685D02*
X108244924Y-93727780D01*
X108244924Y-93727780D02*
X108283019Y-93803971D01*
X108283019Y-93803971D02*
X108283019Y-93994447D01*
X108283019Y-93994447D02*
X108244924Y-94070637D01*
X108244924Y-94070637D02*
X108206829Y-94108733D01*
X108206829Y-94108733D02*
X108130638Y-94146828D01*
X108130638Y-94146828D02*
X107940162Y-94146828D01*
X107940162Y-94146828D02*
X107863972Y-94108733D01*
X107863972Y-94108733D02*
X107825876Y-94070637D01*
X108778258Y-93346828D02*
X108854448Y-93346828D01*
X108854448Y-93346828D02*
X108930639Y-93384923D01*
X108930639Y-93384923D02*
X108968734Y-93423018D01*
X108968734Y-93423018D02*
X109006829Y-93499209D01*
X109006829Y-93499209D02*
X109044924Y-93651590D01*
X109044924Y-93651590D02*
X109044924Y-93842066D01*
X109044924Y-93842066D02*
X109006829Y-93994447D01*
X109006829Y-93994447D02*
X108968734Y-94070637D01*
X108968734Y-94070637D02*
X108930639Y-94108733D01*
X108930639Y-94108733D02*
X108854448Y-94146828D01*
X108854448Y-94146828D02*
X108778258Y-94146828D01*
X108778258Y-94146828D02*
X108702067Y-94108733D01*
X108702067Y-94108733D02*
X108663972Y-94070637D01*
X108663972Y-94070637D02*
X108625877Y-93994447D01*
X108625877Y-93994447D02*
X108587781Y-93842066D01*
X108587781Y-93842066D02*
X108587781Y-93651590D01*
X108587781Y-93651590D02*
X108625877Y-93499209D01*
X108625877Y-93499209D02*
X108663972Y-93423018D01*
X108663972Y-93423018D02*
X108702067Y-93384923D01*
X108702067Y-93384923D02*
X108778258Y-93346828D01*
X109540163Y-93346828D02*
X109616353Y-93346828D01*
X109616353Y-93346828D02*
X109692544Y-93384923D01*
X109692544Y-93384923D02*
X109730639Y-93423018D01*
X109730639Y-93423018D02*
X109768734Y-93499209D01*
X109768734Y-93499209D02*
X109806829Y-93651590D01*
X109806829Y-93651590D02*
X109806829Y-93842066D01*
X109806829Y-93842066D02*
X109768734Y-93994447D01*
X109768734Y-93994447D02*
X109730639Y-94070637D01*
X109730639Y-94070637D02*
X109692544Y-94108733D01*
X109692544Y-94108733D02*
X109616353Y-94146828D01*
X109616353Y-94146828D02*
X109540163Y-94146828D01*
X109540163Y-94146828D02*
X109463972Y-94108733D01*
X109463972Y-94108733D02*
X109425877Y-94070637D01*
X109425877Y-94070637D02*
X109387782Y-93994447D01*
X109387782Y-93994447D02*
X109349686Y-93842066D01*
X109349686Y-93842066D02*
X109349686Y-93651590D01*
X109349686Y-93651590D02*
X109387782Y-93499209D01*
X109387782Y-93499209D02*
X109425877Y-93423018D01*
X109425877Y-93423018D02*
X109463972Y-93384923D01*
X109463972Y-93384923D02*
X109540163Y-93346828D01*
X95992346Y-106028571D02*
X95992346Y-105742857D01*
X96220918Y-106085714D02*
X95420918Y-105885714D01*
X95420918Y-105885714D02*
X96220918Y-105685714D01*
X96182823Y-105057142D02*
X96220918Y-104971428D01*
X96220918Y-104971428D02*
X96220918Y-104828570D01*
X96220918Y-104828570D02*
X96182823Y-104771428D01*
X96182823Y-104771428D02*
X96144727Y-104742856D01*
X96144727Y-104742856D02*
X96068537Y-104714285D01*
X96068537Y-104714285D02*
X95992346Y-104714285D01*
X95992346Y-104714285D02*
X95916156Y-104742856D01*
X95916156Y-104742856D02*
X95878061Y-104771428D01*
X95878061Y-104771428D02*
X95839965Y-104828570D01*
X95839965Y-104828570D02*
X95801870Y-104942856D01*
X95801870Y-104942856D02*
X95763775Y-104999999D01*
X95763775Y-104999999D02*
X95725680Y-105028570D01*
X95725680Y-105028570D02*
X95649489Y-105057142D01*
X95649489Y-105057142D02*
X95573299Y-105057142D01*
X95573299Y-105057142D02*
X95497108Y-105028570D01*
X95497108Y-105028570D02*
X95459013Y-104999999D01*
X95459013Y-104999999D02*
X95420918Y-104942856D01*
X95420918Y-104942856D02*
X95420918Y-104799999D01*
X95420918Y-104799999D02*
X95459013Y-104714285D01*
X95801870Y-104457141D02*
X95801870Y-104257141D01*
X96220918Y-104171427D02*
X96220918Y-104457141D01*
X96220918Y-104457141D02*
X95420918Y-104457141D01*
X95420918Y-104457141D02*
X95420918Y-104171427D01*
X96144727Y-103571427D02*
X96182823Y-103599999D01*
X96182823Y-103599999D02*
X96220918Y-103685713D01*
X96220918Y-103685713D02*
X96220918Y-103742856D01*
X96220918Y-103742856D02*
X96182823Y-103828570D01*
X96182823Y-103828570D02*
X96106632Y-103885713D01*
X96106632Y-103885713D02*
X96030442Y-103914284D01*
X96030442Y-103914284D02*
X95878061Y-103942856D01*
X95878061Y-103942856D02*
X95763775Y-103942856D01*
X95763775Y-103942856D02*
X95611394Y-103914284D01*
X95611394Y-103914284D02*
X95535203Y-103885713D01*
X95535203Y-103885713D02*
X95459013Y-103828570D01*
X95459013Y-103828570D02*
X95420918Y-103742856D01*
X95420918Y-103742856D02*
X95420918Y-103685713D01*
X95420918Y-103685713D02*
X95459013Y-103599999D01*
X95459013Y-103599999D02*
X95497108Y-103571427D01*
X96220918Y-102971427D02*
X95839965Y-103171427D01*
X96220918Y-103314284D02*
X95420918Y-103314284D01*
X95420918Y-103314284D02*
X95420918Y-103085713D01*
X95420918Y-103085713D02*
X95459013Y-103028570D01*
X95459013Y-103028570D02*
X95497108Y-102999999D01*
X95497108Y-102999999D02*
X95573299Y-102971427D01*
X95573299Y-102971427D02*
X95687584Y-102971427D01*
X95687584Y-102971427D02*
X95763775Y-102999999D01*
X95763775Y-102999999D02*
X95801870Y-103028570D01*
X95801870Y-103028570D02*
X95839965Y-103085713D01*
X95839965Y-103085713D02*
X95839965Y-103314284D01*
X95801870Y-102714284D02*
X95801870Y-102514284D01*
X96220918Y-102428570D02*
X96220918Y-102714284D01*
X96220918Y-102714284D02*
X95420918Y-102714284D01*
X95420918Y-102714284D02*
X95420918Y-102428570D01*
X95420918Y-102257142D02*
X95420918Y-101914285D01*
X96220918Y-102085713D02*
X95420918Y-102085713D01*
X97508873Y-106828570D02*
X96708873Y-106828570D01*
X97470778Y-106571428D02*
X97508873Y-106485714D01*
X97508873Y-106485714D02*
X97508873Y-106342856D01*
X97508873Y-106342856D02*
X97470778Y-106285714D01*
X97470778Y-106285714D02*
X97432682Y-106257142D01*
X97432682Y-106257142D02*
X97356492Y-106228571D01*
X97356492Y-106228571D02*
X97280301Y-106228571D01*
X97280301Y-106228571D02*
X97204111Y-106257142D01*
X97204111Y-106257142D02*
X97166016Y-106285714D01*
X97166016Y-106285714D02*
X97127920Y-106342856D01*
X97127920Y-106342856D02*
X97089825Y-106457142D01*
X97089825Y-106457142D02*
X97051730Y-106514285D01*
X97051730Y-106514285D02*
X97013635Y-106542856D01*
X97013635Y-106542856D02*
X96937444Y-106571428D01*
X96937444Y-106571428D02*
X96861254Y-106571428D01*
X96861254Y-106571428D02*
X96785063Y-106542856D01*
X96785063Y-106542856D02*
X96746968Y-106514285D01*
X96746968Y-106514285D02*
X96708873Y-106457142D01*
X96708873Y-106457142D02*
X96708873Y-106314285D01*
X96708873Y-106314285D02*
X96746968Y-106228571D01*
X97508873Y-105171427D02*
X97127920Y-105371427D01*
X97508873Y-105514284D02*
X96708873Y-105514284D01*
X96708873Y-105514284D02*
X96708873Y-105285713D01*
X96708873Y-105285713D02*
X96746968Y-105228570D01*
X96746968Y-105228570D02*
X96785063Y-105199999D01*
X96785063Y-105199999D02*
X96861254Y-105171427D01*
X96861254Y-105171427D02*
X96975539Y-105171427D01*
X96975539Y-105171427D02*
X97051730Y-105199999D01*
X97051730Y-105199999D02*
X97089825Y-105228570D01*
X97089825Y-105228570D02*
X97127920Y-105285713D01*
X97127920Y-105285713D02*
X97127920Y-105514284D01*
X97089825Y-104914284D02*
X97089825Y-104714284D01*
X97508873Y-104628570D02*
X97508873Y-104914284D01*
X97508873Y-104914284D02*
X96708873Y-104914284D01*
X96708873Y-104914284D02*
X96708873Y-104628570D01*
X96708873Y-104457142D02*
X97508873Y-104257142D01*
X97508873Y-104257142D02*
X96708873Y-104057142D01*
X97089825Y-103857141D02*
X97089825Y-103657141D01*
X97508873Y-103571427D02*
X97508873Y-103857141D01*
X97508873Y-103857141D02*
X96708873Y-103857141D01*
X96708873Y-103857141D02*
X96708873Y-103571427D01*
X97280301Y-103342856D02*
X97280301Y-103057142D01*
X97508873Y-103399999D02*
X96708873Y-103199999D01*
X96708873Y-103199999D02*
X97508873Y-102999999D01*
X97508873Y-102514284D02*
X97508873Y-102799998D01*
X97508873Y-102799998D02*
X96708873Y-102799998D01*
X97089825Y-102314284D02*
X97089825Y-102114284D01*
X97508873Y-102028570D02*
X97508873Y-102314284D01*
X97508873Y-102314284D02*
X96708873Y-102314284D01*
X96708873Y-102314284D02*
X96708873Y-102028570D01*
X97508873Y-101771427D02*
X96708873Y-101771427D01*
X96708873Y-101771427D02*
X96708873Y-101628570D01*
X96708873Y-101628570D02*
X96746968Y-101542856D01*
X96746968Y-101542856D02*
X96823158Y-101485713D01*
X96823158Y-101485713D02*
X96899349Y-101457142D01*
X96899349Y-101457142D02*
X97051730Y-101428570D01*
X97051730Y-101428570D02*
X97166016Y-101428570D01*
X97166016Y-101428570D02*
X97318397Y-101457142D01*
X97318397Y-101457142D02*
X97394587Y-101485713D01*
X97394587Y-101485713D02*
X97470778Y-101542856D01*
X97470778Y-101542856D02*
X97508873Y-101628570D01*
X97508873Y-101628570D02*
X97508873Y-101771427D01*
X97432682Y-101171427D02*
X97470778Y-101142856D01*
X97470778Y-101142856D02*
X97508873Y-101171427D01*
X97508873Y-101171427D02*
X97470778Y-101199999D01*
X97470778Y-101199999D02*
X97432682Y-101171427D01*
X97432682Y-101171427D02*
X97508873Y-101171427D01*
X97204111Y-101171427D02*
X96746968Y-101199999D01*
X96746968Y-101199999D02*
X96708873Y-101171427D01*
X96708873Y-101171427D02*
X96746968Y-101142856D01*
X96746968Y-101142856D02*
X97204111Y-101171427D01*
X97204111Y-101171427D02*
X96708873Y-101171427D01*
X102045238Y-113564895D02*
X102045238Y-114136323D01*
X102045238Y-114136323D02*
X102007143Y-114250609D01*
X102007143Y-114250609D02*
X101930952Y-114326800D01*
X101930952Y-114326800D02*
X101816667Y-114364895D01*
X101816667Y-114364895D02*
X101740476Y-114364895D01*
X102769048Y-114364895D02*
X102769048Y-113945847D01*
X102769048Y-113945847D02*
X102730953Y-113869657D01*
X102730953Y-113869657D02*
X102654762Y-113831561D01*
X102654762Y-113831561D02*
X102502381Y-113831561D01*
X102502381Y-113831561D02*
X102426191Y-113869657D01*
X102769048Y-114326800D02*
X102692857Y-114364895D01*
X102692857Y-114364895D02*
X102502381Y-114364895D01*
X102502381Y-114364895D02*
X102426191Y-114326800D01*
X102426191Y-114326800D02*
X102388095Y-114250609D01*
X102388095Y-114250609D02*
X102388095Y-114174419D01*
X102388095Y-114174419D02*
X102426191Y-114098228D01*
X102426191Y-114098228D02*
X102502381Y-114060133D01*
X102502381Y-114060133D02*
X102692857Y-114060133D01*
X102692857Y-114060133D02*
X102769048Y-114022038D01*
X103492858Y-114326800D02*
X103416667Y-114364895D01*
X103416667Y-114364895D02*
X103264286Y-114364895D01*
X103264286Y-114364895D02*
X103188096Y-114326800D01*
X103188096Y-114326800D02*
X103150001Y-114288704D01*
X103150001Y-114288704D02*
X103111905Y-114212514D01*
X103111905Y-114212514D02*
X103111905Y-113983942D01*
X103111905Y-113983942D02*
X103150001Y-113907752D01*
X103150001Y-113907752D02*
X103188096Y-113869657D01*
X103188096Y-113869657D02*
X103264286Y-113831561D01*
X103264286Y-113831561D02*
X103416667Y-113831561D01*
X103416667Y-113831561D02*
X103492858Y-113869657D01*
X103835715Y-114364895D02*
X103835715Y-113564895D01*
X103911905Y-114060133D02*
X104140477Y-114364895D01*
X104140477Y-113831561D02*
X103835715Y-114136323D01*
X105092858Y-113831561D02*
X104483334Y-114060133D01*
X104483334Y-114060133D02*
X105092858Y-114288704D01*
X105473810Y-114060133D02*
X106083334Y-114060133D01*
X106921429Y-114364895D02*
X106654762Y-113983942D01*
X106464286Y-114364895D02*
X106464286Y-113564895D01*
X106464286Y-113564895D02*
X106769048Y-113564895D01*
X106769048Y-113564895D02*
X106845238Y-113602990D01*
X106845238Y-113602990D02*
X106883333Y-113641085D01*
X106883333Y-113641085D02*
X106921429Y-113717276D01*
X106921429Y-113717276D02*
X106921429Y-113831561D01*
X106921429Y-113831561D02*
X106883333Y-113907752D01*
X106883333Y-113907752D02*
X106845238Y-113945847D01*
X106845238Y-113945847D02*
X106769048Y-113983942D01*
X106769048Y-113983942D02*
X106464286Y-113983942D01*
X107264286Y-114060133D02*
X107873810Y-114060133D01*
X108254762Y-113831561D02*
X108864286Y-114060133D01*
X108864286Y-114060133D02*
X108254762Y-114288704D01*
X109511904Y-113945847D02*
X109626190Y-113983942D01*
X109626190Y-113983942D02*
X109664285Y-114022038D01*
X109664285Y-114022038D02*
X109702381Y-114098228D01*
X109702381Y-114098228D02*
X109702381Y-114212514D01*
X109702381Y-114212514D02*
X109664285Y-114288704D01*
X109664285Y-114288704D02*
X109626190Y-114326800D01*
X109626190Y-114326800D02*
X109550000Y-114364895D01*
X109550000Y-114364895D02*
X109245238Y-114364895D01*
X109245238Y-114364895D02*
X109245238Y-113564895D01*
X109245238Y-113564895D02*
X109511904Y-113564895D01*
X109511904Y-113564895D02*
X109588095Y-113602990D01*
X109588095Y-113602990D02*
X109626190Y-113641085D01*
X109626190Y-113641085D02*
X109664285Y-113717276D01*
X109664285Y-113717276D02*
X109664285Y-113793466D01*
X109664285Y-113793466D02*
X109626190Y-113869657D01*
X109626190Y-113869657D02*
X109588095Y-113907752D01*
X109588095Y-113907752D02*
X109511904Y-113945847D01*
X109511904Y-113945847D02*
X109245238Y-113945847D01*
X110388095Y-113831561D02*
X110388095Y-114364895D01*
X110045238Y-113831561D02*
X110045238Y-114250609D01*
X110045238Y-114250609D02*
X110083333Y-114326800D01*
X110083333Y-114326800D02*
X110159523Y-114364895D01*
X110159523Y-114364895D02*
X110273809Y-114364895D01*
X110273809Y-114364895D02*
X110350000Y-114326800D01*
X110350000Y-114326800D02*
X110388095Y-114288704D01*
X110692857Y-113831561D02*
X111111905Y-113831561D01*
X111111905Y-113831561D02*
X110692857Y-114364895D01*
X110692857Y-114364895D02*
X111111905Y-114364895D01*
X111340476Y-113831561D02*
X111759524Y-113831561D01*
X111759524Y-113831561D02*
X111340476Y-114364895D01*
X111340476Y-114364895D02*
X111759524Y-114364895D01*
D11*
X86208809Y-104827018D02*
X86208809Y-103239518D01*
X86208809Y-103995470D02*
X86934524Y-103995470D01*
X86934524Y-104827018D02*
X86934524Y-103239518D01*
X87478809Y-104751423D02*
X87660238Y-104827018D01*
X87660238Y-104827018D02*
X87962619Y-104827018D01*
X87962619Y-104827018D02*
X88083571Y-104751423D01*
X88083571Y-104751423D02*
X88144047Y-104675827D01*
X88144047Y-104675827D02*
X88204524Y-104524637D01*
X88204524Y-104524637D02*
X88204524Y-104373446D01*
X88204524Y-104373446D02*
X88144047Y-104222256D01*
X88144047Y-104222256D02*
X88083571Y-104146661D01*
X88083571Y-104146661D02*
X87962619Y-104071065D01*
X87962619Y-104071065D02*
X87720714Y-103995470D01*
X87720714Y-103995470D02*
X87599762Y-103919875D01*
X87599762Y-103919875D02*
X87539285Y-103844280D01*
X87539285Y-103844280D02*
X87478809Y-103693089D01*
X87478809Y-103693089D02*
X87478809Y-103541899D01*
X87478809Y-103541899D02*
X87539285Y-103390708D01*
X87539285Y-103390708D02*
X87599762Y-103315113D01*
X87599762Y-103315113D02*
X87720714Y-103239518D01*
X87720714Y-103239518D02*
X88023095Y-103239518D01*
X88023095Y-103239518D02*
X88204524Y-103315113D01*
X90381667Y-103315113D02*
X90260714Y-103239518D01*
X90260714Y-103239518D02*
X90079286Y-103239518D01*
X90079286Y-103239518D02*
X89897857Y-103315113D01*
X89897857Y-103315113D02*
X89776905Y-103466303D01*
X89776905Y-103466303D02*
X89716428Y-103617494D01*
X89716428Y-103617494D02*
X89655952Y-103919875D01*
X89655952Y-103919875D02*
X89655952Y-104146661D01*
X89655952Y-104146661D02*
X89716428Y-104449042D01*
X89716428Y-104449042D02*
X89776905Y-104600232D01*
X89776905Y-104600232D02*
X89897857Y-104751423D01*
X89897857Y-104751423D02*
X90079286Y-104827018D01*
X90079286Y-104827018D02*
X90200238Y-104827018D01*
X90200238Y-104827018D02*
X90381667Y-104751423D01*
X90381667Y-104751423D02*
X90442143Y-104675827D01*
X90442143Y-104675827D02*
X90442143Y-104146661D01*
X90442143Y-104146661D02*
X90200238Y-104146661D01*
X91228333Y-103239518D02*
X91349286Y-103239518D01*
X91349286Y-103239518D02*
X91470238Y-103315113D01*
X91470238Y-103315113D02*
X91530714Y-103390708D01*
X91530714Y-103390708D02*
X91591190Y-103541899D01*
X91591190Y-103541899D02*
X91651667Y-103844280D01*
X91651667Y-103844280D02*
X91651667Y-104222256D01*
X91651667Y-104222256D02*
X91591190Y-104524637D01*
X91591190Y-104524637D02*
X91530714Y-104675827D01*
X91530714Y-104675827D02*
X91470238Y-104751423D01*
X91470238Y-104751423D02*
X91349286Y-104827018D01*
X91349286Y-104827018D02*
X91228333Y-104827018D01*
X91228333Y-104827018D02*
X91107381Y-104751423D01*
X91107381Y-104751423D02*
X91046905Y-104675827D01*
X91046905Y-104675827D02*
X90986428Y-104524637D01*
X90986428Y-104524637D02*
X90925952Y-104222256D01*
X90925952Y-104222256D02*
X90925952Y-103844280D01*
X90925952Y-103844280D02*
X90986428Y-103541899D01*
X90986428Y-103541899D02*
X91046905Y-103390708D01*
X91046905Y-103390708D02*
X91107381Y-103315113D01*
X91107381Y-103315113D02*
X91228333Y-103239518D01*
X86148333Y-105795304D02*
X86571666Y-107382804D01*
X86571666Y-107382804D02*
X86995000Y-105795304D01*
X87357856Y-107307209D02*
X87539285Y-107382804D01*
X87539285Y-107382804D02*
X87841666Y-107382804D01*
X87841666Y-107382804D02*
X87962618Y-107307209D01*
X87962618Y-107307209D02*
X88023094Y-107231613D01*
X88023094Y-107231613D02*
X88083571Y-107080423D01*
X88083571Y-107080423D02*
X88083571Y-106929232D01*
X88083571Y-106929232D02*
X88023094Y-106778042D01*
X88023094Y-106778042D02*
X87962618Y-106702447D01*
X87962618Y-106702447D02*
X87841666Y-106626851D01*
X87841666Y-106626851D02*
X87599761Y-106551256D01*
X87599761Y-106551256D02*
X87478809Y-106475661D01*
X87478809Y-106475661D02*
X87418332Y-106400066D01*
X87418332Y-106400066D02*
X87357856Y-106248875D01*
X87357856Y-106248875D02*
X87357856Y-106097685D01*
X87357856Y-106097685D02*
X87418332Y-105946494D01*
X87418332Y-105946494D02*
X87478809Y-105870899D01*
X87478809Y-105870899D02*
X87599761Y-105795304D01*
X87599761Y-105795304D02*
X87902142Y-105795304D01*
X87902142Y-105795304D02*
X88083571Y-105870899D01*
X90260714Y-105870899D02*
X90139761Y-105795304D01*
X90139761Y-105795304D02*
X89958333Y-105795304D01*
X89958333Y-105795304D02*
X89776904Y-105870899D01*
X89776904Y-105870899D02*
X89655952Y-106022089D01*
X89655952Y-106022089D02*
X89595475Y-106173280D01*
X89595475Y-106173280D02*
X89534999Y-106475661D01*
X89534999Y-106475661D02*
X89534999Y-106702447D01*
X89534999Y-106702447D02*
X89595475Y-107004828D01*
X89595475Y-107004828D02*
X89655952Y-107156018D01*
X89655952Y-107156018D02*
X89776904Y-107307209D01*
X89776904Y-107307209D02*
X89958333Y-107382804D01*
X89958333Y-107382804D02*
X90079285Y-107382804D01*
X90079285Y-107382804D02*
X90260714Y-107307209D01*
X90260714Y-107307209D02*
X90321190Y-107231613D01*
X90321190Y-107231613D02*
X90321190Y-106702447D01*
X90321190Y-106702447D02*
X90079285Y-106702447D01*
X91530714Y-107382804D02*
X90804999Y-107382804D01*
X91167856Y-107382804D02*
X91167856Y-105795304D01*
X91167856Y-105795304D02*
X91046904Y-106022089D01*
X91046904Y-106022089D02*
X90925952Y-106173280D01*
X90925952Y-106173280D02*
X90804999Y-106248875D01*
X87085714Y-109938590D02*
X86480952Y-109938590D01*
X86480952Y-109938590D02*
X86480952Y-108351090D01*
X90109524Y-108426685D02*
X89988571Y-108351090D01*
X89988571Y-108351090D02*
X89807143Y-108351090D01*
X89807143Y-108351090D02*
X89625714Y-108426685D01*
X89625714Y-108426685D02*
X89504762Y-108577875D01*
X89504762Y-108577875D02*
X89444285Y-108729066D01*
X89444285Y-108729066D02*
X89383809Y-109031447D01*
X89383809Y-109031447D02*
X89383809Y-109258233D01*
X89383809Y-109258233D02*
X89444285Y-109560614D01*
X89444285Y-109560614D02*
X89504762Y-109711804D01*
X89504762Y-109711804D02*
X89625714Y-109862995D01*
X89625714Y-109862995D02*
X89807143Y-109938590D01*
X89807143Y-109938590D02*
X89928095Y-109938590D01*
X89928095Y-109938590D02*
X90109524Y-109862995D01*
X90109524Y-109862995D02*
X90170000Y-109787399D01*
X90170000Y-109787399D02*
X90170000Y-109258233D01*
X90170000Y-109258233D02*
X89928095Y-109258233D01*
X90653809Y-108502280D02*
X90714285Y-108426685D01*
X90714285Y-108426685D02*
X90835238Y-108351090D01*
X90835238Y-108351090D02*
X91137619Y-108351090D01*
X91137619Y-108351090D02*
X91258571Y-108426685D01*
X91258571Y-108426685D02*
X91319047Y-108502280D01*
X91319047Y-108502280D02*
X91379524Y-108653471D01*
X91379524Y-108653471D02*
X91379524Y-108804661D01*
X91379524Y-108804661D02*
X91319047Y-109031447D01*
X91319047Y-109031447D02*
X90593333Y-109938590D01*
X90593333Y-109938590D02*
X91379524Y-109938590D01*
X87085714Y-112494376D02*
X86662380Y-111738423D01*
X86359999Y-112494376D02*
X86359999Y-110906876D01*
X86359999Y-110906876D02*
X86843809Y-110906876D01*
X86843809Y-110906876D02*
X86964761Y-110982471D01*
X86964761Y-110982471D02*
X87025238Y-111058066D01*
X87025238Y-111058066D02*
X87085714Y-111209257D01*
X87085714Y-111209257D02*
X87085714Y-111436042D01*
X87085714Y-111436042D02*
X87025238Y-111587233D01*
X87025238Y-111587233D02*
X86964761Y-111662828D01*
X86964761Y-111662828D02*
X86843809Y-111738423D01*
X86843809Y-111738423D02*
X86359999Y-111738423D01*
X90230476Y-110982471D02*
X90109523Y-110906876D01*
X90109523Y-110906876D02*
X89928095Y-110906876D01*
X89928095Y-110906876D02*
X89746666Y-110982471D01*
X89746666Y-110982471D02*
X89625714Y-111133661D01*
X89625714Y-111133661D02*
X89565237Y-111284852D01*
X89565237Y-111284852D02*
X89504761Y-111587233D01*
X89504761Y-111587233D02*
X89504761Y-111814019D01*
X89504761Y-111814019D02*
X89565237Y-112116400D01*
X89565237Y-112116400D02*
X89625714Y-112267590D01*
X89625714Y-112267590D02*
X89746666Y-112418781D01*
X89746666Y-112418781D02*
X89928095Y-112494376D01*
X89928095Y-112494376D02*
X90049047Y-112494376D01*
X90049047Y-112494376D02*
X90230476Y-112418781D01*
X90230476Y-112418781D02*
X90290952Y-112343185D01*
X90290952Y-112343185D02*
X90290952Y-111814019D01*
X90290952Y-111814019D02*
X90049047Y-111814019D01*
X90714285Y-110906876D02*
X91500476Y-110906876D01*
X91500476Y-110906876D02*
X91077142Y-111511638D01*
X91077142Y-111511638D02*
X91258571Y-111511638D01*
X91258571Y-111511638D02*
X91379523Y-111587233D01*
X91379523Y-111587233D02*
X91439999Y-111662828D01*
X91439999Y-111662828D02*
X91500476Y-111814019D01*
X91500476Y-111814019D02*
X91500476Y-112191995D01*
X91500476Y-112191995D02*
X91439999Y-112343185D01*
X91439999Y-112343185D02*
X91379523Y-112418781D01*
X91379523Y-112418781D02*
X91258571Y-112494376D01*
X91258571Y-112494376D02*
X90895714Y-112494376D01*
X90895714Y-112494376D02*
X90774761Y-112418781D01*
X90774761Y-112418781D02*
X90714285Y-112343185D01*
X87932381Y-113538257D02*
X87811428Y-113462662D01*
X87811428Y-113462662D02*
X87630000Y-113462662D01*
X87630000Y-113462662D02*
X87448571Y-113538257D01*
X87448571Y-113538257D02*
X87327619Y-113689447D01*
X87327619Y-113689447D02*
X87267142Y-113840638D01*
X87267142Y-113840638D02*
X87206666Y-114143019D01*
X87206666Y-114143019D02*
X87206666Y-114369805D01*
X87206666Y-114369805D02*
X87267142Y-114672186D01*
X87267142Y-114672186D02*
X87327619Y-114823376D01*
X87327619Y-114823376D02*
X87448571Y-114974567D01*
X87448571Y-114974567D02*
X87630000Y-115050162D01*
X87630000Y-115050162D02*
X87750952Y-115050162D01*
X87750952Y-115050162D02*
X87932381Y-114974567D01*
X87932381Y-114974567D02*
X87992857Y-114898971D01*
X87992857Y-114898971D02*
X87992857Y-114369805D01*
X87992857Y-114369805D02*
X87750952Y-114369805D01*
X88537142Y-115050162D02*
X88537142Y-113462662D01*
X88537142Y-113462662D02*
X89262857Y-115050162D01*
X89262857Y-115050162D02*
X89262857Y-113462662D01*
X89867618Y-115050162D02*
X89867618Y-113462662D01*
X89867618Y-113462662D02*
X90169999Y-113462662D01*
X90169999Y-113462662D02*
X90351428Y-113538257D01*
X90351428Y-113538257D02*
X90472380Y-113689447D01*
X90472380Y-113689447D02*
X90532857Y-113840638D01*
X90532857Y-113840638D02*
X90593333Y-114143019D01*
X90593333Y-114143019D02*
X90593333Y-114369805D01*
X90593333Y-114369805D02*
X90532857Y-114672186D01*
X90532857Y-114672186D02*
X90472380Y-114823376D01*
X90472380Y-114823376D02*
X90351428Y-114974567D01*
X90351428Y-114974567D02*
X90169999Y-115050162D01*
X90169999Y-115050162D02*
X89867618Y-115050162D01*
X87327619Y-116018448D02*
X88113810Y-116018448D01*
X88113810Y-116018448D02*
X87690476Y-116623210D01*
X87690476Y-116623210D02*
X87871905Y-116623210D01*
X87871905Y-116623210D02*
X87992857Y-116698805D01*
X87992857Y-116698805D02*
X88053333Y-116774400D01*
X88053333Y-116774400D02*
X88113810Y-116925591D01*
X88113810Y-116925591D02*
X88113810Y-117303567D01*
X88113810Y-117303567D02*
X88053333Y-117454757D01*
X88053333Y-117454757D02*
X87992857Y-117530353D01*
X87992857Y-117530353D02*
X87871905Y-117605948D01*
X87871905Y-117605948D02*
X87509048Y-117605948D01*
X87509048Y-117605948D02*
X87388095Y-117530353D01*
X87388095Y-117530353D02*
X87327619Y-117454757D01*
X88476667Y-116018448D02*
X88900000Y-117605948D01*
X88900000Y-117605948D02*
X89323334Y-116018448D01*
X89625714Y-116018448D02*
X90411905Y-116018448D01*
X90411905Y-116018448D02*
X89988571Y-116623210D01*
X89988571Y-116623210D02*
X90170000Y-116623210D01*
X90170000Y-116623210D02*
X90290952Y-116698805D01*
X90290952Y-116698805D02*
X90351428Y-116774400D01*
X90351428Y-116774400D02*
X90411905Y-116925591D01*
X90411905Y-116925591D02*
X90411905Y-117303567D01*
X90411905Y-117303567D02*
X90351428Y-117454757D01*
X90351428Y-117454757D02*
X90290952Y-117530353D01*
X90290952Y-117530353D02*
X90170000Y-117605948D01*
X90170000Y-117605948D02*
X89807143Y-117605948D01*
X89807143Y-117605948D02*
X89686190Y-117530353D01*
X89686190Y-117530353D02*
X89625714Y-117454757D01*
D10*
X105869047Y-109122419D02*
X106059523Y-109122419D01*
X106059523Y-109122419D02*
X106154761Y-109170038D01*
X106154761Y-109170038D02*
X106249999Y-109265276D01*
X106249999Y-109265276D02*
X106297618Y-109455752D01*
X106297618Y-109455752D02*
X106297618Y-109789085D01*
X106297618Y-109789085D02*
X106249999Y-109979561D01*
X106249999Y-109979561D02*
X106154761Y-110074800D01*
X106154761Y-110074800D02*
X106059523Y-110122419D01*
X106059523Y-110122419D02*
X105869047Y-110122419D01*
X105869047Y-110122419D02*
X105773809Y-110074800D01*
X105773809Y-110074800D02*
X105678571Y-109979561D01*
X105678571Y-109979561D02*
X105630952Y-109789085D01*
X105630952Y-109789085D02*
X105630952Y-109455752D01*
X105630952Y-109455752D02*
X105678571Y-109265276D01*
X105678571Y-109265276D02*
X105773809Y-109170038D01*
X105773809Y-109170038D02*
X105869047Y-109122419D01*
X107154761Y-109455752D02*
X107154761Y-110122419D01*
X106726190Y-109455752D02*
X106726190Y-109979561D01*
X106726190Y-109979561D02*
X106773809Y-110074800D01*
X106773809Y-110074800D02*
X106869047Y-110122419D01*
X106869047Y-110122419D02*
X107011904Y-110122419D01*
X107011904Y-110122419D02*
X107107142Y-110074800D01*
X107107142Y-110074800D02*
X107154761Y-110027180D01*
X107488095Y-109455752D02*
X107869047Y-109455752D01*
X107630952Y-109122419D02*
X107630952Y-109979561D01*
X107630952Y-109979561D02*
X107678571Y-110074800D01*
X107678571Y-110074800D02*
X107773809Y-110122419D01*
X107773809Y-110122419D02*
X107869047Y-110122419D01*
X108916667Y-110074800D02*
X109059524Y-110122419D01*
X109059524Y-110122419D02*
X109297619Y-110122419D01*
X109297619Y-110122419D02*
X109392857Y-110074800D01*
X109392857Y-110074800D02*
X109440476Y-110027180D01*
X109440476Y-110027180D02*
X109488095Y-109931942D01*
X109488095Y-109931942D02*
X109488095Y-109836704D01*
X109488095Y-109836704D02*
X109440476Y-109741466D01*
X109440476Y-109741466D02*
X109392857Y-109693847D01*
X109392857Y-109693847D02*
X109297619Y-109646228D01*
X109297619Y-109646228D02*
X109107143Y-109598609D01*
X109107143Y-109598609D02*
X109011905Y-109550990D01*
X109011905Y-109550990D02*
X108964286Y-109503371D01*
X108964286Y-109503371D02*
X108916667Y-109408133D01*
X108916667Y-109408133D02*
X108916667Y-109312895D01*
X108916667Y-109312895D02*
X108964286Y-109217657D01*
X108964286Y-109217657D02*
X109011905Y-109170038D01*
X109011905Y-109170038D02*
X109107143Y-109122419D01*
X109107143Y-109122419D02*
X109345238Y-109122419D01*
X109345238Y-109122419D02*
X109488095Y-109170038D01*
X110297619Y-110074800D02*
X110202381Y-110122419D01*
X110202381Y-110122419D02*
X110011905Y-110122419D01*
X110011905Y-110122419D02*
X109916667Y-110074800D01*
X109916667Y-110074800D02*
X109869048Y-109979561D01*
X109869048Y-109979561D02*
X109869048Y-109598609D01*
X109869048Y-109598609D02*
X109916667Y-109503371D01*
X109916667Y-109503371D02*
X110011905Y-109455752D01*
X110011905Y-109455752D02*
X110202381Y-109455752D01*
X110202381Y-109455752D02*
X110297619Y-109503371D01*
X110297619Y-109503371D02*
X110345238Y-109598609D01*
X110345238Y-109598609D02*
X110345238Y-109693847D01*
X110345238Y-109693847D02*
X109869048Y-109789085D01*
X110916667Y-110122419D02*
X110821429Y-110074800D01*
X110821429Y-110074800D02*
X110773810Y-109979561D01*
X110773810Y-109979561D02*
X110773810Y-109122419D01*
X134304761Y-112814895D02*
X134304761Y-113386323D01*
X134304761Y-113386323D02*
X134266666Y-113500609D01*
X134266666Y-113500609D02*
X134190475Y-113576800D01*
X134190475Y-113576800D02*
X134076190Y-113614895D01*
X134076190Y-113614895D02*
X133999999Y-113614895D01*
X135066666Y-113614895D02*
X134685714Y-113614895D01*
X134685714Y-113614895D02*
X134685714Y-112814895D01*
X135790476Y-113538704D02*
X135752380Y-113576800D01*
X135752380Y-113576800D02*
X135638095Y-113614895D01*
X135638095Y-113614895D02*
X135561904Y-113614895D01*
X135561904Y-113614895D02*
X135447618Y-113576800D01*
X135447618Y-113576800D02*
X135371428Y-113500609D01*
X135371428Y-113500609D02*
X135333333Y-113424419D01*
X135333333Y-113424419D02*
X135295237Y-113272038D01*
X135295237Y-113272038D02*
X135295237Y-113157752D01*
X135295237Y-113157752D02*
X135333333Y-113005371D01*
X135333333Y-113005371D02*
X135371428Y-112929180D01*
X135371428Y-112929180D02*
X135447618Y-112852990D01*
X135447618Y-112852990D02*
X135561904Y-112814895D01*
X135561904Y-112814895D02*
X135638095Y-112814895D01*
X135638095Y-112814895D02*
X135752380Y-112852990D01*
X135752380Y-112852990D02*
X135790476Y-112891085D01*
X136361904Y-112814895D02*
X136361904Y-113386323D01*
X136361904Y-113386323D02*
X136323809Y-113500609D01*
X136323809Y-113500609D02*
X136247618Y-113576800D01*
X136247618Y-113576800D02*
X136133333Y-113614895D01*
X136133333Y-113614895D02*
X136057142Y-113614895D01*
X137123809Y-113614895D02*
X136742857Y-113614895D01*
X136742857Y-113614895D02*
X136742857Y-112814895D01*
X137847619Y-113538704D02*
X137809523Y-113576800D01*
X137809523Y-113576800D02*
X137695238Y-113614895D01*
X137695238Y-113614895D02*
X137619047Y-113614895D01*
X137619047Y-113614895D02*
X137504761Y-113576800D01*
X137504761Y-113576800D02*
X137428571Y-113500609D01*
X137428571Y-113500609D02*
X137390476Y-113424419D01*
X137390476Y-113424419D02*
X137352380Y-113272038D01*
X137352380Y-113272038D02*
X137352380Y-113157752D01*
X137352380Y-113157752D02*
X137390476Y-113005371D01*
X137390476Y-113005371D02*
X137428571Y-112929180D01*
X137428571Y-112929180D02*
X137504761Y-112852990D01*
X137504761Y-112852990D02*
X137619047Y-112814895D01*
X137619047Y-112814895D02*
X137695238Y-112814895D01*
X137695238Y-112814895D02*
X137809523Y-112852990D01*
X137809523Y-112852990D02*
X137847619Y-112891085D01*
X138419047Y-112814895D02*
X138419047Y-113386323D01*
X138419047Y-113386323D02*
X138380952Y-113500609D01*
X138380952Y-113500609D02*
X138304761Y-113576800D01*
X138304761Y-113576800D02*
X138190476Y-113614895D01*
X138190476Y-113614895D02*
X138114285Y-113614895D01*
X139180952Y-113614895D02*
X138800000Y-113614895D01*
X138800000Y-113614895D02*
X138800000Y-112814895D01*
X139904762Y-113538704D02*
X139866666Y-113576800D01*
X139866666Y-113576800D02*
X139752381Y-113614895D01*
X139752381Y-113614895D02*
X139676190Y-113614895D01*
X139676190Y-113614895D02*
X139561904Y-113576800D01*
X139561904Y-113576800D02*
X139485714Y-113500609D01*
X139485714Y-113500609D02*
X139447619Y-113424419D01*
X139447619Y-113424419D02*
X139409523Y-113272038D01*
X139409523Y-113272038D02*
X139409523Y-113157752D01*
X139409523Y-113157752D02*
X139447619Y-113005371D01*
X139447619Y-113005371D02*
X139485714Y-112929180D01*
X139485714Y-112929180D02*
X139561904Y-112852990D01*
X139561904Y-112852990D02*
X139676190Y-112814895D01*
X139676190Y-112814895D02*
X139752381Y-112814895D01*
X139752381Y-112814895D02*
X139866666Y-112852990D01*
X139866666Y-112852990D02*
X139904762Y-112891085D01*
X140476190Y-112814895D02*
X140476190Y-113386323D01*
X140476190Y-113386323D02*
X140438095Y-113500609D01*
X140438095Y-113500609D02*
X140361904Y-113576800D01*
X140361904Y-113576800D02*
X140247619Y-113614895D01*
X140247619Y-113614895D02*
X140171428Y-113614895D01*
X141238095Y-113614895D02*
X140857143Y-113614895D01*
X140857143Y-113614895D02*
X140857143Y-112814895D01*
X141961905Y-113538704D02*
X141923809Y-113576800D01*
X141923809Y-113576800D02*
X141809524Y-113614895D01*
X141809524Y-113614895D02*
X141733333Y-113614895D01*
X141733333Y-113614895D02*
X141619047Y-113576800D01*
X141619047Y-113576800D02*
X141542857Y-113500609D01*
X141542857Y-113500609D02*
X141504762Y-113424419D01*
X141504762Y-113424419D02*
X141466666Y-113272038D01*
X141466666Y-113272038D02*
X141466666Y-113157752D01*
X141466666Y-113157752D02*
X141504762Y-113005371D01*
X141504762Y-113005371D02*
X141542857Y-112929180D01*
X141542857Y-112929180D02*
X141619047Y-112852990D01*
X141619047Y-112852990D02*
X141733333Y-112814895D01*
X141733333Y-112814895D02*
X141809524Y-112814895D01*
X141809524Y-112814895D02*
X141923809Y-112852990D01*
X141923809Y-112852990D02*
X141961905Y-112891085D01*
D12*
X127822493Y-114739819D02*
X127822493Y-115454104D01*
X127822493Y-115454104D02*
X127774874Y-115596961D01*
X127774874Y-115596961D02*
X127679636Y-115692200D01*
X127679636Y-115692200D02*
X127536779Y-115739819D01*
X127536779Y-115739819D02*
X127441541Y-115739819D01*
X128727255Y-114739819D02*
X128536779Y-114739819D01*
X128536779Y-114739819D02*
X128441541Y-114787438D01*
X128441541Y-114787438D02*
X128393922Y-114835057D01*
X128393922Y-114835057D02*
X128298684Y-114977914D01*
X128298684Y-114977914D02*
X128251065Y-115168390D01*
X128251065Y-115168390D02*
X128251065Y-115549342D01*
X128251065Y-115549342D02*
X128298684Y-115644580D01*
X128298684Y-115644580D02*
X128346303Y-115692200D01*
X128346303Y-115692200D02*
X128441541Y-115739819D01*
X128441541Y-115739819D02*
X128632017Y-115739819D01*
X128632017Y-115739819D02*
X128727255Y-115692200D01*
X128727255Y-115692200D02*
X128774874Y-115644580D01*
X128774874Y-115644580D02*
X128822493Y-115549342D01*
X128822493Y-115549342D02*
X128822493Y-115311247D01*
X128822493Y-115311247D02*
X128774874Y-115216009D01*
X128774874Y-115216009D02*
X128727255Y-115168390D01*
X128727255Y-115168390D02*
X128632017Y-115120771D01*
X128632017Y-115120771D02*
X128441541Y-115120771D01*
X128441541Y-115120771D02*
X128346303Y-115168390D01*
X128346303Y-115168390D02*
X128298684Y-115216009D01*
X128298684Y-115216009D02*
X128251065Y-115311247D01*
D10*
X101130952Y-87491466D02*
X101892857Y-87491466D01*
X101511904Y-87872419D02*
X101511904Y-87110514D01*
X102988095Y-86872419D02*
X103321428Y-87872419D01*
X103321428Y-87872419D02*
X103654761Y-86872419D01*
X104178571Y-86872419D02*
X104369047Y-86872419D01*
X104369047Y-86872419D02*
X104464285Y-86920038D01*
X104464285Y-86920038D02*
X104559523Y-87015276D01*
X104559523Y-87015276D02*
X104607142Y-87205752D01*
X104607142Y-87205752D02*
X104607142Y-87539085D01*
X104607142Y-87539085D02*
X104559523Y-87729561D01*
X104559523Y-87729561D02*
X104464285Y-87824800D01*
X104464285Y-87824800D02*
X104369047Y-87872419D01*
X104369047Y-87872419D02*
X104178571Y-87872419D01*
X104178571Y-87872419D02*
X104083333Y-87824800D01*
X104083333Y-87824800D02*
X103988095Y-87729561D01*
X103988095Y-87729561D02*
X103940476Y-87539085D01*
X103940476Y-87539085D02*
X103940476Y-87205752D01*
X103940476Y-87205752D02*
X103988095Y-87015276D01*
X103988095Y-87015276D02*
X104083333Y-86920038D01*
X104083333Y-86920038D02*
X104178571Y-86872419D01*
X105511904Y-87872419D02*
X105035714Y-87872419D01*
X105035714Y-87872419D02*
X105035714Y-86872419D01*
X106607143Y-87491466D02*
X107369048Y-87491466D01*
D12*
X114485714Y-83286104D02*
X114447618Y-83324200D01*
X114447618Y-83324200D02*
X114333333Y-83362295D01*
X114333333Y-83362295D02*
X114257142Y-83362295D01*
X114257142Y-83362295D02*
X114142856Y-83324200D01*
X114142856Y-83324200D02*
X114066666Y-83248009D01*
X114066666Y-83248009D02*
X114028571Y-83171819D01*
X114028571Y-83171819D02*
X113990475Y-83019438D01*
X113990475Y-83019438D02*
X113990475Y-82905152D01*
X113990475Y-82905152D02*
X114028571Y-82752771D01*
X114028571Y-82752771D02*
X114066666Y-82676580D01*
X114066666Y-82676580D02*
X114142856Y-82600390D01*
X114142856Y-82600390D02*
X114257142Y-82562295D01*
X114257142Y-82562295D02*
X114333333Y-82562295D01*
X114333333Y-82562295D02*
X114447618Y-82600390D01*
X114447618Y-82600390D02*
X114485714Y-82638485D01*
X115247618Y-83362295D02*
X114790475Y-83362295D01*
X115019047Y-83362295D02*
X115019047Y-82562295D01*
X115019047Y-82562295D02*
X114942856Y-82676580D01*
X114942856Y-82676580D02*
X114866666Y-82752771D01*
X114866666Y-82752771D02*
X114790475Y-82790866D01*
X115514285Y-82562295D02*
X116009523Y-82562295D01*
X116009523Y-82562295D02*
X115742857Y-82867057D01*
X115742857Y-82867057D02*
X115857142Y-82867057D01*
X115857142Y-82867057D02*
X115933333Y-82905152D01*
X115933333Y-82905152D02*
X115971428Y-82943247D01*
X115971428Y-82943247D02*
X116009523Y-83019438D01*
X116009523Y-83019438D02*
X116009523Y-83209914D01*
X116009523Y-83209914D02*
X115971428Y-83286104D01*
X115971428Y-83286104D02*
X115933333Y-83324200D01*
X115933333Y-83324200D02*
X115857142Y-83362295D01*
X115857142Y-83362295D02*
X115628571Y-83362295D01*
X115628571Y-83362295D02*
X115552380Y-83324200D01*
X115552380Y-83324200D02*
X115514285Y-83286104D01*
X114485714Y-85286104D02*
X114447618Y-85324200D01*
X114447618Y-85324200D02*
X114333333Y-85362295D01*
X114333333Y-85362295D02*
X114257142Y-85362295D01*
X114257142Y-85362295D02*
X114142856Y-85324200D01*
X114142856Y-85324200D02*
X114066666Y-85248009D01*
X114066666Y-85248009D02*
X114028571Y-85171819D01*
X114028571Y-85171819D02*
X113990475Y-85019438D01*
X113990475Y-85019438D02*
X113990475Y-84905152D01*
X113990475Y-84905152D02*
X114028571Y-84752771D01*
X114028571Y-84752771D02*
X114066666Y-84676580D01*
X114066666Y-84676580D02*
X114142856Y-84600390D01*
X114142856Y-84600390D02*
X114257142Y-84562295D01*
X114257142Y-84562295D02*
X114333333Y-84562295D01*
X114333333Y-84562295D02*
X114447618Y-84600390D01*
X114447618Y-84600390D02*
X114485714Y-84638485D01*
X115247618Y-85362295D02*
X114790475Y-85362295D01*
X115019047Y-85362295D02*
X115019047Y-84562295D01*
X115019047Y-84562295D02*
X114942856Y-84676580D01*
X114942856Y-84676580D02*
X114866666Y-84752771D01*
X114866666Y-84752771D02*
X114790475Y-84790866D01*
X115552380Y-84638485D02*
X115590476Y-84600390D01*
X115590476Y-84600390D02*
X115666666Y-84562295D01*
X115666666Y-84562295D02*
X115857142Y-84562295D01*
X115857142Y-84562295D02*
X115933333Y-84600390D01*
X115933333Y-84600390D02*
X115971428Y-84638485D01*
X115971428Y-84638485D02*
X116009523Y-84714676D01*
X116009523Y-84714676D02*
X116009523Y-84790866D01*
X116009523Y-84790866D02*
X115971428Y-84905152D01*
X115971428Y-84905152D02*
X115514285Y-85362295D01*
X115514285Y-85362295D02*
X116009523Y-85362295D01*
X103735714Y-104612295D02*
X103469047Y-104231342D01*
X103278571Y-104612295D02*
X103278571Y-103812295D01*
X103278571Y-103812295D02*
X103583333Y-103812295D01*
X103583333Y-103812295D02*
X103659523Y-103850390D01*
X103659523Y-103850390D02*
X103697618Y-103888485D01*
X103697618Y-103888485D02*
X103735714Y-103964676D01*
X103735714Y-103964676D02*
X103735714Y-104078961D01*
X103735714Y-104078961D02*
X103697618Y-104155152D01*
X103697618Y-104155152D02*
X103659523Y-104193247D01*
X103659523Y-104193247D02*
X103583333Y-104231342D01*
X103583333Y-104231342D02*
X103278571Y-104231342D01*
X104459523Y-103812295D02*
X104078571Y-103812295D01*
X104078571Y-103812295D02*
X104040475Y-104193247D01*
X104040475Y-104193247D02*
X104078571Y-104155152D01*
X104078571Y-104155152D02*
X104154761Y-104117057D01*
X104154761Y-104117057D02*
X104345237Y-104117057D01*
X104345237Y-104117057D02*
X104421428Y-104155152D01*
X104421428Y-104155152D02*
X104459523Y-104193247D01*
X104459523Y-104193247D02*
X104497618Y-104269438D01*
X104497618Y-104269438D02*
X104497618Y-104459914D01*
X104497618Y-104459914D02*
X104459523Y-104536104D01*
X104459523Y-104536104D02*
X104421428Y-104574200D01*
X104421428Y-104574200D02*
X104345237Y-104612295D01*
X104345237Y-104612295D02*
X104154761Y-104612295D01*
X104154761Y-104612295D02*
X104078571Y-104574200D01*
X104078571Y-104574200D02*
X104040475Y-104536104D01*
X104764285Y-103812295D02*
X105259523Y-103812295D01*
X105259523Y-103812295D02*
X104992857Y-104117057D01*
X104992857Y-104117057D02*
X105107142Y-104117057D01*
X105107142Y-104117057D02*
X105183333Y-104155152D01*
X105183333Y-104155152D02*
X105221428Y-104193247D01*
X105221428Y-104193247D02*
X105259523Y-104269438D01*
X105259523Y-104269438D02*
X105259523Y-104459914D01*
X105259523Y-104459914D02*
X105221428Y-104536104D01*
X105221428Y-104536104D02*
X105183333Y-104574200D01*
X105183333Y-104574200D02*
X105107142Y-104612295D01*
X105107142Y-104612295D02*
X104878571Y-104612295D01*
X104878571Y-104612295D02*
X104802380Y-104574200D01*
X104802380Y-104574200D02*
X104764285Y-104536104D01*
X112035714Y-107862295D02*
X111769047Y-107481342D01*
X111578571Y-107862295D02*
X111578571Y-107062295D01*
X111578571Y-107062295D02*
X111883333Y-107062295D01*
X111883333Y-107062295D02*
X111959523Y-107100390D01*
X111959523Y-107100390D02*
X111997618Y-107138485D01*
X111997618Y-107138485D02*
X112035714Y-107214676D01*
X112035714Y-107214676D02*
X112035714Y-107328961D01*
X112035714Y-107328961D02*
X111997618Y-107405152D01*
X111997618Y-107405152D02*
X111959523Y-107443247D01*
X111959523Y-107443247D02*
X111883333Y-107481342D01*
X111883333Y-107481342D02*
X111578571Y-107481342D01*
X112721428Y-107328961D02*
X112721428Y-107862295D01*
X112530952Y-107024200D02*
X112340475Y-107595628D01*
X112340475Y-107595628D02*
X112835714Y-107595628D01*
X113178571Y-107862295D02*
X113330952Y-107862295D01*
X113330952Y-107862295D02*
X113407142Y-107824200D01*
X113407142Y-107824200D02*
X113445238Y-107786104D01*
X113445238Y-107786104D02*
X113521428Y-107671819D01*
X113521428Y-107671819D02*
X113559523Y-107519438D01*
X113559523Y-107519438D02*
X113559523Y-107214676D01*
X113559523Y-107214676D02*
X113521428Y-107138485D01*
X113521428Y-107138485D02*
X113483333Y-107100390D01*
X113483333Y-107100390D02*
X113407142Y-107062295D01*
X113407142Y-107062295D02*
X113254761Y-107062295D01*
X113254761Y-107062295D02*
X113178571Y-107100390D01*
X113178571Y-107100390D02*
X113140476Y-107138485D01*
X113140476Y-107138485D02*
X113102380Y-107214676D01*
X113102380Y-107214676D02*
X113102380Y-107405152D01*
X113102380Y-107405152D02*
X113140476Y-107481342D01*
X113140476Y-107481342D02*
X113178571Y-107519438D01*
X113178571Y-107519438D02*
X113254761Y-107557533D01*
X113254761Y-107557533D02*
X113407142Y-107557533D01*
X113407142Y-107557533D02*
X113483333Y-107519438D01*
X113483333Y-107519438D02*
X113521428Y-107481342D01*
X113521428Y-107481342D02*
X113559523Y-107405152D01*
X125916666Y-88754819D02*
X125916666Y-89469104D01*
X125916666Y-89469104D02*
X125869047Y-89611961D01*
X125869047Y-89611961D02*
X125773809Y-89707200D01*
X125773809Y-89707200D02*
X125630952Y-89754819D01*
X125630952Y-89754819D02*
X125535714Y-89754819D01*
X126297619Y-88754819D02*
X126916666Y-88754819D01*
X126916666Y-88754819D02*
X126583333Y-89135771D01*
X126583333Y-89135771D02*
X126726190Y-89135771D01*
X126726190Y-89135771D02*
X126821428Y-89183390D01*
X126821428Y-89183390D02*
X126869047Y-89231009D01*
X126869047Y-89231009D02*
X126916666Y-89326247D01*
X126916666Y-89326247D02*
X126916666Y-89564342D01*
X126916666Y-89564342D02*
X126869047Y-89659580D01*
X126869047Y-89659580D02*
X126821428Y-89707200D01*
X126821428Y-89707200D02*
X126726190Y-89754819D01*
X126726190Y-89754819D02*
X126440476Y-89754819D01*
X126440476Y-89754819D02*
X126345238Y-89707200D01*
X126345238Y-89707200D02*
X126297619Y-89659580D01*
X86193333Y-99419580D02*
X86145714Y-99467200D01*
X86145714Y-99467200D02*
X86002857Y-99514819D01*
X86002857Y-99514819D02*
X85907619Y-99514819D01*
X85907619Y-99514819D02*
X85764762Y-99467200D01*
X85764762Y-99467200D02*
X85669524Y-99371961D01*
X85669524Y-99371961D02*
X85621905Y-99276723D01*
X85621905Y-99276723D02*
X85574286Y-99086247D01*
X85574286Y-99086247D02*
X85574286Y-98943390D01*
X85574286Y-98943390D02*
X85621905Y-98752914D01*
X85621905Y-98752914D02*
X85669524Y-98657676D01*
X85669524Y-98657676D02*
X85764762Y-98562438D01*
X85764762Y-98562438D02*
X85907619Y-98514819D01*
X85907619Y-98514819D02*
X86002857Y-98514819D01*
X86002857Y-98514819D02*
X86145714Y-98562438D01*
X86145714Y-98562438D02*
X86193333Y-98610057D01*
X87098095Y-98514819D02*
X86621905Y-98514819D01*
X86621905Y-98514819D02*
X86574286Y-98991009D01*
X86574286Y-98991009D02*
X86621905Y-98943390D01*
X86621905Y-98943390D02*
X86717143Y-98895771D01*
X86717143Y-98895771D02*
X86955238Y-98895771D01*
X86955238Y-98895771D02*
X87050476Y-98943390D01*
X87050476Y-98943390D02*
X87098095Y-98991009D01*
X87098095Y-98991009D02*
X87145714Y-99086247D01*
X87145714Y-99086247D02*
X87145714Y-99324342D01*
X87145714Y-99324342D02*
X87098095Y-99419580D01*
X87098095Y-99419580D02*
X87050476Y-99467200D01*
X87050476Y-99467200D02*
X86955238Y-99514819D01*
X86955238Y-99514819D02*
X86717143Y-99514819D01*
X86717143Y-99514819D02*
X86621905Y-99467200D01*
X86621905Y-99467200D02*
X86574286Y-99419580D01*
X101235714Y-109536104D02*
X101197618Y-109574200D01*
X101197618Y-109574200D02*
X101083333Y-109612295D01*
X101083333Y-109612295D02*
X101007142Y-109612295D01*
X101007142Y-109612295D02*
X100892856Y-109574200D01*
X100892856Y-109574200D02*
X100816666Y-109498009D01*
X100816666Y-109498009D02*
X100778571Y-109421819D01*
X100778571Y-109421819D02*
X100740475Y-109269438D01*
X100740475Y-109269438D02*
X100740475Y-109155152D01*
X100740475Y-109155152D02*
X100778571Y-109002771D01*
X100778571Y-109002771D02*
X100816666Y-108926580D01*
X100816666Y-108926580D02*
X100892856Y-108850390D01*
X100892856Y-108850390D02*
X101007142Y-108812295D01*
X101007142Y-108812295D02*
X101083333Y-108812295D01*
X101083333Y-108812295D02*
X101197618Y-108850390D01*
X101197618Y-108850390D02*
X101235714Y-108888485D01*
X101997618Y-109612295D02*
X101540475Y-109612295D01*
X101769047Y-109612295D02*
X101769047Y-108812295D01*
X101769047Y-108812295D02*
X101692856Y-108926580D01*
X101692856Y-108926580D02*
X101616666Y-109002771D01*
X101616666Y-109002771D02*
X101540475Y-109040866D01*
X102492857Y-108812295D02*
X102569047Y-108812295D01*
X102569047Y-108812295D02*
X102645238Y-108850390D01*
X102645238Y-108850390D02*
X102683333Y-108888485D01*
X102683333Y-108888485D02*
X102721428Y-108964676D01*
X102721428Y-108964676D02*
X102759523Y-109117057D01*
X102759523Y-109117057D02*
X102759523Y-109307533D01*
X102759523Y-109307533D02*
X102721428Y-109459914D01*
X102721428Y-109459914D02*
X102683333Y-109536104D01*
X102683333Y-109536104D02*
X102645238Y-109574200D01*
X102645238Y-109574200D02*
X102569047Y-109612295D01*
X102569047Y-109612295D02*
X102492857Y-109612295D01*
X102492857Y-109612295D02*
X102416666Y-109574200D01*
X102416666Y-109574200D02*
X102378571Y-109536104D01*
X102378571Y-109536104D02*
X102340476Y-109459914D01*
X102340476Y-109459914D02*
X102302380Y-109307533D01*
X102302380Y-109307533D02*
X102302380Y-109117057D01*
X102302380Y-109117057D02*
X102340476Y-108964676D01*
X102340476Y-108964676D02*
X102378571Y-108888485D01*
X102378571Y-108888485D02*
X102416666Y-108850390D01*
X102416666Y-108850390D02*
X102492857Y-108812295D01*
X116951429Y-94244819D02*
X116951429Y-93244819D01*
X116951429Y-93244819D02*
X117332381Y-93244819D01*
X117332381Y-93244819D02*
X117427619Y-93292438D01*
X117427619Y-93292438D02*
X117475238Y-93340057D01*
X117475238Y-93340057D02*
X117522857Y-93435295D01*
X117522857Y-93435295D02*
X117522857Y-93578152D01*
X117522857Y-93578152D02*
X117475238Y-93673390D01*
X117475238Y-93673390D02*
X117427619Y-93721009D01*
X117427619Y-93721009D02*
X117332381Y-93768628D01*
X117332381Y-93768628D02*
X116951429Y-93768628D01*
X117951429Y-94244819D02*
X117951429Y-93244819D01*
X118427619Y-93721009D02*
X118760952Y-93721009D01*
X118903809Y-94244819D02*
X118427619Y-94244819D01*
X118427619Y-94244819D02*
X118427619Y-93244819D01*
X118427619Y-93244819D02*
X118903809Y-93244819D01*
X119237143Y-93244819D02*
X119903809Y-93244819D01*
X119903809Y-93244819D02*
X119237143Y-94244819D01*
X119237143Y-94244819D02*
X119903809Y-94244819D01*
X120475238Y-93244819D02*
X120665714Y-93244819D01*
X120665714Y-93244819D02*
X120760952Y-93292438D01*
X120760952Y-93292438D02*
X120856190Y-93387676D01*
X120856190Y-93387676D02*
X120903809Y-93578152D01*
X120903809Y-93578152D02*
X120903809Y-93911485D01*
X120903809Y-93911485D02*
X120856190Y-94101961D01*
X120856190Y-94101961D02*
X120760952Y-94197200D01*
X120760952Y-94197200D02*
X120665714Y-94244819D01*
X120665714Y-94244819D02*
X120475238Y-94244819D01*
X120475238Y-94244819D02*
X120380000Y-94197200D01*
X120380000Y-94197200D02*
X120284762Y-94101961D01*
X120284762Y-94101961D02*
X120237143Y-93911485D01*
X120237143Y-93911485D02*
X120237143Y-93578152D01*
X120237143Y-93578152D02*
X120284762Y-93387676D01*
X120284762Y-93387676D02*
X120380000Y-93292438D01*
X120380000Y-93292438D02*
X120475238Y-93244819D01*
X121856190Y-94244819D02*
X121284762Y-94244819D01*
X121570476Y-94244819D02*
X121570476Y-93244819D01*
X121570476Y-93244819D02*
X121475238Y-93387676D01*
X121475238Y-93387676D02*
X121380000Y-93482914D01*
X121380000Y-93482914D02*
X121284762Y-93530533D01*
X111011315Y-97885916D02*
X111978935Y-97885916D01*
X111495125Y-98369726D02*
X111495125Y-97402107D01*
X77831666Y-95704819D02*
X77831666Y-96419104D01*
X77831666Y-96419104D02*
X77784047Y-96561961D01*
X77784047Y-96561961D02*
X77688809Y-96657200D01*
X77688809Y-96657200D02*
X77545952Y-96704819D01*
X77545952Y-96704819D02*
X77450714Y-96704819D01*
X78831666Y-96704819D02*
X78260238Y-96704819D01*
X78545952Y-96704819D02*
X78545952Y-95704819D01*
X78545952Y-95704819D02*
X78450714Y-95847676D01*
X78450714Y-95847676D02*
X78355476Y-95942914D01*
X78355476Y-95942914D02*
X78260238Y-95990533D01*
X95578591Y-78808304D02*
X95244339Y-78330801D01*
X95005588Y-78808304D02*
X95005588Y-77805548D01*
X95005588Y-77805548D02*
X95387590Y-77805548D01*
X95387590Y-77805548D02*
X95483091Y-77853298D01*
X95483091Y-77853298D02*
X95530841Y-77901048D01*
X95530841Y-77901048D02*
X95578591Y-77996549D01*
X95578591Y-77996549D02*
X95578591Y-78139800D01*
X95578591Y-78139800D02*
X95530841Y-78235300D01*
X95530841Y-78235300D02*
X95483091Y-78283051D01*
X95483091Y-78283051D02*
X95387590Y-78330801D01*
X95387590Y-78330801D02*
X95005588Y-78330801D01*
X95865093Y-77805548D02*
X96199345Y-78808304D01*
X96199345Y-78808304D02*
X96533597Y-77805548D01*
X97393102Y-78808304D02*
X96820099Y-78808304D01*
X97106600Y-78808304D02*
X97106600Y-77805548D01*
X97106600Y-77805548D02*
X97011100Y-77948799D01*
X97011100Y-77948799D02*
X96915599Y-78044299D01*
X96915599Y-78044299D02*
X96820099Y-78092050D01*
X114485714Y-84362295D02*
X114219047Y-83981342D01*
X114028571Y-84362295D02*
X114028571Y-83562295D01*
X114028571Y-83562295D02*
X114333333Y-83562295D01*
X114333333Y-83562295D02*
X114409523Y-83600390D01*
X114409523Y-83600390D02*
X114447618Y-83638485D01*
X114447618Y-83638485D02*
X114485714Y-83714676D01*
X114485714Y-83714676D02*
X114485714Y-83828961D01*
X114485714Y-83828961D02*
X114447618Y-83905152D01*
X114447618Y-83905152D02*
X114409523Y-83943247D01*
X114409523Y-83943247D02*
X114333333Y-83981342D01*
X114333333Y-83981342D02*
X114028571Y-83981342D01*
X115209523Y-83562295D02*
X114828571Y-83562295D01*
X114828571Y-83562295D02*
X114790475Y-83943247D01*
X114790475Y-83943247D02*
X114828571Y-83905152D01*
X114828571Y-83905152D02*
X114904761Y-83867057D01*
X114904761Y-83867057D02*
X115095237Y-83867057D01*
X115095237Y-83867057D02*
X115171428Y-83905152D01*
X115171428Y-83905152D02*
X115209523Y-83943247D01*
X115209523Y-83943247D02*
X115247618Y-84019438D01*
X115247618Y-84019438D02*
X115247618Y-84209914D01*
X115247618Y-84209914D02*
X115209523Y-84286104D01*
X115209523Y-84286104D02*
X115171428Y-84324200D01*
X115171428Y-84324200D02*
X115095237Y-84362295D01*
X115095237Y-84362295D02*
X114904761Y-84362295D01*
X114904761Y-84362295D02*
X114828571Y-84324200D01*
X114828571Y-84324200D02*
X114790475Y-84286104D01*
X115933333Y-83562295D02*
X115780952Y-83562295D01*
X115780952Y-83562295D02*
X115704761Y-83600390D01*
X115704761Y-83600390D02*
X115666666Y-83638485D01*
X115666666Y-83638485D02*
X115590476Y-83752771D01*
X115590476Y-83752771D02*
X115552380Y-83905152D01*
X115552380Y-83905152D02*
X115552380Y-84209914D01*
X115552380Y-84209914D02*
X115590476Y-84286104D01*
X115590476Y-84286104D02*
X115628571Y-84324200D01*
X115628571Y-84324200D02*
X115704761Y-84362295D01*
X115704761Y-84362295D02*
X115857142Y-84362295D01*
X115857142Y-84362295D02*
X115933333Y-84324200D01*
X115933333Y-84324200D02*
X115971428Y-84286104D01*
X115971428Y-84286104D02*
X116009523Y-84209914D01*
X116009523Y-84209914D02*
X116009523Y-84019438D01*
X116009523Y-84019438D02*
X115971428Y-83943247D01*
X115971428Y-83943247D02*
X115933333Y-83905152D01*
X115933333Y-83905152D02*
X115857142Y-83867057D01*
X115857142Y-83867057D02*
X115704761Y-83867057D01*
X115704761Y-83867057D02*
X115628571Y-83905152D01*
X115628571Y-83905152D02*
X115590476Y-83943247D01*
X115590476Y-83943247D02*
X115552380Y-84019438D01*
X104116667Y-105786104D02*
X104078571Y-105824200D01*
X104078571Y-105824200D02*
X103964286Y-105862295D01*
X103964286Y-105862295D02*
X103888095Y-105862295D01*
X103888095Y-105862295D02*
X103773809Y-105824200D01*
X103773809Y-105824200D02*
X103697619Y-105748009D01*
X103697619Y-105748009D02*
X103659524Y-105671819D01*
X103659524Y-105671819D02*
X103621428Y-105519438D01*
X103621428Y-105519438D02*
X103621428Y-105405152D01*
X103621428Y-105405152D02*
X103659524Y-105252771D01*
X103659524Y-105252771D02*
X103697619Y-105176580D01*
X103697619Y-105176580D02*
X103773809Y-105100390D01*
X103773809Y-105100390D02*
X103888095Y-105062295D01*
X103888095Y-105062295D02*
X103964286Y-105062295D01*
X103964286Y-105062295D02*
X104078571Y-105100390D01*
X104078571Y-105100390D02*
X104116667Y-105138485D01*
X104383333Y-105062295D02*
X104916667Y-105062295D01*
X104916667Y-105062295D02*
X104573809Y-105862295D01*
X101235714Y-108362295D02*
X100969047Y-107981342D01*
X100778571Y-108362295D02*
X100778571Y-107562295D01*
X100778571Y-107562295D02*
X101083333Y-107562295D01*
X101083333Y-107562295D02*
X101159523Y-107600390D01*
X101159523Y-107600390D02*
X101197618Y-107638485D01*
X101197618Y-107638485D02*
X101235714Y-107714676D01*
X101235714Y-107714676D02*
X101235714Y-107828961D01*
X101235714Y-107828961D02*
X101197618Y-107905152D01*
X101197618Y-107905152D02*
X101159523Y-107943247D01*
X101159523Y-107943247D02*
X101083333Y-107981342D01*
X101083333Y-107981342D02*
X100778571Y-107981342D01*
X101959523Y-107562295D02*
X101578571Y-107562295D01*
X101578571Y-107562295D02*
X101540475Y-107943247D01*
X101540475Y-107943247D02*
X101578571Y-107905152D01*
X101578571Y-107905152D02*
X101654761Y-107867057D01*
X101654761Y-107867057D02*
X101845237Y-107867057D01*
X101845237Y-107867057D02*
X101921428Y-107905152D01*
X101921428Y-107905152D02*
X101959523Y-107943247D01*
X101959523Y-107943247D02*
X101997618Y-108019438D01*
X101997618Y-108019438D02*
X101997618Y-108209914D01*
X101997618Y-108209914D02*
X101959523Y-108286104D01*
X101959523Y-108286104D02*
X101921428Y-108324200D01*
X101921428Y-108324200D02*
X101845237Y-108362295D01*
X101845237Y-108362295D02*
X101654761Y-108362295D01*
X101654761Y-108362295D02*
X101578571Y-108324200D01*
X101578571Y-108324200D02*
X101540475Y-108286104D01*
X102302380Y-107638485D02*
X102340476Y-107600390D01*
X102340476Y-107600390D02*
X102416666Y-107562295D01*
X102416666Y-107562295D02*
X102607142Y-107562295D01*
X102607142Y-107562295D02*
X102683333Y-107600390D01*
X102683333Y-107600390D02*
X102721428Y-107638485D01*
X102721428Y-107638485D02*
X102759523Y-107714676D01*
X102759523Y-107714676D02*
X102759523Y-107790866D01*
X102759523Y-107790866D02*
X102721428Y-107905152D01*
X102721428Y-107905152D02*
X102264285Y-108362295D01*
X102264285Y-108362295D02*
X102759523Y-108362295D01*
X100395595Y-100814819D02*
X100395595Y-101624342D01*
X100395595Y-101624342D02*
X100443214Y-101719580D01*
X100443214Y-101719580D02*
X100490833Y-101767200D01*
X100490833Y-101767200D02*
X100586071Y-101814819D01*
X100586071Y-101814819D02*
X100776547Y-101814819D01*
X100776547Y-101814819D02*
X100871785Y-101767200D01*
X100871785Y-101767200D02*
X100919404Y-101719580D01*
X100919404Y-101719580D02*
X100967023Y-101624342D01*
X100967023Y-101624342D02*
X100967023Y-100814819D01*
X101395595Y-100910057D02*
X101443214Y-100862438D01*
X101443214Y-100862438D02*
X101538452Y-100814819D01*
X101538452Y-100814819D02*
X101776547Y-100814819D01*
X101776547Y-100814819D02*
X101871785Y-100862438D01*
X101871785Y-100862438D02*
X101919404Y-100910057D01*
X101919404Y-100910057D02*
X101967023Y-101005295D01*
X101967023Y-101005295D02*
X101967023Y-101100533D01*
X101967023Y-101100533D02*
X101919404Y-101243390D01*
X101919404Y-101243390D02*
X101347976Y-101814819D01*
X101347976Y-101814819D02*
X101967023Y-101814819D01*
X103828591Y-78808304D02*
X103494339Y-78330801D01*
X103255588Y-78808304D02*
X103255588Y-77805548D01*
X103255588Y-77805548D02*
X103637590Y-77805548D01*
X103637590Y-77805548D02*
X103733091Y-77853298D01*
X103733091Y-77853298D02*
X103780841Y-77901048D01*
X103780841Y-77901048D02*
X103828591Y-77996549D01*
X103828591Y-77996549D02*
X103828591Y-78139800D01*
X103828591Y-78139800D02*
X103780841Y-78235300D01*
X103780841Y-78235300D02*
X103733091Y-78283051D01*
X103733091Y-78283051D02*
X103637590Y-78330801D01*
X103637590Y-78330801D02*
X103255588Y-78330801D01*
X104115093Y-77805548D02*
X104449345Y-78808304D01*
X104449345Y-78808304D02*
X104783597Y-77805548D01*
X105070099Y-77901048D02*
X105117849Y-77853298D01*
X105117849Y-77853298D02*
X105213350Y-77805548D01*
X105213350Y-77805548D02*
X105452101Y-77805548D01*
X105452101Y-77805548D02*
X105547602Y-77853298D01*
X105547602Y-77853298D02*
X105595352Y-77901048D01*
X105595352Y-77901048D02*
X105643102Y-77996549D01*
X105643102Y-77996549D02*
X105643102Y-78092050D01*
X105643102Y-78092050D02*
X105595352Y-78235300D01*
X105595352Y-78235300D02*
X105022348Y-78808304D01*
X105022348Y-78808304D02*
X105643102Y-78808304D01*
X98333333Y-98359580D02*
X98285714Y-98407200D01*
X98285714Y-98407200D02*
X98142857Y-98454819D01*
X98142857Y-98454819D02*
X98047619Y-98454819D01*
X98047619Y-98454819D02*
X97904762Y-98407200D01*
X97904762Y-98407200D02*
X97809524Y-98311961D01*
X97809524Y-98311961D02*
X97761905Y-98216723D01*
X97761905Y-98216723D02*
X97714286Y-98026247D01*
X97714286Y-98026247D02*
X97714286Y-97883390D01*
X97714286Y-97883390D02*
X97761905Y-97692914D01*
X97761905Y-97692914D02*
X97809524Y-97597676D01*
X97809524Y-97597676D02*
X97904762Y-97502438D01*
X97904762Y-97502438D02*
X98047619Y-97454819D01*
X98047619Y-97454819D02*
X98142857Y-97454819D01*
X98142857Y-97454819D02*
X98285714Y-97502438D01*
X98285714Y-97502438D02*
X98333333Y-97550057D01*
X98666667Y-97454819D02*
X99285714Y-97454819D01*
X99285714Y-97454819D02*
X98952381Y-97835771D01*
X98952381Y-97835771D02*
X99095238Y-97835771D01*
X99095238Y-97835771D02*
X99190476Y-97883390D01*
X99190476Y-97883390D02*
X99238095Y-97931009D01*
X99238095Y-97931009D02*
X99285714Y-98026247D01*
X99285714Y-98026247D02*
X99285714Y-98264342D01*
X99285714Y-98264342D02*
X99238095Y-98359580D01*
X99238095Y-98359580D02*
X99190476Y-98407200D01*
X99190476Y-98407200D02*
X99095238Y-98454819D01*
X99095238Y-98454819D02*
X98809524Y-98454819D01*
X98809524Y-98454819D02*
X98714286Y-98407200D01*
X98714286Y-98407200D02*
X98666667Y-98359580D01*
X114485714Y-86362295D02*
X114219047Y-85981342D01*
X114028571Y-86362295D02*
X114028571Y-85562295D01*
X114028571Y-85562295D02*
X114333333Y-85562295D01*
X114333333Y-85562295D02*
X114409523Y-85600390D01*
X114409523Y-85600390D02*
X114447618Y-85638485D01*
X114447618Y-85638485D02*
X114485714Y-85714676D01*
X114485714Y-85714676D02*
X114485714Y-85828961D01*
X114485714Y-85828961D02*
X114447618Y-85905152D01*
X114447618Y-85905152D02*
X114409523Y-85943247D01*
X114409523Y-85943247D02*
X114333333Y-85981342D01*
X114333333Y-85981342D02*
X114028571Y-85981342D01*
X115209523Y-85562295D02*
X114828571Y-85562295D01*
X114828571Y-85562295D02*
X114790475Y-85943247D01*
X114790475Y-85943247D02*
X114828571Y-85905152D01*
X114828571Y-85905152D02*
X114904761Y-85867057D01*
X114904761Y-85867057D02*
X115095237Y-85867057D01*
X115095237Y-85867057D02*
X115171428Y-85905152D01*
X115171428Y-85905152D02*
X115209523Y-85943247D01*
X115209523Y-85943247D02*
X115247618Y-86019438D01*
X115247618Y-86019438D02*
X115247618Y-86209914D01*
X115247618Y-86209914D02*
X115209523Y-86286104D01*
X115209523Y-86286104D02*
X115171428Y-86324200D01*
X115171428Y-86324200D02*
X115095237Y-86362295D01*
X115095237Y-86362295D02*
X114904761Y-86362295D01*
X114904761Y-86362295D02*
X114828571Y-86324200D01*
X114828571Y-86324200D02*
X114790475Y-86286104D01*
X115971428Y-85562295D02*
X115590476Y-85562295D01*
X115590476Y-85562295D02*
X115552380Y-85943247D01*
X115552380Y-85943247D02*
X115590476Y-85905152D01*
X115590476Y-85905152D02*
X115666666Y-85867057D01*
X115666666Y-85867057D02*
X115857142Y-85867057D01*
X115857142Y-85867057D02*
X115933333Y-85905152D01*
X115933333Y-85905152D02*
X115971428Y-85943247D01*
X115971428Y-85943247D02*
X116009523Y-86019438D01*
X116009523Y-86019438D02*
X116009523Y-86209914D01*
X116009523Y-86209914D02*
X115971428Y-86286104D01*
X115971428Y-86286104D02*
X115933333Y-86324200D01*
X115933333Y-86324200D02*
X115857142Y-86362295D01*
X115857142Y-86362295D02*
X115666666Y-86362295D01*
X115666666Y-86362295D02*
X115590476Y-86324200D01*
X115590476Y-86324200D02*
X115552380Y-86286104D01*
X101264819Y-117173333D02*
X101979104Y-117173333D01*
X101979104Y-117173333D02*
X102121961Y-117220952D01*
X102121961Y-117220952D02*
X102217200Y-117316190D01*
X102217200Y-117316190D02*
X102264819Y-117459047D01*
X102264819Y-117459047D02*
X102264819Y-117554285D01*
X101598152Y-116268571D02*
X102264819Y-116268571D01*
X101217200Y-116506666D02*
X101931485Y-116744761D01*
X101931485Y-116744761D02*
X101931485Y-116125714D01*
X100395595Y-90474819D02*
X100395595Y-91284342D01*
X100395595Y-91284342D02*
X100443214Y-91379580D01*
X100443214Y-91379580D02*
X100490833Y-91427200D01*
X100490833Y-91427200D02*
X100586071Y-91474819D01*
X100586071Y-91474819D02*
X100776547Y-91474819D01*
X100776547Y-91474819D02*
X100871785Y-91427200D01*
X100871785Y-91427200D02*
X100919404Y-91379580D01*
X100919404Y-91379580D02*
X100967023Y-91284342D01*
X100967023Y-91284342D02*
X100967023Y-90474819D01*
X101967023Y-91474819D02*
X101395595Y-91474819D01*
X101681309Y-91474819D02*
X101681309Y-90474819D01*
X101681309Y-90474819D02*
X101586071Y-90617676D01*
X101586071Y-90617676D02*
X101490833Y-90712914D01*
X101490833Y-90712914D02*
X101395595Y-90760533D01*
X104116667Y-107036104D02*
X104078571Y-107074200D01*
X104078571Y-107074200D02*
X103964286Y-107112295D01*
X103964286Y-107112295D02*
X103888095Y-107112295D01*
X103888095Y-107112295D02*
X103773809Y-107074200D01*
X103773809Y-107074200D02*
X103697619Y-106998009D01*
X103697619Y-106998009D02*
X103659524Y-106921819D01*
X103659524Y-106921819D02*
X103621428Y-106769438D01*
X103621428Y-106769438D02*
X103621428Y-106655152D01*
X103621428Y-106655152D02*
X103659524Y-106502771D01*
X103659524Y-106502771D02*
X103697619Y-106426580D01*
X103697619Y-106426580D02*
X103773809Y-106350390D01*
X103773809Y-106350390D02*
X103888095Y-106312295D01*
X103888095Y-106312295D02*
X103964286Y-106312295D01*
X103964286Y-106312295D02*
X104078571Y-106350390D01*
X104078571Y-106350390D02*
X104116667Y-106388485D01*
X104497619Y-107112295D02*
X104650000Y-107112295D01*
X104650000Y-107112295D02*
X104726190Y-107074200D01*
X104726190Y-107074200D02*
X104764286Y-107036104D01*
X104764286Y-107036104D02*
X104840476Y-106921819D01*
X104840476Y-106921819D02*
X104878571Y-106769438D01*
X104878571Y-106769438D02*
X104878571Y-106464676D01*
X104878571Y-106464676D02*
X104840476Y-106388485D01*
X104840476Y-106388485D02*
X104802381Y-106350390D01*
X104802381Y-106350390D02*
X104726190Y-106312295D01*
X104726190Y-106312295D02*
X104573809Y-106312295D01*
X104573809Y-106312295D02*
X104497619Y-106350390D01*
X104497619Y-106350390D02*
X104459524Y-106388485D01*
X104459524Y-106388485D02*
X104421428Y-106464676D01*
X104421428Y-106464676D02*
X104421428Y-106655152D01*
X104421428Y-106655152D02*
X104459524Y-106731342D01*
X104459524Y-106731342D02*
X104497619Y-106769438D01*
X104497619Y-106769438D02*
X104573809Y-106807533D01*
X104573809Y-106807533D02*
X104726190Y-106807533D01*
X104726190Y-106807533D02*
X104802381Y-106769438D01*
X104802381Y-106769438D02*
X104840476Y-106731342D01*
X104840476Y-106731342D02*
X104878571Y-106655152D01*
X101235714Y-104612295D02*
X100969047Y-104231342D01*
X100778571Y-104612295D02*
X100778571Y-103812295D01*
X100778571Y-103812295D02*
X101083333Y-103812295D01*
X101083333Y-103812295D02*
X101159523Y-103850390D01*
X101159523Y-103850390D02*
X101197618Y-103888485D01*
X101197618Y-103888485D02*
X101235714Y-103964676D01*
X101235714Y-103964676D02*
X101235714Y-104078961D01*
X101235714Y-104078961D02*
X101197618Y-104155152D01*
X101197618Y-104155152D02*
X101159523Y-104193247D01*
X101159523Y-104193247D02*
X101083333Y-104231342D01*
X101083333Y-104231342D02*
X100778571Y-104231342D01*
X101959523Y-103812295D02*
X101578571Y-103812295D01*
X101578571Y-103812295D02*
X101540475Y-104193247D01*
X101540475Y-104193247D02*
X101578571Y-104155152D01*
X101578571Y-104155152D02*
X101654761Y-104117057D01*
X101654761Y-104117057D02*
X101845237Y-104117057D01*
X101845237Y-104117057D02*
X101921428Y-104155152D01*
X101921428Y-104155152D02*
X101959523Y-104193247D01*
X101959523Y-104193247D02*
X101997618Y-104269438D01*
X101997618Y-104269438D02*
X101997618Y-104459914D01*
X101997618Y-104459914D02*
X101959523Y-104536104D01*
X101959523Y-104536104D02*
X101921428Y-104574200D01*
X101921428Y-104574200D02*
X101845237Y-104612295D01*
X101845237Y-104612295D02*
X101654761Y-104612295D01*
X101654761Y-104612295D02*
X101578571Y-104574200D01*
X101578571Y-104574200D02*
X101540475Y-104536104D01*
X102759523Y-104612295D02*
X102302380Y-104612295D01*
X102530952Y-104612295D02*
X102530952Y-103812295D01*
X102530952Y-103812295D02*
X102454761Y-103926580D01*
X102454761Y-103926580D02*
X102378571Y-104002771D01*
X102378571Y-104002771D02*
X102302380Y-104040866D01*
X116951429Y-109484819D02*
X116951429Y-108484819D01*
X116951429Y-108484819D02*
X117332381Y-108484819D01*
X117332381Y-108484819D02*
X117427619Y-108532438D01*
X117427619Y-108532438D02*
X117475238Y-108580057D01*
X117475238Y-108580057D02*
X117522857Y-108675295D01*
X117522857Y-108675295D02*
X117522857Y-108818152D01*
X117522857Y-108818152D02*
X117475238Y-108913390D01*
X117475238Y-108913390D02*
X117427619Y-108961009D01*
X117427619Y-108961009D02*
X117332381Y-109008628D01*
X117332381Y-109008628D02*
X116951429Y-109008628D01*
X117951429Y-109484819D02*
X117951429Y-108484819D01*
X118427619Y-108961009D02*
X118760952Y-108961009D01*
X118903809Y-109484819D02*
X118427619Y-109484819D01*
X118427619Y-109484819D02*
X118427619Y-108484819D01*
X118427619Y-108484819D02*
X118903809Y-108484819D01*
X119237143Y-108484819D02*
X119903809Y-108484819D01*
X119903809Y-108484819D02*
X119237143Y-109484819D01*
X119237143Y-109484819D02*
X119903809Y-109484819D01*
X120475238Y-108484819D02*
X120665714Y-108484819D01*
X120665714Y-108484819D02*
X120760952Y-108532438D01*
X120760952Y-108532438D02*
X120856190Y-108627676D01*
X120856190Y-108627676D02*
X120903809Y-108818152D01*
X120903809Y-108818152D02*
X120903809Y-109151485D01*
X120903809Y-109151485D02*
X120856190Y-109341961D01*
X120856190Y-109341961D02*
X120760952Y-109437200D01*
X120760952Y-109437200D02*
X120665714Y-109484819D01*
X120665714Y-109484819D02*
X120475238Y-109484819D01*
X120475238Y-109484819D02*
X120380000Y-109437200D01*
X120380000Y-109437200D02*
X120284762Y-109341961D01*
X120284762Y-109341961D02*
X120237143Y-109151485D01*
X120237143Y-109151485D02*
X120237143Y-108818152D01*
X120237143Y-108818152D02*
X120284762Y-108627676D01*
X120284762Y-108627676D02*
X120380000Y-108532438D01*
X120380000Y-108532438D02*
X120475238Y-108484819D01*
X121284762Y-108580057D02*
X121332381Y-108532438D01*
X121332381Y-108532438D02*
X121427619Y-108484819D01*
X121427619Y-108484819D02*
X121665714Y-108484819D01*
X121665714Y-108484819D02*
X121760952Y-108532438D01*
X121760952Y-108532438D02*
X121808571Y-108580057D01*
X121808571Y-108580057D02*
X121856190Y-108675295D01*
X121856190Y-108675295D02*
X121856190Y-108770533D01*
X121856190Y-108770533D02*
X121808571Y-108913390D01*
X121808571Y-108913390D02*
X121237143Y-109484819D01*
X121237143Y-109484819D02*
X121856190Y-109484819D01*
X111011315Y-113125916D02*
X111978935Y-113125916D01*
X111495125Y-113609726D02*
X111495125Y-112642107D01*
X112035714Y-108862295D02*
X111769047Y-108481342D01*
X111578571Y-108862295D02*
X111578571Y-108062295D01*
X111578571Y-108062295D02*
X111883333Y-108062295D01*
X111883333Y-108062295D02*
X111959523Y-108100390D01*
X111959523Y-108100390D02*
X111997618Y-108138485D01*
X111997618Y-108138485D02*
X112035714Y-108214676D01*
X112035714Y-108214676D02*
X112035714Y-108328961D01*
X112035714Y-108328961D02*
X111997618Y-108405152D01*
X111997618Y-108405152D02*
X111959523Y-108443247D01*
X111959523Y-108443247D02*
X111883333Y-108481342D01*
X111883333Y-108481342D02*
X111578571Y-108481342D01*
X112759523Y-108062295D02*
X112378571Y-108062295D01*
X112378571Y-108062295D02*
X112340475Y-108443247D01*
X112340475Y-108443247D02*
X112378571Y-108405152D01*
X112378571Y-108405152D02*
X112454761Y-108367057D01*
X112454761Y-108367057D02*
X112645237Y-108367057D01*
X112645237Y-108367057D02*
X112721428Y-108405152D01*
X112721428Y-108405152D02*
X112759523Y-108443247D01*
X112759523Y-108443247D02*
X112797618Y-108519438D01*
X112797618Y-108519438D02*
X112797618Y-108709914D01*
X112797618Y-108709914D02*
X112759523Y-108786104D01*
X112759523Y-108786104D02*
X112721428Y-108824200D01*
X112721428Y-108824200D02*
X112645237Y-108862295D01*
X112645237Y-108862295D02*
X112454761Y-108862295D01*
X112454761Y-108862295D02*
X112378571Y-108824200D01*
X112378571Y-108824200D02*
X112340475Y-108786104D01*
X113292857Y-108062295D02*
X113369047Y-108062295D01*
X113369047Y-108062295D02*
X113445238Y-108100390D01*
X113445238Y-108100390D02*
X113483333Y-108138485D01*
X113483333Y-108138485D02*
X113521428Y-108214676D01*
X113521428Y-108214676D02*
X113559523Y-108367057D01*
X113559523Y-108367057D02*
X113559523Y-108557533D01*
X113559523Y-108557533D02*
X113521428Y-108709914D01*
X113521428Y-108709914D02*
X113483333Y-108786104D01*
X113483333Y-108786104D02*
X113445238Y-108824200D01*
X113445238Y-108824200D02*
X113369047Y-108862295D01*
X113369047Y-108862295D02*
X113292857Y-108862295D01*
X113292857Y-108862295D02*
X113216666Y-108824200D01*
X113216666Y-108824200D02*
X113178571Y-108786104D01*
X113178571Y-108786104D02*
X113140476Y-108709914D01*
X113140476Y-108709914D02*
X113102380Y-108557533D01*
X113102380Y-108557533D02*
X113102380Y-108367057D01*
X113102380Y-108367057D02*
X113140476Y-108214676D01*
X113140476Y-108214676D02*
X113178571Y-108138485D01*
X113178571Y-108138485D02*
X113216666Y-108100390D01*
X113216666Y-108100390D02*
X113292857Y-108062295D01*
X123857319Y-111755083D02*
X124571604Y-111755083D01*
X124571604Y-111755083D02*
X124714461Y-111802702D01*
X124714461Y-111802702D02*
X124809700Y-111897940D01*
X124809700Y-111897940D02*
X124857319Y-112040797D01*
X124857319Y-112040797D02*
X124857319Y-112136035D01*
X123857319Y-110850321D02*
X123857319Y-111040797D01*
X123857319Y-111040797D02*
X123904938Y-111136035D01*
X123904938Y-111136035D02*
X123952557Y-111183654D01*
X123952557Y-111183654D02*
X124095414Y-111278892D01*
X124095414Y-111278892D02*
X124285890Y-111326511D01*
X124285890Y-111326511D02*
X124666842Y-111326511D01*
X124666842Y-111326511D02*
X124762080Y-111278892D01*
X124762080Y-111278892D02*
X124809700Y-111231273D01*
X124809700Y-111231273D02*
X124857319Y-111136035D01*
X124857319Y-111136035D02*
X124857319Y-110945559D01*
X124857319Y-110945559D02*
X124809700Y-110850321D01*
X124809700Y-110850321D02*
X124762080Y-110802702D01*
X124762080Y-110802702D02*
X124666842Y-110755083D01*
X124666842Y-110755083D02*
X124428747Y-110755083D01*
X124428747Y-110755083D02*
X124333509Y-110802702D01*
X124333509Y-110802702D02*
X124285890Y-110850321D01*
X124285890Y-110850321D02*
X124238271Y-110945559D01*
X124238271Y-110945559D02*
X124238271Y-111136035D01*
X124238271Y-111136035D02*
X124285890Y-111231273D01*
X124285890Y-111231273D02*
X124333509Y-111278892D01*
X124333509Y-111278892D02*
X124428747Y-111326511D01*
X98333333Y-87859580D02*
X98285714Y-87907200D01*
X98285714Y-87907200D02*
X98142857Y-87954819D01*
X98142857Y-87954819D02*
X98047619Y-87954819D01*
X98047619Y-87954819D02*
X97904762Y-87907200D01*
X97904762Y-87907200D02*
X97809524Y-87811961D01*
X97809524Y-87811961D02*
X97761905Y-87716723D01*
X97761905Y-87716723D02*
X97714286Y-87526247D01*
X97714286Y-87526247D02*
X97714286Y-87383390D01*
X97714286Y-87383390D02*
X97761905Y-87192914D01*
X97761905Y-87192914D02*
X97809524Y-87097676D01*
X97809524Y-87097676D02*
X97904762Y-87002438D01*
X97904762Y-87002438D02*
X98047619Y-86954819D01*
X98047619Y-86954819D02*
X98142857Y-86954819D01*
X98142857Y-86954819D02*
X98285714Y-87002438D01*
X98285714Y-87002438D02*
X98333333Y-87050057D01*
X99285714Y-87954819D02*
X98714286Y-87954819D01*
X99000000Y-87954819D02*
X99000000Y-86954819D01*
X99000000Y-86954819D02*
X98904762Y-87097676D01*
X98904762Y-87097676D02*
X98809524Y-87192914D01*
X98809524Y-87192914D02*
X98714286Y-87240533D01*
X101616667Y-107036104D02*
X101578571Y-107074200D01*
X101578571Y-107074200D02*
X101464286Y-107112295D01*
X101464286Y-107112295D02*
X101388095Y-107112295D01*
X101388095Y-107112295D02*
X101273809Y-107074200D01*
X101273809Y-107074200D02*
X101197619Y-106998009D01*
X101197619Y-106998009D02*
X101159524Y-106921819D01*
X101159524Y-106921819D02*
X101121428Y-106769438D01*
X101121428Y-106769438D02*
X101121428Y-106655152D01*
X101121428Y-106655152D02*
X101159524Y-106502771D01*
X101159524Y-106502771D02*
X101197619Y-106426580D01*
X101197619Y-106426580D02*
X101273809Y-106350390D01*
X101273809Y-106350390D02*
X101388095Y-106312295D01*
X101388095Y-106312295D02*
X101464286Y-106312295D01*
X101464286Y-106312295D02*
X101578571Y-106350390D01*
X101578571Y-106350390D02*
X101616667Y-106388485D01*
X102073809Y-106655152D02*
X101997619Y-106617057D01*
X101997619Y-106617057D02*
X101959524Y-106578961D01*
X101959524Y-106578961D02*
X101921428Y-106502771D01*
X101921428Y-106502771D02*
X101921428Y-106464676D01*
X101921428Y-106464676D02*
X101959524Y-106388485D01*
X101959524Y-106388485D02*
X101997619Y-106350390D01*
X101997619Y-106350390D02*
X102073809Y-106312295D01*
X102073809Y-106312295D02*
X102226190Y-106312295D01*
X102226190Y-106312295D02*
X102302381Y-106350390D01*
X102302381Y-106350390D02*
X102340476Y-106388485D01*
X102340476Y-106388485D02*
X102378571Y-106464676D01*
X102378571Y-106464676D02*
X102378571Y-106502771D01*
X102378571Y-106502771D02*
X102340476Y-106578961D01*
X102340476Y-106578961D02*
X102302381Y-106617057D01*
X102302381Y-106617057D02*
X102226190Y-106655152D01*
X102226190Y-106655152D02*
X102073809Y-106655152D01*
X102073809Y-106655152D02*
X101997619Y-106693247D01*
X101997619Y-106693247D02*
X101959524Y-106731342D01*
X101959524Y-106731342D02*
X101921428Y-106807533D01*
X101921428Y-106807533D02*
X101921428Y-106959914D01*
X101921428Y-106959914D02*
X101959524Y-107036104D01*
X101959524Y-107036104D02*
X101997619Y-107074200D01*
X101997619Y-107074200D02*
X102073809Y-107112295D01*
X102073809Y-107112295D02*
X102226190Y-107112295D01*
X102226190Y-107112295D02*
X102302381Y-107074200D01*
X102302381Y-107074200D02*
X102340476Y-107036104D01*
X102340476Y-107036104D02*
X102378571Y-106959914D01*
X102378571Y-106959914D02*
X102378571Y-106807533D01*
X102378571Y-106807533D02*
X102340476Y-106731342D01*
X102340476Y-106731342D02*
X102302381Y-106693247D01*
X102302381Y-106693247D02*
X102226190Y-106655152D01*
X88261905Y-101884819D02*
X88261905Y-100884819D01*
X88261905Y-100884819D02*
X88500000Y-100884819D01*
X88500000Y-100884819D02*
X88642857Y-100932438D01*
X88642857Y-100932438D02*
X88738095Y-101027676D01*
X88738095Y-101027676D02*
X88785714Y-101122914D01*
X88785714Y-101122914D02*
X88833333Y-101313390D01*
X88833333Y-101313390D02*
X88833333Y-101456247D01*
X88833333Y-101456247D02*
X88785714Y-101646723D01*
X88785714Y-101646723D02*
X88738095Y-101741961D01*
X88738095Y-101741961D02*
X88642857Y-101837200D01*
X88642857Y-101837200D02*
X88500000Y-101884819D01*
X88500000Y-101884819D02*
X88261905Y-101884819D01*
X89785714Y-101884819D02*
X89214286Y-101884819D01*
X89500000Y-101884819D02*
X89500000Y-100884819D01*
X89500000Y-100884819D02*
X89404762Y-101027676D01*
X89404762Y-101027676D02*
X89309524Y-101122914D01*
X89309524Y-101122914D02*
X89214286Y-101170533D01*
X101264819Y-112093333D02*
X101979104Y-112093333D01*
X101979104Y-112093333D02*
X102121961Y-112140952D01*
X102121961Y-112140952D02*
X102217200Y-112236190D01*
X102217200Y-112236190D02*
X102264819Y-112379047D01*
X102264819Y-112379047D02*
X102264819Y-112474285D01*
X101264819Y-111140952D02*
X101264819Y-111617142D01*
X101264819Y-111617142D02*
X101741009Y-111664761D01*
X101741009Y-111664761D02*
X101693390Y-111617142D01*
X101693390Y-111617142D02*
X101645771Y-111521904D01*
X101645771Y-111521904D02*
X101645771Y-111283809D01*
X101645771Y-111283809D02*
X101693390Y-111188571D01*
X101693390Y-111188571D02*
X101741009Y-111140952D01*
X101741009Y-111140952D02*
X101836247Y-111093333D01*
X101836247Y-111093333D02*
X102074342Y-111093333D01*
X102074342Y-111093333D02*
X102169580Y-111140952D01*
X102169580Y-111140952D02*
X102217200Y-111188571D01*
X102217200Y-111188571D02*
X102264819Y-111283809D01*
X102264819Y-111283809D02*
X102264819Y-111521904D01*
X102264819Y-111521904D02*
X102217200Y-111617142D01*
X102217200Y-111617142D02*
X102169580Y-111664761D01*
X103735714Y-109536104D02*
X103697618Y-109574200D01*
X103697618Y-109574200D02*
X103583333Y-109612295D01*
X103583333Y-109612295D02*
X103507142Y-109612295D01*
X103507142Y-109612295D02*
X103392856Y-109574200D01*
X103392856Y-109574200D02*
X103316666Y-109498009D01*
X103316666Y-109498009D02*
X103278571Y-109421819D01*
X103278571Y-109421819D02*
X103240475Y-109269438D01*
X103240475Y-109269438D02*
X103240475Y-109155152D01*
X103240475Y-109155152D02*
X103278571Y-109002771D01*
X103278571Y-109002771D02*
X103316666Y-108926580D01*
X103316666Y-108926580D02*
X103392856Y-108850390D01*
X103392856Y-108850390D02*
X103507142Y-108812295D01*
X103507142Y-108812295D02*
X103583333Y-108812295D01*
X103583333Y-108812295D02*
X103697618Y-108850390D01*
X103697618Y-108850390D02*
X103735714Y-108888485D01*
X104497618Y-109612295D02*
X104040475Y-109612295D01*
X104269047Y-109612295D02*
X104269047Y-108812295D01*
X104269047Y-108812295D02*
X104192856Y-108926580D01*
X104192856Y-108926580D02*
X104116666Y-109002771D01*
X104116666Y-109002771D02*
X104040475Y-109040866D01*
X105259523Y-109612295D02*
X104802380Y-109612295D01*
X105030952Y-109612295D02*
X105030952Y-108812295D01*
X105030952Y-108812295D02*
X104954761Y-108926580D01*
X104954761Y-108926580D02*
X104878571Y-109002771D01*
X104878571Y-109002771D02*
X104802380Y-109040866D01*
X77831666Y-118564819D02*
X77831666Y-119279104D01*
X77831666Y-119279104D02*
X77784047Y-119421961D01*
X77784047Y-119421961D02*
X77688809Y-119517200D01*
X77688809Y-119517200D02*
X77545952Y-119564819D01*
X77545952Y-119564819D02*
X77450714Y-119564819D01*
X78260238Y-118660057D02*
X78307857Y-118612438D01*
X78307857Y-118612438D02*
X78403095Y-118564819D01*
X78403095Y-118564819D02*
X78641190Y-118564819D01*
X78641190Y-118564819D02*
X78736428Y-118612438D01*
X78736428Y-118612438D02*
X78784047Y-118660057D01*
X78784047Y-118660057D02*
X78831666Y-118755295D01*
X78831666Y-118755295D02*
X78831666Y-118850533D01*
X78831666Y-118850533D02*
X78784047Y-118993390D01*
X78784047Y-118993390D02*
X78212619Y-119564819D01*
X78212619Y-119564819D02*
X78831666Y-119564819D01*
X95333333Y-87859580D02*
X95285714Y-87907200D01*
X95285714Y-87907200D02*
X95142857Y-87954819D01*
X95142857Y-87954819D02*
X95047619Y-87954819D01*
X95047619Y-87954819D02*
X94904762Y-87907200D01*
X94904762Y-87907200D02*
X94809524Y-87811961D01*
X94809524Y-87811961D02*
X94761905Y-87716723D01*
X94761905Y-87716723D02*
X94714286Y-87526247D01*
X94714286Y-87526247D02*
X94714286Y-87383390D01*
X94714286Y-87383390D02*
X94761905Y-87192914D01*
X94761905Y-87192914D02*
X94809524Y-87097676D01*
X94809524Y-87097676D02*
X94904762Y-87002438D01*
X94904762Y-87002438D02*
X95047619Y-86954819D01*
X95047619Y-86954819D02*
X95142857Y-86954819D01*
X95142857Y-86954819D02*
X95285714Y-87002438D01*
X95285714Y-87002438D02*
X95333333Y-87050057D01*
X95714286Y-87050057D02*
X95761905Y-87002438D01*
X95761905Y-87002438D02*
X95857143Y-86954819D01*
X95857143Y-86954819D02*
X96095238Y-86954819D01*
X96095238Y-86954819D02*
X96190476Y-87002438D01*
X96190476Y-87002438D02*
X96238095Y-87050057D01*
X96238095Y-87050057D02*
X96285714Y-87145295D01*
X96285714Y-87145295D02*
X96285714Y-87240533D01*
X96285714Y-87240533D02*
X96238095Y-87383390D01*
X96238095Y-87383390D02*
X95666667Y-87954819D01*
X95666667Y-87954819D02*
X96285714Y-87954819D01*
X95333333Y-98359580D02*
X95285714Y-98407200D01*
X95285714Y-98407200D02*
X95142857Y-98454819D01*
X95142857Y-98454819D02*
X95047619Y-98454819D01*
X95047619Y-98454819D02*
X94904762Y-98407200D01*
X94904762Y-98407200D02*
X94809524Y-98311961D01*
X94809524Y-98311961D02*
X94761905Y-98216723D01*
X94761905Y-98216723D02*
X94714286Y-98026247D01*
X94714286Y-98026247D02*
X94714286Y-97883390D01*
X94714286Y-97883390D02*
X94761905Y-97692914D01*
X94761905Y-97692914D02*
X94809524Y-97597676D01*
X94809524Y-97597676D02*
X94904762Y-97502438D01*
X94904762Y-97502438D02*
X95047619Y-97454819D01*
X95047619Y-97454819D02*
X95142857Y-97454819D01*
X95142857Y-97454819D02*
X95285714Y-97502438D01*
X95285714Y-97502438D02*
X95333333Y-97550057D01*
X96190476Y-97788152D02*
X96190476Y-98454819D01*
X95952381Y-97407200D02*
X95714286Y-98121485D01*
X95714286Y-98121485D02*
X96333333Y-98121485D01*
X101616667Y-105786104D02*
X101578571Y-105824200D01*
X101578571Y-105824200D02*
X101464286Y-105862295D01*
X101464286Y-105862295D02*
X101388095Y-105862295D01*
X101388095Y-105862295D02*
X101273809Y-105824200D01*
X101273809Y-105824200D02*
X101197619Y-105748009D01*
X101197619Y-105748009D02*
X101159524Y-105671819D01*
X101159524Y-105671819D02*
X101121428Y-105519438D01*
X101121428Y-105519438D02*
X101121428Y-105405152D01*
X101121428Y-105405152D02*
X101159524Y-105252771D01*
X101159524Y-105252771D02*
X101197619Y-105176580D01*
X101197619Y-105176580D02*
X101273809Y-105100390D01*
X101273809Y-105100390D02*
X101388095Y-105062295D01*
X101388095Y-105062295D02*
X101464286Y-105062295D01*
X101464286Y-105062295D02*
X101578571Y-105100390D01*
X101578571Y-105100390D02*
X101616667Y-105138485D01*
X102302381Y-105062295D02*
X102150000Y-105062295D01*
X102150000Y-105062295D02*
X102073809Y-105100390D01*
X102073809Y-105100390D02*
X102035714Y-105138485D01*
X102035714Y-105138485D02*
X101959524Y-105252771D01*
X101959524Y-105252771D02*
X101921428Y-105405152D01*
X101921428Y-105405152D02*
X101921428Y-105709914D01*
X101921428Y-105709914D02*
X101959524Y-105786104D01*
X101959524Y-105786104D02*
X101997619Y-105824200D01*
X101997619Y-105824200D02*
X102073809Y-105862295D01*
X102073809Y-105862295D02*
X102226190Y-105862295D01*
X102226190Y-105862295D02*
X102302381Y-105824200D01*
X102302381Y-105824200D02*
X102340476Y-105786104D01*
X102340476Y-105786104D02*
X102378571Y-105709914D01*
X102378571Y-105709914D02*
X102378571Y-105519438D01*
X102378571Y-105519438D02*
X102340476Y-105443247D01*
X102340476Y-105443247D02*
X102302381Y-105405152D01*
X102302381Y-105405152D02*
X102226190Y-105367057D01*
X102226190Y-105367057D02*
X102073809Y-105367057D01*
X102073809Y-105367057D02*
X101997619Y-105405152D01*
X101997619Y-105405152D02*
X101959524Y-105443247D01*
X101959524Y-105443247D02*
X101921428Y-105519438D01*
X88357142Y-97024819D02*
X88023809Y-96548628D01*
X87785714Y-97024819D02*
X87785714Y-96024819D01*
X87785714Y-96024819D02*
X88166666Y-96024819D01*
X88166666Y-96024819D02*
X88261904Y-96072438D01*
X88261904Y-96072438D02*
X88309523Y-96120057D01*
X88309523Y-96120057D02*
X88357142Y-96215295D01*
X88357142Y-96215295D02*
X88357142Y-96358152D01*
X88357142Y-96358152D02*
X88309523Y-96453390D01*
X88309523Y-96453390D02*
X88261904Y-96501009D01*
X88261904Y-96501009D02*
X88166666Y-96548628D01*
X88166666Y-96548628D02*
X87785714Y-96548628D01*
X89261904Y-96024819D02*
X88785714Y-96024819D01*
X88785714Y-96024819D02*
X88738095Y-96501009D01*
X88738095Y-96501009D02*
X88785714Y-96453390D01*
X88785714Y-96453390D02*
X88880952Y-96405771D01*
X88880952Y-96405771D02*
X89119047Y-96405771D01*
X89119047Y-96405771D02*
X89214285Y-96453390D01*
X89214285Y-96453390D02*
X89261904Y-96501009D01*
X89261904Y-96501009D02*
X89309523Y-96596247D01*
X89309523Y-96596247D02*
X89309523Y-96834342D01*
X89309523Y-96834342D02*
X89261904Y-96929580D01*
X89261904Y-96929580D02*
X89214285Y-96977200D01*
X89214285Y-96977200D02*
X89119047Y-97024819D01*
X89119047Y-97024819D02*
X88880952Y-97024819D01*
X88880952Y-97024819D02*
X88785714Y-96977200D01*
X88785714Y-96977200D02*
X88738095Y-96929580D01*
X89642857Y-96024819D02*
X90309523Y-96024819D01*
X90309523Y-96024819D02*
X89880952Y-97024819D01*
X103735714Y-108362295D02*
X103469047Y-107981342D01*
X103278571Y-108362295D02*
X103278571Y-107562295D01*
X103278571Y-107562295D02*
X103583333Y-107562295D01*
X103583333Y-107562295D02*
X103659523Y-107600390D01*
X103659523Y-107600390D02*
X103697618Y-107638485D01*
X103697618Y-107638485D02*
X103735714Y-107714676D01*
X103735714Y-107714676D02*
X103735714Y-107828961D01*
X103735714Y-107828961D02*
X103697618Y-107905152D01*
X103697618Y-107905152D02*
X103659523Y-107943247D01*
X103659523Y-107943247D02*
X103583333Y-107981342D01*
X103583333Y-107981342D02*
X103278571Y-107981342D01*
X104459523Y-107562295D02*
X104078571Y-107562295D01*
X104078571Y-107562295D02*
X104040475Y-107943247D01*
X104040475Y-107943247D02*
X104078571Y-107905152D01*
X104078571Y-107905152D02*
X104154761Y-107867057D01*
X104154761Y-107867057D02*
X104345237Y-107867057D01*
X104345237Y-107867057D02*
X104421428Y-107905152D01*
X104421428Y-107905152D02*
X104459523Y-107943247D01*
X104459523Y-107943247D02*
X104497618Y-108019438D01*
X104497618Y-108019438D02*
X104497618Y-108209914D01*
X104497618Y-108209914D02*
X104459523Y-108286104D01*
X104459523Y-108286104D02*
X104421428Y-108324200D01*
X104421428Y-108324200D02*
X104345237Y-108362295D01*
X104345237Y-108362295D02*
X104154761Y-108362295D01*
X104154761Y-108362295D02*
X104078571Y-108324200D01*
X104078571Y-108324200D02*
X104040475Y-108286104D01*
X105183333Y-107828961D02*
X105183333Y-108362295D01*
X104992857Y-107524200D02*
X104802380Y-108095628D01*
X104802380Y-108095628D02*
X105297619Y-108095628D01*
D13*
%TO.C,C13*%
X110261252Y-80985000D02*
X109738748Y-80985000D01*
X110261252Y-79515000D02*
X109738748Y-79515000D01*
%TO.C,C12*%
X110261252Y-84985000D02*
X109738748Y-84985000D01*
X110261252Y-83515000D02*
X109738748Y-83515000D01*
%TO.C,R53*%
X98987258Y-107977500D02*
X98512742Y-107977500D01*
X98987258Y-109022500D02*
X98512742Y-109022500D01*
%TO.C,R29*%
X110195000Y-104053641D02*
X110195000Y-103746359D01*
X110955000Y-104053641D02*
X110955000Y-103746359D01*
%TO.C,R22*%
X109021359Y-102095000D02*
X109328641Y-102095000D01*
X109021359Y-102855000D02*
X109328641Y-102855000D01*
%TO.C,R49*%
X110146359Y-107120000D02*
X110453641Y-107120000D01*
X110146359Y-107880000D02*
X110453641Y-107880000D01*
D14*
%TO.C,J3*%
X116380000Y-75820000D02*
X122380000Y-75820000D01*
X116380000Y-79850000D02*
X116380000Y-75820000D01*
X116380000Y-81990000D02*
X116380000Y-86850000D01*
X116380000Y-89820000D02*
X116380000Y-88990000D01*
X122380000Y-75820000D02*
X122380000Y-81850000D01*
X122380000Y-83990000D02*
X122380000Y-89820000D01*
X122380000Y-89820000D02*
X116380000Y-89820000D01*
D15*
X112980000Y-80920000D02*
G75*
G02*
X112780000Y-80920000I-100000J0D01*
G01*
X112780000Y-80920000D02*
G75*
G02*
X112980000Y-80920000I100000J0D01*
G01*
D13*
%TO.C,C5*%
X79725225Y-97585000D02*
X80225225Y-97585000D01*
X79975225Y-97335000D02*
X79975225Y-97835000D01*
X82530000Y-96480000D02*
X82530000Y-101640000D01*
X82570000Y-96480000D02*
X82570000Y-101640000D01*
X82610000Y-96481000D02*
X82610000Y-101639000D01*
X82650000Y-96482000D02*
X82650000Y-101638000D01*
X82690000Y-96484000D02*
X82690000Y-101636000D01*
X82730000Y-96487000D02*
X82730000Y-101633000D01*
X82770000Y-96491000D02*
X82770000Y-98020000D01*
X82770000Y-100100000D02*
X82770000Y-101629000D01*
X82810000Y-96495000D02*
X82810000Y-98020000D01*
X82810000Y-100100000D02*
X82810000Y-101625000D01*
X82850000Y-96499000D02*
X82850000Y-98020000D01*
X82850000Y-100100000D02*
X82850000Y-101621000D01*
X82890000Y-96504000D02*
X82890000Y-98020000D01*
X82890000Y-100100000D02*
X82890000Y-101616000D01*
X82930000Y-96510000D02*
X82930000Y-98020000D01*
X82930000Y-100100000D02*
X82930000Y-101610000D01*
X82970000Y-96517000D02*
X82970000Y-98020000D01*
X82970000Y-100100000D02*
X82970000Y-101603000D01*
X83010000Y-96524000D02*
X83010000Y-98020000D01*
X83010000Y-100100000D02*
X83010000Y-101596000D01*
X83050000Y-96532000D02*
X83050000Y-98020000D01*
X83050000Y-100100000D02*
X83050000Y-101588000D01*
X83090000Y-96540000D02*
X83090000Y-98020000D01*
X83090000Y-100100000D02*
X83090000Y-101580000D01*
X83130000Y-96549000D02*
X83130000Y-98020000D01*
X83130000Y-100100000D02*
X83130000Y-101571000D01*
X83170000Y-96559000D02*
X83170000Y-98020000D01*
X83170000Y-100100000D02*
X83170000Y-101561000D01*
X83210000Y-96569000D02*
X83210000Y-98020000D01*
X83210000Y-100100000D02*
X83210000Y-101551000D01*
X83251000Y-96580000D02*
X83251000Y-98020000D01*
X83251000Y-100100000D02*
X83251000Y-101540000D01*
X83291000Y-96592000D02*
X83291000Y-98020000D01*
X83291000Y-100100000D02*
X83291000Y-101528000D01*
X83331000Y-96605000D02*
X83331000Y-98020000D01*
X83331000Y-100100000D02*
X83331000Y-101515000D01*
X83371000Y-96618000D02*
X83371000Y-98020000D01*
X83371000Y-100100000D02*
X83371000Y-101502000D01*
X83411000Y-96632000D02*
X83411000Y-98020000D01*
X83411000Y-100100000D02*
X83411000Y-101488000D01*
X83451000Y-96646000D02*
X83451000Y-98020000D01*
X83451000Y-100100000D02*
X83451000Y-101474000D01*
X83491000Y-96662000D02*
X83491000Y-98020000D01*
X83491000Y-100100000D02*
X83491000Y-101458000D01*
X83531000Y-96678000D02*
X83531000Y-98020000D01*
X83531000Y-100100000D02*
X83531000Y-101442000D01*
X83571000Y-96695000D02*
X83571000Y-98020000D01*
X83571000Y-100100000D02*
X83571000Y-101425000D01*
X83611000Y-96712000D02*
X83611000Y-98020000D01*
X83611000Y-100100000D02*
X83611000Y-101408000D01*
X83651000Y-96731000D02*
X83651000Y-98020000D01*
X83651000Y-100100000D02*
X83651000Y-101389000D01*
X83691000Y-96750000D02*
X83691000Y-98020000D01*
X83691000Y-100100000D02*
X83691000Y-101370000D01*
X83731000Y-96770000D02*
X83731000Y-98020000D01*
X83731000Y-100100000D02*
X83731000Y-101350000D01*
X83771000Y-96792000D02*
X83771000Y-98020000D01*
X83771000Y-100100000D02*
X83771000Y-101328000D01*
X83811000Y-96813000D02*
X83811000Y-98020000D01*
X83811000Y-100100000D02*
X83811000Y-101307000D01*
X83851000Y-96836000D02*
X83851000Y-98020000D01*
X83851000Y-100100000D02*
X83851000Y-101284000D01*
X83891000Y-96860000D02*
X83891000Y-98020000D01*
X83891000Y-100100000D02*
X83891000Y-101260000D01*
X83931000Y-96885000D02*
X83931000Y-98020000D01*
X83931000Y-100100000D02*
X83931000Y-101235000D01*
X83971000Y-96911000D02*
X83971000Y-98020000D01*
X83971000Y-100100000D02*
X83971000Y-101209000D01*
X84011000Y-96938000D02*
X84011000Y-98020000D01*
X84011000Y-100100000D02*
X84011000Y-101182000D01*
X84051000Y-96965000D02*
X84051000Y-98020000D01*
X84051000Y-100100000D02*
X84051000Y-101155000D01*
X84091000Y-96995000D02*
X84091000Y-98020000D01*
X84091000Y-100100000D02*
X84091000Y-101125000D01*
X84131000Y-97025000D02*
X84131000Y-98020000D01*
X84131000Y-100100000D02*
X84131000Y-101095000D01*
X84171000Y-97056000D02*
X84171000Y-98020000D01*
X84171000Y-100100000D02*
X84171000Y-101064000D01*
X84211000Y-97089000D02*
X84211000Y-98020000D01*
X84211000Y-100100000D02*
X84211000Y-101031000D01*
X84251000Y-97123000D02*
X84251000Y-98020000D01*
X84251000Y-100100000D02*
X84251000Y-100997000D01*
X84291000Y-97159000D02*
X84291000Y-98020000D01*
X84291000Y-100100000D02*
X84291000Y-100961000D01*
X84331000Y-97196000D02*
X84331000Y-98020000D01*
X84331000Y-100100000D02*
X84331000Y-100924000D01*
X84371000Y-97234000D02*
X84371000Y-98020000D01*
X84371000Y-100100000D02*
X84371000Y-100886000D01*
X84411000Y-97275000D02*
X84411000Y-98020000D01*
X84411000Y-100100000D02*
X84411000Y-100845000D01*
X84451000Y-97317000D02*
X84451000Y-98020000D01*
X84451000Y-100100000D02*
X84451000Y-100803000D01*
X84491000Y-97361000D02*
X84491000Y-98020000D01*
X84491000Y-100100000D02*
X84491000Y-100759000D01*
X84531000Y-97407000D02*
X84531000Y-98020000D01*
X84531000Y-100100000D02*
X84531000Y-100713000D01*
X84571000Y-97455000D02*
X84571000Y-98020000D01*
X84571000Y-100100000D02*
X84571000Y-100665000D01*
X84611000Y-97506000D02*
X84611000Y-98020000D01*
X84611000Y-100100000D02*
X84611000Y-100614000D01*
X84651000Y-97560000D02*
X84651000Y-98020000D01*
X84651000Y-100100000D02*
X84651000Y-100560000D01*
X84691000Y-97617000D02*
X84691000Y-98020000D01*
X84691000Y-100100000D02*
X84691000Y-100503000D01*
X84731000Y-97677000D02*
X84731000Y-98020000D01*
X84731000Y-100100000D02*
X84731000Y-100443000D01*
X84771000Y-97741000D02*
X84771000Y-98020000D01*
X84771000Y-100100000D02*
X84771000Y-100379000D01*
X84811000Y-97809000D02*
X84811000Y-98020000D01*
X84811000Y-100100000D02*
X84811000Y-100311000D01*
X84851000Y-97882000D02*
X84851000Y-100238000D01*
X84891000Y-97962000D02*
X84891000Y-100158000D01*
X84931000Y-98049000D02*
X84931000Y-100071000D01*
X84971000Y-98145000D02*
X84971000Y-99975000D01*
X85011000Y-98255000D02*
X85011000Y-99865000D01*
X85051000Y-98383000D02*
X85051000Y-99737000D01*
X85091000Y-98542000D02*
X85091000Y-99578000D01*
X85131000Y-98776000D02*
X85131000Y-99344000D01*
X85150000Y-99060000D02*
G75*
G02*
X79910000Y-99060000I-2620000J0D01*
G01*
X79910000Y-99060000D02*
G75*
G02*
X85150000Y-99060000I2620000J0D01*
G01*
%TO.C,R14*%
X105170000Y-93003641D02*
X105170000Y-92696359D01*
X105930000Y-93003641D02*
X105930000Y-92696359D01*
%TO.C,R47*%
X104220000Y-102503641D02*
X104220000Y-102196359D01*
X104980000Y-102503641D02*
X104980000Y-102196359D01*
%TO.C,C10*%
X94390580Y-114990000D02*
X94109420Y-114990000D01*
X94390580Y-116010000D02*
X94109420Y-116010000D01*
D16*
%TO.C,PIEZO1*%
X120650000Y-97790000D02*
G75*
G02*
X118110000Y-97790000I-1270000J0D01*
G01*
X118110000Y-97790000D02*
G75*
G02*
X120650000Y-97790000I1270000J0D01*
G01*
X126380000Y-97790000D02*
G75*
G02*
X112380000Y-97790000I-7000000J0D01*
G01*
X112380000Y-97790000D02*
G75*
G02*
X126380000Y-97790000I7000000J0D01*
G01*
D13*
%TO.C,J1*%
X71180000Y-80900000D02*
X77180000Y-80900000D01*
X71180000Y-81660000D02*
X71180000Y-80900000D01*
X71180000Y-83440000D02*
X77180000Y-83440000D01*
X71180000Y-84200000D02*
X71180000Y-83440000D01*
X71180000Y-85980000D02*
X77180000Y-85980000D01*
X71180000Y-86740000D02*
X71180000Y-85980000D01*
X71180000Y-88520000D02*
X77180000Y-88520000D01*
X71180000Y-89280000D02*
X71180000Y-88520000D01*
X71180000Y-91060000D02*
X77180000Y-91060000D01*
X71180000Y-91820000D02*
X71180000Y-91060000D01*
X71180000Y-93600000D02*
X77180000Y-93600000D01*
X71180000Y-94360000D02*
X71180000Y-93600000D01*
X77180000Y-79950000D02*
X77180000Y-95310000D01*
X77180000Y-81660000D02*
X71180000Y-81660000D01*
X77180000Y-84200000D02*
X71180000Y-84200000D01*
X77180000Y-86740000D02*
X71180000Y-86740000D01*
X77180000Y-89280000D02*
X71180000Y-89280000D01*
X77180000Y-91820000D02*
X71180000Y-91820000D01*
X77180000Y-93700000D02*
X71180000Y-93700000D01*
X77180000Y-93820000D02*
X71180000Y-93820000D01*
X77180000Y-93940000D02*
X71180000Y-93940000D01*
X77180000Y-94060000D02*
X71180000Y-94060000D01*
X77180000Y-94180000D02*
X71180000Y-94180000D01*
X77180000Y-94300000D02*
X71180000Y-94300000D01*
X77180000Y-94360000D02*
X71180000Y-94360000D01*
X77180000Y-95310000D02*
X79840000Y-95310000D01*
X79840000Y-79950000D02*
X77180000Y-79950000D01*
X79840000Y-82550000D02*
X77180000Y-82550000D01*
X79840000Y-85090000D02*
X77180000Y-85090000D01*
X79840000Y-87630000D02*
X77180000Y-87630000D01*
X79840000Y-90170000D02*
X77180000Y-90170000D01*
X79840000Y-92710000D02*
X77180000Y-92710000D01*
X79840000Y-95310000D02*
X79840000Y-79950000D01*
X80237071Y-80900000D02*
X79840000Y-80900000D01*
X80237071Y-81660000D02*
X79840000Y-81660000D01*
X80237071Y-83440000D02*
X79840000Y-83440000D01*
X80237071Y-84200000D02*
X79840000Y-84200000D01*
X80237071Y-85980000D02*
X79840000Y-85980000D01*
X80237071Y-86740000D02*
X79840000Y-86740000D01*
X80237071Y-88520000D02*
X79840000Y-88520000D01*
X80237071Y-89280000D02*
X79840000Y-89280000D01*
X80237071Y-91060000D02*
X79840000Y-91060000D01*
X80237071Y-91820000D02*
X79840000Y-91820000D01*
X80237071Y-93600000D02*
X79840000Y-93600000D01*
X80237071Y-94360000D02*
X79840000Y-94360000D01*
X82710000Y-93600000D02*
X82322929Y-93600000D01*
X82710000Y-94360000D02*
X82322929Y-94360000D01*
X82777071Y-80900000D02*
X82322929Y-80900000D01*
X82777071Y-81660000D02*
X82322929Y-81660000D01*
X82777071Y-83440000D02*
X82322929Y-83440000D01*
X82777071Y-84200000D02*
X82322929Y-84200000D01*
X82777071Y-85980000D02*
X82322929Y-85980000D01*
X82777071Y-86740000D02*
X82322929Y-86740000D01*
X82777071Y-88520000D02*
X82322929Y-88520000D01*
X82777071Y-89280000D02*
X82322929Y-89280000D01*
X82777071Y-91060000D02*
X82322929Y-91060000D01*
X82777071Y-91820000D02*
X82322929Y-91820000D01*
X85090000Y-93980000D02*
X85090000Y-95250000D01*
X85090000Y-95250000D02*
X83820000Y-95250000D01*
D14*
%TO.C,RV1*%
X92700000Y-79530000D02*
X99300000Y-79530000D01*
X92700000Y-81695000D02*
X92700000Y-79530000D01*
X92700000Y-86520000D02*
X92700000Y-84235000D01*
X99300000Y-79530000D02*
X99300000Y-81695000D01*
X99300000Y-84235000D02*
X99300000Y-86520000D01*
X99300000Y-86530000D02*
X92700000Y-86530000D01*
D15*
X92036000Y-83000000D02*
G75*
G02*
X91836000Y-83000000I-100000J0D01*
G01*
X91836000Y-83000000D02*
G75*
G02*
X92036000Y-83000000I100000J0D01*
G01*
D13*
%TO.C,R56*%
X110237258Y-81727500D02*
X109762742Y-81727500D01*
X110237258Y-82772500D02*
X109762742Y-82772500D01*
%TO.C,R38*%
X103046359Y-98645000D02*
X103353641Y-98645000D01*
X103046359Y-99405000D02*
X103353641Y-99405000D01*
%TO.C,R7*%
X103046359Y-91995000D02*
X103353641Y-91995000D01*
X103046359Y-92755000D02*
X103353641Y-92755000D01*
%TO.C,C7*%
X98890580Y-109740000D02*
X98609420Y-109740000D01*
X98890580Y-110760000D02*
X98609420Y-110760000D01*
%TO.C,R52*%
X94487258Y-113227500D02*
X94012742Y-113227500D01*
X94487258Y-114272500D02*
X94012742Y-114272500D01*
%TO.C,R18*%
X111145000Y-99946359D02*
X111145000Y-100253641D01*
X111905000Y-99946359D02*
X111905000Y-100253641D01*
%TO.C,R21*%
X109021359Y-101145000D02*
X109328641Y-101145000D01*
X109021359Y-101905000D02*
X109328641Y-101905000D01*
%TO.C,R35*%
X103046359Y-95795000D02*
X103353641Y-95795000D01*
X103046359Y-96555000D02*
X103353641Y-96555000D01*
%TO.C,U2*%
X96500000Y-100615000D02*
X94300000Y-100615000D01*
X96500000Y-100615000D02*
X98700000Y-100615000D01*
X96500000Y-107385000D02*
X94300000Y-107385000D01*
X96500000Y-107385000D02*
X98700000Y-107385000D01*
X92640000Y-101075000D02*
X92310000Y-101315000D01*
X92310000Y-100835000D01*
X92640000Y-101075000D01*
G36*
X92640000Y-101075000D02*
G01*
X92310000Y-101315000D01*
X92310000Y-100835000D01*
X92640000Y-101075000D01*
G37*
D14*
%TO.C,RV2*%
X100950000Y-79530000D02*
X107550000Y-79530000D01*
X100950000Y-81695000D02*
X100950000Y-79530000D01*
X100950000Y-86520000D02*
X100950000Y-84235000D01*
X107550000Y-79530000D02*
X107550000Y-81695000D01*
X107550000Y-84235000D02*
X107550000Y-86520000D01*
X107550000Y-86530000D02*
X100950000Y-86530000D01*
D15*
X100286000Y-83000000D02*
G75*
G02*
X100086000Y-83000000I-100000J0D01*
G01*
X100086000Y-83000000D02*
G75*
G02*
X100286000Y-83000000I100000J0D01*
G01*
D13*
%TO.C,R31*%
X110195000Y-105953641D02*
X110195000Y-105646359D01*
X110955000Y-105953641D02*
X110955000Y-105646359D01*
%TO.C,R12*%
X105170000Y-91103641D02*
X105170000Y-90796359D01*
X105930000Y-91103641D02*
X105930000Y-90796359D01*
%TO.C,C3*%
X98359420Y-98990000D02*
X98640580Y-98990000D01*
X98359420Y-100010000D02*
X98640580Y-100010000D01*
%TO.C,R41*%
X103046359Y-101495000D02*
X103353641Y-101495000D01*
X103046359Y-102255000D02*
X103353641Y-102255000D01*
%TO.C,R23*%
X109021359Y-103045000D02*
X109328641Y-103045000D01*
X109021359Y-103805000D02*
X109328641Y-103805000D01*
%TO.C,R55*%
X110237258Y-85727500D02*
X109762742Y-85727500D01*
X110237258Y-86772500D02*
X109762742Y-86772500D01*
%TO.C,R39*%
X103046359Y-99595000D02*
X103353641Y-99595000D01*
X103046359Y-100355000D02*
X103353641Y-100355000D01*
%TO.C,R20*%
X109021359Y-100195000D02*
X109328641Y-100195000D01*
X109021359Y-100955000D02*
X109328641Y-100955000D01*
%TO.C,R44*%
X105170000Y-98703641D02*
X105170000Y-98396359D01*
X105930000Y-98703641D02*
X105930000Y-98396359D01*
%TO.C,R46*%
X105170000Y-100603641D02*
X105170000Y-100296359D01*
X105930000Y-100603641D02*
X105930000Y-100296359D01*
%TO.C,R6*%
X103046359Y-91045000D02*
X103353641Y-91045000D01*
X103046359Y-91805000D02*
X103353641Y-91805000D01*
%TO.C,R4*%
X103046359Y-89145000D02*
X103353641Y-89145000D01*
X103046359Y-89905000D02*
X103353641Y-89905000D01*
%TO.C,J4*%
X102810000Y-118170000D02*
X102810000Y-116840000D01*
X104140000Y-118170000D02*
X102810000Y-118170000D01*
X105410000Y-115510000D02*
X110550000Y-115510000D01*
X105410000Y-118170000D02*
X105410000Y-115510000D01*
X105410000Y-118170000D02*
X110550000Y-118170000D01*
X110550000Y-118170000D02*
X110550000Y-115510000D01*
%TO.C,U1*%
X96500000Y-90115000D02*
X94300000Y-90115000D01*
X96500000Y-90115000D02*
X98700000Y-90115000D01*
X96500000Y-96885000D02*
X94300000Y-96885000D01*
X96500000Y-96885000D02*
X98700000Y-96885000D01*
X92640000Y-90575000D02*
X92310000Y-90815000D01*
X92310000Y-90335000D01*
X92640000Y-90575000D01*
G36*
X92640000Y-90575000D02*
G01*
X92310000Y-90815000D01*
X92310000Y-90335000D01*
X92640000Y-90575000D01*
G37*
%TO.C,R34*%
X105170000Y-96496359D02*
X105170000Y-96803641D01*
X105930000Y-96496359D02*
X105930000Y-96803641D01*
%TO.C,R19*%
X109021359Y-99245000D02*
X109328641Y-99245000D01*
X109021359Y-100005000D02*
X109328641Y-100005000D01*
%TO.C,R11*%
X104220000Y-91103641D02*
X104220000Y-90796359D01*
X104980000Y-91103641D02*
X104980000Y-90796359D01*
%TO.C,R25*%
X109021359Y-104945000D02*
X109328641Y-104945000D01*
X109021359Y-105705000D02*
X109328641Y-105705000D01*
%TO.C,C9*%
X98890580Y-111490000D02*
X98609420Y-111490000D01*
X98890580Y-112510000D02*
X98609420Y-112510000D01*
%TO.C,R51*%
X94012742Y-107977500D02*
X94487258Y-107977500D01*
X94012742Y-109022500D02*
X94487258Y-109022500D01*
%TO.C,R27*%
X110195000Y-102153641D02*
X110195000Y-101846359D01*
X110955000Y-102153641D02*
X110955000Y-101846359D01*
%TO.C,R8*%
X103046359Y-92945000D02*
X103353641Y-92945000D01*
X103046359Y-93705000D02*
X103353641Y-93705000D01*
%TO.C,R5*%
X103046359Y-90095000D02*
X103353641Y-90095000D01*
X103046359Y-90855000D02*
X103353641Y-90855000D01*
D16*
%TO.C,PIEZO2*%
X120650000Y-113030000D02*
G75*
G02*
X118110000Y-113030000I-1270000J0D01*
G01*
X118110000Y-113030000D02*
G75*
G02*
X120650000Y-113030000I1270000J0D01*
G01*
X126380000Y-113030000D02*
G75*
G02*
X112380000Y-113030000I-7000000J0D01*
G01*
X112380000Y-113030000D02*
G75*
G02*
X126380000Y-113030000I7000000J0D01*
G01*
D13*
%TO.C,R16*%
X105170000Y-94903641D02*
X105170000Y-94596359D01*
X105930000Y-94903641D02*
X105930000Y-94596359D01*
%TO.C,R15*%
X104220000Y-94903641D02*
X104220000Y-94596359D01*
X104980000Y-94903641D02*
X104980000Y-94596359D01*
%TO.C,R50*%
X110146359Y-108120000D02*
X110453641Y-108120000D01*
X110146359Y-108880000D02*
X110453641Y-108880000D01*
D14*
%TO.C,J6*%
X127437500Y-83536750D02*
X142967500Y-83536750D01*
X127437500Y-114346750D02*
X127437500Y-83536750D01*
X142967500Y-83536750D02*
X142967500Y-114346750D01*
X142967500Y-114346750D02*
X127437500Y-114346750D01*
D15*
X126887500Y-94636750D02*
G75*
G02*
X126687500Y-94636750I-100000J0D01*
G01*
X126687500Y-94636750D02*
G75*
G02*
X126887500Y-94636750I100000J0D01*
G01*
D13*
%TO.C,C1*%
X98359420Y-88490000D02*
X98640580Y-88490000D01*
X98359420Y-89510000D02*
X98640580Y-89510000D01*
%TO.C,C8*%
X94109420Y-111490000D02*
X94390580Y-111490000D01*
X94109420Y-112510000D02*
X94390580Y-112510000D01*
%TO.C,R43*%
X104220000Y-98703641D02*
X104220000Y-98396359D01*
X104980000Y-98703641D02*
X104980000Y-98396359D01*
%TO.C,R17*%
X110195000Y-99946359D02*
X110195000Y-100253641D01*
X110955000Y-99946359D02*
X110955000Y-100253641D01*
%TO.C,R1*%
X104220000Y-88896359D02*
X104220000Y-89203641D01*
X104980000Y-88896359D02*
X104980000Y-89203641D01*
%TO.C,D1*%
X88200000Y-100735000D02*
X90485000Y-100735000D01*
X90485000Y-99265000D02*
X88200000Y-99265000D01*
X90485000Y-100735000D02*
X90485000Y-99265000D01*
%TO.C,J5*%
X102810000Y-113090000D02*
X102810000Y-111760000D01*
X104140000Y-113090000D02*
X102810000Y-113090000D01*
X105410000Y-110430000D02*
X110550000Y-110430000D01*
X105410000Y-113090000D02*
X105410000Y-110430000D01*
X105410000Y-113090000D02*
X110550000Y-113090000D01*
X110550000Y-113090000D02*
X110550000Y-110430000D01*
%TO.C,R28*%
X111145000Y-102153641D02*
X111145000Y-101846359D01*
X111905000Y-102153641D02*
X111905000Y-101846359D01*
%TO.C,C11*%
X98609420Y-114990000D02*
X98890580Y-114990000D01*
X98609420Y-116010000D02*
X98890580Y-116010000D01*
%TO.C,J2*%
X71180000Y-103760000D02*
X77180000Y-103760000D01*
X71180000Y-104520000D02*
X71180000Y-103760000D01*
X71180000Y-106300000D02*
X77180000Y-106300000D01*
X71180000Y-107060000D02*
X71180000Y-106300000D01*
X71180000Y-108840000D02*
X77180000Y-108840000D01*
X71180000Y-109600000D02*
X71180000Y-108840000D01*
X71180000Y-111380000D02*
X77180000Y-111380000D01*
X71180000Y-112140000D02*
X71180000Y-111380000D01*
X71180000Y-113920000D02*
X77180000Y-113920000D01*
X71180000Y-114680000D02*
X71180000Y-113920000D01*
X71180000Y-116460000D02*
X77180000Y-116460000D01*
X71180000Y-117220000D02*
X71180000Y-116460000D01*
X77180000Y-102810000D02*
X77180000Y-118170000D01*
X77180000Y-104520000D02*
X71180000Y-104520000D01*
X77180000Y-107060000D02*
X71180000Y-107060000D01*
X77180000Y-109600000D02*
X71180000Y-109600000D01*
X77180000Y-112140000D02*
X71180000Y-112140000D01*
X77180000Y-114680000D02*
X71180000Y-114680000D01*
X77180000Y-116560000D02*
X71180000Y-116560000D01*
X77180000Y-116680000D02*
X71180000Y-116680000D01*
X77180000Y-116800000D02*
X71180000Y-116800000D01*
X77180000Y-116920000D02*
X71180000Y-116920000D01*
X77180000Y-117040000D02*
X71180000Y-117040000D01*
X77180000Y-117160000D02*
X71180000Y-117160000D01*
X77180000Y-117220000D02*
X71180000Y-117220000D01*
X77180000Y-118170000D02*
X79840000Y-118170000D01*
X79840000Y-102810000D02*
X77180000Y-102810000D01*
X79840000Y-105410000D02*
X77180000Y-105410000D01*
X79840000Y-107950000D02*
X77180000Y-107950000D01*
X79840000Y-110490000D02*
X77180000Y-110490000D01*
X79840000Y-113030000D02*
X77180000Y-113030000D01*
X79840000Y-115570000D02*
X77180000Y-115570000D01*
X79840000Y-118170000D02*
X79840000Y-102810000D01*
X80237071Y-103760000D02*
X79840000Y-103760000D01*
X80237071Y-104520000D02*
X79840000Y-104520000D01*
X80237071Y-106300000D02*
X79840000Y-106300000D01*
X80237071Y-107060000D02*
X79840000Y-107060000D01*
X80237071Y-108840000D02*
X79840000Y-108840000D01*
X80237071Y-109600000D02*
X79840000Y-109600000D01*
X80237071Y-111380000D02*
X79840000Y-111380000D01*
X80237071Y-112140000D02*
X79840000Y-112140000D01*
X80237071Y-113920000D02*
X79840000Y-113920000D01*
X80237071Y-114680000D02*
X79840000Y-114680000D01*
X80237071Y-116460000D02*
X79840000Y-116460000D01*
X80237071Y-117220000D02*
X79840000Y-117220000D01*
X82710000Y-116460000D02*
X82322929Y-116460000D01*
X82710000Y-117220000D02*
X82322929Y-117220000D01*
X82777071Y-103760000D02*
X82322929Y-103760000D01*
X82777071Y-104520000D02*
X82322929Y-104520000D01*
X82777071Y-106300000D02*
X82322929Y-106300000D01*
X82777071Y-107060000D02*
X82322929Y-107060000D01*
X82777071Y-108840000D02*
X82322929Y-108840000D01*
X82777071Y-109600000D02*
X82322929Y-109600000D01*
X82777071Y-111380000D02*
X82322929Y-111380000D01*
X82777071Y-112140000D02*
X82322929Y-112140000D01*
X82777071Y-113920000D02*
X82322929Y-113920000D01*
X82777071Y-114680000D02*
X82322929Y-114680000D01*
X85090000Y-116840000D02*
X85090000Y-118110000D01*
X85090000Y-118110000D02*
X83820000Y-118110000D01*
%TO.C,R24*%
X109021359Y-103995000D02*
X109328641Y-103995000D01*
X109021359Y-104755000D02*
X109328641Y-104755000D01*
%TO.C,R2*%
X105170000Y-88896359D02*
X105170000Y-89203641D01*
X105930000Y-88896359D02*
X105930000Y-89203641D01*
%TO.C,C2*%
X95640580Y-88490000D02*
X95359420Y-88490000D01*
X95640580Y-89510000D02*
X95359420Y-89510000D01*
%TO.C,R37*%
X103046359Y-97695000D02*
X103353641Y-97695000D01*
X103046359Y-98455000D02*
X103353641Y-98455000D01*
%TO.C,R33*%
X104220000Y-96496359D02*
X104220000Y-96803641D01*
X104980000Y-96496359D02*
X104980000Y-96803641D01*
%TO.C,R9*%
X103046359Y-93895000D02*
X103353641Y-93895000D01*
X103046359Y-94655000D02*
X103353641Y-94655000D01*
%TO.C,C4*%
X95640580Y-98990000D02*
X95359420Y-98990000D01*
X95640580Y-100010000D02*
X95359420Y-100010000D01*
%TO.C,R36*%
X103046359Y-96745000D02*
X103353641Y-96745000D01*
X103046359Y-97505000D02*
X103353641Y-97505000D01*
%TO.C,R13*%
X104220000Y-93003641D02*
X104220000Y-92696359D01*
X104980000Y-93003641D02*
X104980000Y-92696359D01*
%TO.C,C6*%
X94109420Y-109740000D02*
X94390580Y-109740000D01*
X94109420Y-110760000D02*
X94390580Y-110760000D01*
%TO.C,R40*%
X103046359Y-100545000D02*
X103353641Y-100545000D01*
X103046359Y-101305000D02*
X103353641Y-101305000D01*
%TO.C,R42*%
X103046359Y-102445000D02*
X103353641Y-102445000D01*
X103046359Y-103205000D02*
X103353641Y-103205000D01*
%TO.C,R45*%
X104220000Y-100603641D02*
X104220000Y-100296359D01*
X104980000Y-100603641D02*
X104980000Y-100296359D01*
%TO.C,R32*%
X111145000Y-105953641D02*
X111145000Y-105646359D01*
X111905000Y-105953641D02*
X111905000Y-105646359D01*
%TO.C,R26*%
X109021359Y-105895000D02*
X109328641Y-105895000D01*
X109021359Y-106655000D02*
X109328641Y-106655000D01*
%TO.C,R48*%
X105170000Y-102503641D02*
X105170000Y-102196359D01*
X105930000Y-102503641D02*
X105930000Y-102196359D01*
%TO.C,R3*%
X103046359Y-88195000D02*
X103353641Y-88195000D01*
X103046359Y-88955000D02*
X103353641Y-88955000D01*
%TO.C,R30*%
X111145000Y-104053641D02*
X111145000Y-103746359D01*
X111905000Y-104053641D02*
X111905000Y-103746359D01*
%TO.C,R57*%
X88762742Y-97477500D02*
X89237258Y-97477500D01*
X88762742Y-98522500D02*
X89237258Y-98522500D01*
%TO.C,R54*%
X98512742Y-113227500D02*
X98987258Y-113227500D01*
X98512742Y-114272500D02*
X98987258Y-114272500D01*
%TO.C,R10*%
X103046359Y-94845000D02*
X103353641Y-94845000D01*
X103046359Y-95605000D02*
X103353641Y-95605000D01*
%TD*%
M02*
