%TF.GenerationSoftware,KiCad,Pcbnew,8.0.3*%
%TF.CreationDate,2025-01-13T10:43:53-08:00*%
%TF.ProjectId,Stereo_VGA,53746572-656f-45f5-9647-412e6b696361,rev?*%
%TF.SameCoordinates,Original*%
%TF.FileFunction,Paste,Top*%
%TF.FilePolarity,Positive*%
%FSLAX46Y46*%
G04 Gerber Fmt 4.6, Leading zero omitted, Abs format (unit mm)*
G04 Created by KiCad (PCBNEW 8.0.3) date 2025-01-13 10:43:53*
%MOMM*%
%LPD*%
G01*
G04 APERTURE LIST*
G04 Aperture macros list*
%AMRoundRect*
0 Rectangle with rounded corners*
0 $1 Rounding radius*
0 $2 $3 $4 $5 $6 $7 $8 $9 X,Y pos of 4 corners*
0 Add a 4 corners polygon primitive as box body*
4,1,4,$2,$3,$4,$5,$6,$7,$8,$9,$2,$3,0*
0 Add four circle primitives for the rounded corners*
1,1,$1+$1,$2,$3*
1,1,$1+$1,$4,$5*
1,1,$1+$1,$6,$7*
1,1,$1+$1,$8,$9*
0 Add four rect primitives between the rounded corners*
20,1,$1+$1,$2,$3,$4,$5,0*
20,1,$1+$1,$4,$5,$6,$7,0*
20,1,$1+$1,$6,$7,$8,$9,0*
20,1,$1+$1,$8,$9,$2,$3,0*%
G04 Aperture macros list end*
%ADD10RoundRect,0.250000X0.250000X0.475000X-0.250000X0.475000X-0.250000X-0.475000X0.250000X-0.475000X0*%
%ADD11RoundRect,0.200000X0.200000X0.275000X-0.200000X0.275000X-0.200000X-0.275000X0.200000X-0.275000X0*%
%ADD12RoundRect,0.135000X0.185000X-0.135000X0.185000X0.135000X-0.185000X0.135000X-0.185000X-0.135000X0*%
%ADD13RoundRect,0.135000X-0.135000X-0.185000X0.135000X-0.185000X0.135000X0.185000X-0.135000X0.185000X0*%
%ADD14R,3.500000X1.500000*%
%ADD15RoundRect,0.225000X0.225000X0.250000X-0.225000X0.250000X-0.225000X-0.250000X0.225000X-0.250000X0*%
%ADD16RoundRect,0.135000X-0.185000X0.135000X-0.185000X-0.135000X0.185000X-0.135000X0.185000X0.135000X0*%
%ADD17RoundRect,0.100000X-0.637500X-0.100000X0.637500X-0.100000X0.637500X0.100000X-0.637500X0.100000X0*%
%ADD18RoundRect,0.225000X-0.225000X-0.250000X0.225000X-0.250000X0.225000X0.250000X-0.225000X0.250000X0*%
%ADD19RoundRect,0.200000X-0.200000X-0.275000X0.200000X-0.275000X0.200000X0.275000X-0.200000X0.275000X0*%
%ADD20RoundRect,0.218750X0.218750X0.256250X-0.218750X0.256250X-0.218750X-0.256250X0.218750X-0.256250X0*%
G04 APERTURE END LIST*
D10*
%TO.C,C13*%
X110950000Y-80250000D03*
X109050000Y-80250000D03*
%TD*%
%TO.C,C12*%
X110950000Y-84250000D03*
X109050000Y-84250000D03*
%TD*%
D11*
%TO.C,R53*%
X99575000Y-108500000D03*
X97925000Y-108500000D03*
%TD*%
D12*
%TO.C,R29*%
X110575000Y-104410000D03*
X110575000Y-103390000D03*
%TD*%
D13*
%TO.C,R22*%
X108665000Y-102475000D03*
X109685000Y-102475000D03*
%TD*%
%TO.C,R49*%
X109790000Y-107500000D03*
X110810000Y-107500000D03*
%TD*%
D14*
%TO.C,J3*%
X115630000Y-80920000D03*
X123130000Y-82920000D03*
X115630000Y-87920000D03*
%TD*%
D12*
%TO.C,R14*%
X105550000Y-93360000D03*
X105550000Y-92340000D03*
%TD*%
%TO.C,R47*%
X104600000Y-102860000D03*
X104600000Y-101840000D03*
%TD*%
D15*
%TO.C,C10*%
X95025000Y-115500000D03*
X93475000Y-115500000D03*
%TD*%
D11*
%TO.C,R56*%
X110825000Y-82250000D03*
X109175000Y-82250000D03*
%TD*%
D13*
%TO.C,R38*%
X102690000Y-99025000D03*
X103710000Y-99025000D03*
%TD*%
%TO.C,R7*%
X102690000Y-92375000D03*
X103710000Y-92375000D03*
%TD*%
D15*
%TO.C,C7*%
X99525000Y-110250000D03*
X97975000Y-110250000D03*
%TD*%
D11*
%TO.C,R52*%
X95075000Y-113750000D03*
X93425000Y-113750000D03*
%TD*%
D16*
%TO.C,R18*%
X111525000Y-99590000D03*
X111525000Y-100610000D03*
%TD*%
D13*
%TO.C,R21*%
X108665000Y-101525000D03*
X109685000Y-101525000D03*
%TD*%
%TO.C,R35*%
X102690000Y-96175000D03*
X103710000Y-96175000D03*
%TD*%
D17*
%TO.C,U2*%
X93637500Y-101075000D03*
X93637500Y-101725000D03*
X93637500Y-102375000D03*
X93637500Y-103025000D03*
X93637500Y-103675000D03*
X93637500Y-104325000D03*
X93637500Y-104975000D03*
X93637500Y-105625000D03*
X93637500Y-106275000D03*
X93637500Y-106925000D03*
X99362500Y-106925000D03*
X99362500Y-106275000D03*
X99362500Y-105625000D03*
X99362500Y-104975000D03*
X99362500Y-104325000D03*
X99362500Y-103675000D03*
X99362500Y-103025000D03*
X99362500Y-102375000D03*
X99362500Y-101725000D03*
X99362500Y-101075000D03*
%TD*%
D12*
%TO.C,R31*%
X110575000Y-106310000D03*
X110575000Y-105290000D03*
%TD*%
%TO.C,R12*%
X105550000Y-91460000D03*
X105550000Y-90440000D03*
%TD*%
D18*
%TO.C,C3*%
X97725000Y-99500000D03*
X99275000Y-99500000D03*
%TD*%
D13*
%TO.C,R41*%
X102690000Y-101875000D03*
X103710000Y-101875000D03*
%TD*%
%TO.C,R23*%
X108665000Y-103425000D03*
X109685000Y-103425000D03*
%TD*%
D11*
%TO.C,R55*%
X110825000Y-86250000D03*
X109175000Y-86250000D03*
%TD*%
D13*
%TO.C,R39*%
X102690000Y-99975000D03*
X103710000Y-99975000D03*
%TD*%
%TO.C,R20*%
X108665000Y-100575000D03*
X109685000Y-100575000D03*
%TD*%
D12*
%TO.C,R44*%
X105550000Y-99060000D03*
X105550000Y-98040000D03*
%TD*%
%TO.C,R46*%
X105550000Y-100960000D03*
X105550000Y-99940000D03*
%TD*%
D13*
%TO.C,R6*%
X102690000Y-91425000D03*
X103710000Y-91425000D03*
%TD*%
%TO.C,R4*%
X102690000Y-89525000D03*
X103710000Y-89525000D03*
%TD*%
D17*
%TO.C,U1*%
X93637500Y-90575000D03*
X93637500Y-91225000D03*
X93637500Y-91875000D03*
X93637500Y-92525000D03*
X93637500Y-93175000D03*
X93637500Y-93825000D03*
X93637500Y-94475000D03*
X93637500Y-95125000D03*
X93637500Y-95775000D03*
X93637500Y-96425000D03*
X99362500Y-96425000D03*
X99362500Y-95775000D03*
X99362500Y-95125000D03*
X99362500Y-94475000D03*
X99362500Y-93825000D03*
X99362500Y-93175000D03*
X99362500Y-92525000D03*
X99362500Y-91875000D03*
X99362500Y-91225000D03*
X99362500Y-90575000D03*
%TD*%
D16*
%TO.C,R34*%
X105550000Y-96140000D03*
X105550000Y-97160000D03*
%TD*%
D13*
%TO.C,R19*%
X108665000Y-99625000D03*
X109685000Y-99625000D03*
%TD*%
D12*
%TO.C,R11*%
X104600000Y-91460000D03*
X104600000Y-90440000D03*
%TD*%
D13*
%TO.C,R25*%
X108665000Y-105325000D03*
X109685000Y-105325000D03*
%TD*%
D15*
%TO.C,C9*%
X99525000Y-112000000D03*
X97975000Y-112000000D03*
%TD*%
D19*
%TO.C,R51*%
X93425000Y-108500000D03*
X95075000Y-108500000D03*
%TD*%
D12*
%TO.C,R27*%
X110575000Y-102510000D03*
X110575000Y-101490000D03*
%TD*%
D13*
%TO.C,R8*%
X102690000Y-93325000D03*
X103710000Y-93325000D03*
%TD*%
%TO.C,R5*%
X102690000Y-90475000D03*
X103710000Y-90475000D03*
%TD*%
D12*
%TO.C,R16*%
X105550000Y-95260000D03*
X105550000Y-94240000D03*
%TD*%
%TO.C,R15*%
X104600000Y-95260000D03*
X104600000Y-94240000D03*
%TD*%
D13*
%TO.C,R50*%
X109790000Y-108500000D03*
X110810000Y-108500000D03*
%TD*%
D18*
%TO.C,C1*%
X97725000Y-89000000D03*
X99275000Y-89000000D03*
%TD*%
%TO.C,C8*%
X93475000Y-112000000D03*
X95025000Y-112000000D03*
%TD*%
D12*
%TO.C,R43*%
X104600000Y-99060000D03*
X104600000Y-98040000D03*
%TD*%
D16*
%TO.C,R17*%
X110575000Y-99590000D03*
X110575000Y-100610000D03*
%TD*%
%TO.C,R1*%
X104600000Y-88540000D03*
X104600000Y-89560000D03*
%TD*%
D20*
%TO.C,D1*%
X89787500Y-100000000D03*
X88212500Y-100000000D03*
%TD*%
D12*
%TO.C,R28*%
X111525000Y-102510000D03*
X111525000Y-101490000D03*
%TD*%
D18*
%TO.C,C11*%
X97975000Y-115500000D03*
X99525000Y-115500000D03*
%TD*%
D13*
%TO.C,R24*%
X108665000Y-104375000D03*
X109685000Y-104375000D03*
%TD*%
D16*
%TO.C,R2*%
X105550000Y-88540000D03*
X105550000Y-89560000D03*
%TD*%
D15*
%TO.C,C2*%
X96275000Y-89000000D03*
X94725000Y-89000000D03*
%TD*%
D13*
%TO.C,R37*%
X102690000Y-98075000D03*
X103710000Y-98075000D03*
%TD*%
D16*
%TO.C,R33*%
X104600000Y-96140000D03*
X104600000Y-97160000D03*
%TD*%
D13*
%TO.C,R9*%
X102690000Y-94275000D03*
X103710000Y-94275000D03*
%TD*%
D15*
%TO.C,C4*%
X96275000Y-99500000D03*
X94725000Y-99500000D03*
%TD*%
D13*
%TO.C,R36*%
X102690000Y-97125000D03*
X103710000Y-97125000D03*
%TD*%
D12*
%TO.C,R13*%
X104600000Y-93360000D03*
X104600000Y-92340000D03*
%TD*%
D18*
%TO.C,C6*%
X93475000Y-110250000D03*
X95025000Y-110250000D03*
%TD*%
D13*
%TO.C,R40*%
X102690000Y-100925000D03*
X103710000Y-100925000D03*
%TD*%
%TO.C,R42*%
X102690000Y-102825000D03*
X103710000Y-102825000D03*
%TD*%
D12*
%TO.C,R45*%
X104600000Y-100960000D03*
X104600000Y-99940000D03*
%TD*%
%TO.C,R32*%
X111525000Y-106310000D03*
X111525000Y-105290000D03*
%TD*%
D13*
%TO.C,R26*%
X108665000Y-106275000D03*
X109685000Y-106275000D03*
%TD*%
D12*
%TO.C,R48*%
X105550000Y-102860000D03*
X105550000Y-101840000D03*
%TD*%
D13*
%TO.C,R3*%
X102690000Y-88575000D03*
X103710000Y-88575000D03*
%TD*%
D12*
%TO.C,R30*%
X111525000Y-104410000D03*
X111525000Y-103390000D03*
%TD*%
D19*
%TO.C,R57*%
X88175000Y-98000000D03*
X89825000Y-98000000D03*
%TD*%
%TO.C,R54*%
X97925000Y-113750000D03*
X99575000Y-113750000D03*
%TD*%
D13*
%TO.C,R10*%
X102690000Y-95225000D03*
X103710000Y-95225000D03*
%TD*%
M02*
