M48
; DRILL file {KiCad 8.0.3} date 2025-01-13T10:43:57-0800
; FORMAT={-:-/ absolute / inch / decimal}
; #@! TF.CreationDate,2025-01-13T10:43:57-08:00
; #@! TF.GenerationSoftware,Kicad,Pcbnew,8.0.3
; #@! TF.FileFunction,Plated,1,2,PTH
FMAT,2
INCH
; #@! TA.AperFunction,Plated,PTH,ViaDrill
T1C0.0118
; #@! TA.AperFunction,Plated,PTH,ComponentDrill
T2C0.0281
; #@! TA.AperFunction,Plated,PTH,ComponentDrill
T3C0.0315
; #@! TA.AperFunction,Plated,PTH,ComponentDrill
T4C0.0394
; #@! TA.AperFunction,Plated,PTH,ComponentDrill
T5C0.0394
; #@! TA.AperFunction,Plated,PTH,ComponentDrill
T6C0.1260
%
G90
G05
T1
X3.0906Y-3.937
X3.0925Y-4.6211
X3.3701Y-3.1299
X3.563Y-3.7707
X3.5827Y-3.7451
X3.5827Y-3.937
X3.6024Y-3.7195
X3.6142Y-4.2598
X3.622Y-3.6939
X3.622Y-3.7992
X3.622Y-4.1329
X3.622Y-4.1841
X3.6319Y-4.5472
X3.6404Y-4.1585
X3.6417Y-4.1073
X3.6811Y-3.5039
X3.6811Y-3.9173
X3.6811Y-4.5965
X3.7402Y-3.3268
X3.7402Y-3.7992
X3.748Y-3.6102
X3.7717Y-4.189
X3.7992Y-4.3406
X3.7992Y-4.4094
X3.8346Y-4.0
X3.8583Y-3.5827
X3.877Y-3.9498
X3.8878Y-4.5079
X3.9567Y-3.5039
X3.9665Y-4.0049
X3.9665Y-4.5276
X3.9724Y-4.2402
X4.0236Y-4.6142
X4.0591Y-4.4724
X4.062Y-4.0965
X4.0748Y-4.311
X4.1693Y-4.5197
X4.1988Y-3.7844
X4.2028Y-3.3661
X4.2028Y-3.7126
X4.2047Y-3.1102
X4.2333Y-3.9459
X4.3307Y-3.2037
X4.3317Y-3.2726
X4.4281Y-3.8839
X4.438Y-4.1486
X4.4459Y-3.3022
X4.4488Y-3.1496
X4.4685Y-4.5374
X4.498Y-4.3179
X4.5472Y-3.1299
X4.6142Y-3.315
X4.6161Y-4.6358
X4.624Y-3.8691
X4.6378Y-4.0591
X4.6555Y-3.2283
X4.6969Y-3.6299
X4.7638Y-4.0512
X4.8701Y-4.1417
X4.9636Y-4.1969
X5.0079Y-3.9626
T2
X3.6795Y-3.2677
X3.7795Y-3.1677
X3.8795Y-3.2677
X4.0043Y-3.2677
X4.1043Y-3.1677
X4.2043Y-3.2677
T3
X3.2Y-3.9
X3.2984Y-3.9
T4
X4.55Y-3.85
X4.55Y-4.45
X4.85Y-3.85
X4.85Y-4.45
T5
X3.2Y-3.2
X3.2Y-3.3
X3.2Y-3.4
X3.2Y-3.5
X3.2Y-3.6
X3.2Y-3.7
X3.2Y-4.1
X3.2Y-4.2
X3.2Y-4.3
X3.2Y-4.4
X3.2Y-4.5
X3.2Y-4.6
X3.3Y-3.2
X3.3Y-3.3
X3.3Y-3.4
X3.3Y-3.5
X3.3Y-3.6
X3.3Y-3.7
X3.3Y-4.1
X3.3Y-4.2
X3.3Y-4.3
X3.3Y-4.4
X3.3Y-4.5
X3.3Y-4.6
X4.1Y-4.4
X4.1Y-4.6
X4.2Y-4.4
X4.2Y-4.6
X4.3Y-4.4
X4.3Y-4.6
X5.0786Y-3.7259
X5.0786Y-3.8156
X5.0786Y-3.9054
X5.0786Y-3.9951
X5.0786Y-4.0849
X5.1786Y-3.681
X5.1786Y-3.7707
X5.1786Y-3.8605
X5.1786Y-3.9503
X5.1786Y-4.04
X5.2786Y-3.7259
X5.2786Y-3.8156
X5.2786Y-3.9054
X5.2786Y-3.9951
X5.2786Y-4.0849
T6
X5.1786Y-3.4034
X5.1786Y-4.3873
M30
